<svg width="13" height="16" viewBox="0 0 13 16" fill="none" xmlns="http://www.w3.org/2000/svg">
<path id="Vector" d="M4.37531 0.8125V0H8.62469V0.8125H4.37531ZM6.09375 9.84344H6.90625V5.59406H6.09375V9.84344ZM6.5 15.8438C5.60192 15.8438 4.75881 15.6742 3.97069 15.3351C3.1831 14.996 2.49383 14.5313 1.90287 13.9409C1.31246 13.3505 0.847708 12.6612 0.508625 11.8731C0.169542 11.0849 0 10.2418 0 9.34375C0 8.44567 0.169542 7.60256 0.508625 6.81444C0.847708 6.02685 1.31246 5.33758 1.90287 4.74662C2.49329 4.15621 3.18283 3.69146 3.9715 3.35238C4.75908 3.01329 5.60192 2.84375 6.5 2.84375C7.28758 2.84375 8.04917 2.98458 8.78475 3.26625C9.51979 3.54683 10.1947 3.94442 10.8095 4.459L11.6967 3.57175L12.272 4.147L11.3847 5.03425C11.8993 5.64904 12.2972 6.32396 12.5783 7.059C12.8594 7.79458 13 8.55617 13 9.34375C13 10.2418 12.8305 11.0849 12.4914 11.8731C12.1523 12.6606 11.6875 13.3499 11.0971 13.9409C10.5067 14.5313 9.81744 14.996 9.02931 15.3351C8.24119 15.6742 7.39808 15.8438 6.5 15.8438Z" fill="#6A78F2"/>
</svg>
