<svg width="20" height="20" viewBox="0 0 20 20" fill="none" xmlns="http://www.w3.org/2000/svg">
<g id="lets-icons:time-atack-light">
<g id="Group">
<path id="Vector" d="M9.9996 5.59962C9.9996 5.39295 9.9996 5.28879 10.0471 5.20379C10.0901 5.13056 10.1551 5.07281 10.2329 5.03879C10.3229 5.00212 10.4146 5.01379 10.5979 5.03546C11.4188 5.13452 12.2023 5.43561 12.8782 5.91174C13.5542 6.38788 14.1015 7.02422 14.4712 7.76377C14.8409 8.50333 15.0214 9.32302 14.9966 10.1495C14.9718 10.9759 14.7424 11.7833 14.329 12.4993C13.9156 13.2154 13.3311 13.8177 12.6278 14.2525C11.9245 14.6872 11.1244 14.9408 10.2991 14.9904C9.47379 15.0401 8.64904 14.8843 7.8987 14.537C7.14836 14.1897 6.49585 13.6618 5.9996 13.0005C5.88876 12.8521 5.83293 12.778 5.82043 12.6821C5.81084 12.5975 5.82835 12.512 5.87043 12.438C5.92043 12.3546 6.0096 12.303 6.18876 12.1996L9.6996 10.173C9.80876 10.1096 9.86376 10.078 9.90293 10.0338C9.9382 9.99477 9.96489 9.94877 9.98126 9.89879C9.9996 9.84296 9.9996 9.77962 9.9996 9.65296V5.59962Z" fill="#C108FE"/>
<path id="Vector_2" d="M9.99984 17.0832C13.9119 17.0832 17.0832 13.9119 17.0832 9.99984C17.0832 6.08782 13.9119 2.9165 9.99984 2.9165C6.08782 2.9165 2.9165 6.08782 2.9165 9.99984C2.9165 13.9119 6.08782 17.0832 9.99984 17.0832Z" stroke="#C108FE"/>
</g>
</g>
</svg>
