<svg width="16" height="16" viewBox="0 0 16 16" fill="none" xmlns="http://www.w3.org/2000/svg">
<path id="Vector" d="M8.00054 0C3.58587 0 0 1.13806 0 2.53879C6.73106e-05 3.3034 1.09077 3.99321 2.77872 4.45867C2.19288 4.1544 1.85219 3.80245 1.85219 3.41814C1.85219 2.32099 4.60351 1.41938 8.00054 1.41938C11.3976 1.41938 14.1679 2.32092 14.1679 3.41814C14.1679 3.80041 13.8212 4.15542 13.2413 4.45867C14.9188 3.99332 16 3.30067 16 2.53879C16 1.13806 12.4152 0 8.00054 0ZM4.35951 2.74369V3.77138H11.6385V2.74369H4.35951ZM4.50671 4.40949V11.5831H5.13563V4.40953H4.50675L4.50671 4.40949ZM5.82348 4.40949C5.84697 6.52033 6.6758 7.70268 7.60081 7.95467C6.66362 8.20993 5.82462 9.41967 5.82237 11.583H10.1366C10.1344 9.41957 9.29681 8.21024 8.36025 7.95467C9.28469 7.70244 10.112 6.52046 10.1356 4.40953H5.82344L5.82348 4.40949ZM10.8023 4.40949V11.5831H11.4313V4.40953H10.8023V4.40949ZM2.77872 11.5414C1.0908 12.0068 3.36368e-05 12.6966 3.36368e-05 13.4612C3.36368e-05 14.8619 3.58587 16 8.00057 16C12.4152 16 16 14.862 16 13.4613C16 12.6994 14.9188 12.0068 13.2413 11.5414C13.8212 11.8446 14.1679 12.1986 14.1679 12.5808C14.1679 13.6781 11.3976 14.5807 8.00054 14.5807C4.60347 14.5807 1.85219 13.6779 1.85219 12.5808C1.85219 12.1965 2.19288 11.8456 2.77872 11.5414V11.5414ZM4.35951 12.2212V13.2478H11.6385V12.2212H4.35951Z" fill="#02FFE2"/>
</svg>
