<svg width="11" height="11" viewBox="0 0 11 11" fill="none" xmlns="http://www.w3.org/2000/svg">
<path d="M9.14375 9.625C8.18889 9.625 7.24549 9.41692 6.31354 9.00075C5.3816 8.58458 4.53368 7.9944 3.76979 7.23021C3.0059 6.46632 2.41587 5.6184 1.99971 4.68646C1.58354 3.75451 1.37531 2.81111 1.375 1.85625C1.375 1.71875 1.42083 1.60417 1.5125 1.5125C1.60417 1.42083 1.71875 1.375 1.85625 1.375H3.7125C3.81944 1.375 3.91493 1.41136 3.99896 1.48408C4.08299 1.55681 4.13264 1.64267 4.14792 1.74167L4.44583 3.34583C4.46111 3.46806 4.45729 3.57118 4.43438 3.65521C4.41146 3.73924 4.36944 3.81181 4.30833 3.87292L3.19687 4.99583C3.34965 5.27847 3.531 5.55149 3.74092 5.81488C3.95083 6.07826 4.18199 6.33233 4.43438 6.57708C4.67118 6.81389 4.91944 7.03358 5.17917 7.23617C5.43889 7.43875 5.71389 7.62392 6.00417 7.79167L7.08125 6.71458C7.15 6.64583 7.23983 6.59435 7.35075 6.56012C7.46167 6.5259 7.57044 6.51628 7.67708 6.53125L9.25833 6.85208C9.36528 6.88264 9.45312 6.9381 9.52188 7.01846C9.59062 7.09882 9.625 7.1885 9.625 7.2875V9.14375C9.625 9.28125 9.57917 9.39583 9.4875 9.4875C9.39583 9.57917 9.28125 9.625 9.14375 9.625Z" fill="#02FFE2"/>
</svg>
