<svg width="375" height="48" viewBox="0 0 375 48" fill="none" xmlns="http://www.w3.org/2000/svg">
<g filter="url(#filter0_d_499_1580)">
<path d="M37.8297 34.4C37.8297 35.9467 37.2697 37.28 36.1497 38.4C35.083 39.4667 33.7764 40 32.2297 40H9.82969C8.28302 40 6.94969 39.4667 5.82969 38.4C4.76302 37.28 4.22969 35.9467 4.22969 34.4V6.4C4.22969 4.85333 4.76302 3.54666 5.82969 2.48C6.94969 1.36 8.28302 0.799999 9.82969 0.799999H32.2297C33.7764 0.799999 35.083 1.36 36.1497 2.48C37.2697 3.54666 37.8297 4.85333 37.8297 6.4V12H31.4297V6.4H10.6297V34.4H31.4297V28.8H37.8297V34.4ZM83.0641 34.4C83.0641 35.9467 82.5041 37.28 81.3841 38.4C80.3174 39.4667 79.0107 40 77.4641 40H55.0641C53.5174 40 52.1841 39.4667 51.0641 38.4C49.9974 37.28 49.4641 35.9467 49.4641 34.4V6.4C49.4641 4.85333 49.9974 3.54666 51.0641 2.48C52.1841 1.36 53.5174 0.799999 55.0641 0.799999H77.4641C79.0107 0.799999 80.3174 1.36 81.3841 2.48C82.5041 3.54666 83.0641 4.85333 83.0641 6.4V34.4ZM76.6641 34.4V6.4H55.8641V34.4H76.6641ZM130.652 34.4C130.652 35.8933 130.092 37.2 128.972 38.32C127.852 39.44 126.545 40 125.052 40H97.0516V12L102.652 6.4H97.0516V0.799999H125.052C126.545 0.799999 127.852 1.36 128.972 2.48C130.092 3.6 130.652 4.90667 130.652 6.4V34.4ZM124.252 34.4V6.4H103.452V39.2L108.252 34.4H124.252ZM172.63 40H144.63V12L150.23 6.4H144.63V0.799999H172.63V6.4H151.03V22.4L155.83 17.6H172.63V23.2H151.03V34.4H172.63V40ZM218.23 34.4C218.23 35.9467 217.67 37.28 216.55 38.4C215.483 39.4667 214.176 40 212.63 40H184.63V12L190.23 6.4H184.63V0.799999H207.03C208.576 0.799999 209.883 1.36 210.95 2.48C212.07 3.54666 212.63 4.85333 212.63 6.4V17.6H212.79C214.336 17.6 215.616 18.16 216.63 19.28C217.696 20.3467 218.23 21.6533 218.23 23.2V34.4ZM206.23 17.6V6.4H191.03V22.4L195.83 17.6H206.23ZM211.83 34.4V23.2H191.03V34.4H211.83ZM237.436 40H231.036V0.799999H237.436V40ZM279.817 40H251.817V0.799999H258.217V34.4H273.417V28.8H279.817V40ZM294.233 40H287.833V0.799999H294.233V40ZM331.414 6.4H319.814V40H313.414V6.4H301.814V0.799999H331.414V6.4ZM371.005 23.2C371.005 24.7467 370.445 26.08 369.325 27.2C368.258 28.2667 366.951 28.8 365.405 28.8H357.405V40H351.005V28.8H343.005C341.458 28.8 340.125 28.2667 339.005 27.2C337.938 26.08 337.405 24.7467 337.405 23.2V0.799999H343.805V23.2H364.605V0.799999H371.005V23.2Z" fill="#D9D9D9"/>
</g>
<defs>
<filter id="filter0_d_499_1580" x="0.229492" y="0.799805" width="374.775" height="47.2002" filterUnits="userSpaceOnUse" color-interpolation-filters="sRGB">
<feFlood flood-opacity="0" result="BackgroundImageFix"/>
<feColorMatrix in="SourceAlpha" type="matrix" values="0 0 0 0 0 0 0 0 0 0 0 0 0 0 0 0 0 0 127 0" result="hardAlpha"/>
<feOffset dy="4"/>
<feGaussianBlur stdDeviation="2"/>
<feComposite in2="hardAlpha" operator="out"/>
<feColorMatrix type="matrix" values="0 0 0 0 0 0 0 0 0 0 0 0 0 0 0 0 0 0 0.25 0"/>
<feBlend mode="normal" in2="BackgroundImageFix" result="effect1_dropShadow_499_1580"/>
<feBlend mode="normal" in="SourceGraphic" in2="effect1_dropShadow_499_1580" result="shape"/>
</filter>
</defs>
</svg>
