<svg width="18" height="18" viewBox="0 0 18 18" fill="none" xmlns="http://www.w3.org/2000/svg">
<path d="M10.1029 5.64749C10.2083 5.75283 10.3513 5.812 10.5004 5.812C10.6494 5.812 10.7924 5.75283 10.8979 5.64749L11.4379 5.10749V12.75C11.4379 12.8992 11.4971 13.0423 11.6026 13.1477C11.7081 13.2532 11.8512 13.3125 12.0004 13.3125C12.1495 13.3125 12.2926 13.2532 12.3981 13.1477C12.5036 13.0423 12.5629 12.8992 12.5629 12.75V5.10749L13.1029 5.64749C13.1544 5.70276 13.2165 5.74709 13.2855 5.77783C13.3545 5.80857 13.4289 5.8251 13.5045 5.82644C13.58 5.82777 13.655 5.81388 13.7251 5.78559C13.7951 5.75729 13.8587 5.71519 13.9121 5.66177C13.9656 5.60836 14.0077 5.54473 14.036 5.47469C14.0642 5.40465 14.0781 5.32963 14.0768 5.2541C14.0755 5.17857 14.0589 5.10409 14.0282 5.03509C13.9975 4.96609 13.9531 4.90399 13.8979 4.85249L12.3979 3.35249C12.2924 3.24716 12.1494 3.18799 12.0004 3.18799C11.8513 3.18799 11.7083 3.24716 11.6029 3.35249L10.1029 4.85249C9.99752 4.95796 9.93835 5.10093 9.93835 5.24999C9.93835 5.39906 9.99752 5.54202 10.1029 5.64749ZM6.56286 12.8925L7.10286 12.3525C7.15436 12.2972 7.21646 12.2529 7.28546 12.2222C7.35446 12.1914 7.42894 12.1749 7.50447 12.1735C7.57999 12.1722 7.65502 12.1861 7.72506 12.2144C7.7951 12.2427 7.85872 12.2848 7.91214 12.3382C7.96555 12.3916 8.00766 12.4553 8.03595 12.5253C8.06424 12.5953 8.07814 12.6704 8.0768 12.7459C8.07547 12.8214 8.05894 12.8959 8.0282 12.9649C7.99745 13.0339 7.95312 13.096 7.89786 13.1475L6.39786 14.6475C6.29239 14.7528 6.14942 14.812 6.00036 14.812C5.8513 14.812 5.70833 14.7528 5.60286 14.6475L4.10286 13.1475C4.04759 13.096 4.00327 13.0339 3.97252 12.9649C3.94178 12.8959 3.92525 12.8214 3.92392 12.7459C3.92258 12.6704 3.93648 12.5953 3.96477 12.5253C3.99306 12.4553 4.03517 12.3916 4.08858 12.3382C4.14199 12.2848 4.20562 12.2427 4.27566 12.2144C4.3457 12.1861 4.42072 12.1722 4.49625 12.1735C4.57178 12.1749 4.64626 12.1914 4.71526 12.2222C4.78426 12.2529 4.84636 12.2972 4.89786 12.3525L5.43786 12.8925V5.24999C5.43786 5.10081 5.49712 4.95773 5.60261 4.85225C5.7081 4.74676 5.85118 4.68749 6.00036 4.68749C6.14954 4.68749 6.29262 4.74676 6.39811 4.85225C6.5036 4.95773 6.56286 5.10081 6.56286 5.24999V12.8925Z" fill="#583DFF"/>
</svg>
