<svg width="17" height="26" viewBox="0 0 17 26" fill="none" xmlns="http://www.w3.org/2000/svg">
<path d="M13.9172 25.1115C14.4332 25.1123 14.9332 24.9715 15.3305 24.7135C15.5541 24.5683 15.739 24.3899 15.8744 24.1886C16.0099 23.9873 16.0934 23.767 16.1201 23.5404C16.1467 23.3138 16.1161 23.0852 16.0299 22.8679C15.9436 22.6506 15.8035 22.4487 15.6176 22.2739L5.72426 12.9998L15.2643 3.7084C15.4477 3.53142 15.5847 3.32778 15.6673 3.10918C15.75 2.89058 15.7767 2.66134 15.7459 2.43463C15.7151 2.20792 15.6275 1.98821 15.488 1.78813C15.3485 1.58805 15.1599 1.41155 14.933 1.26877C14.7045 1.11125 14.4369 0.992439 14.1471 0.919787C13.8572 0.847136 13.5513 0.822214 13.2485 0.846585C12.9458 0.870955 12.6528 0.944092 12.3878 1.06141C12.1228 1.17872 11.8917 1.33768 11.7088 1.5283L1.04259 11.9097C0.717785 12.2193 0.540222 12.6077 0.540222 13.0084C0.540222 13.4092 0.717785 13.7976 1.04259 14.1072L12.0843 24.4886C12.3058 24.698 12.5872 24.8635 12.9057 24.9717C13.2241 25.08 13.5707 25.1278 13.9172 25.1115Z" fill="#6A78F2"/>
</svg>
