<svg width="20" height="20" viewBox="0 0 20 20" fill="none" xmlns="http://www.w3.org/2000/svg">
<path d="M18.7165 4.99998C18.0749 5.29165 17.3832 5.48331 16.6665 5.57498C17.3999 5.13331 17.9665 4.43331 18.2332 3.59165C17.5415 4.00831 16.7749 4.29998 15.9665 4.46665C15.3082 3.74998 14.3832 3.33331 13.3332 3.33331C11.3749 3.33331 9.77487 4.93331 9.77487 6.90831C9.77487 7.19165 9.8082 7.46665 9.86654 7.72498C6.89987 7.57498 4.2582 6.14998 2.49987 3.99165C2.19154 4.51665 2.01654 5.13331 2.01654 5.78331C2.01654 7.02498 2.64154 8.12498 3.6082 8.74998C3.01654 8.74998 2.46654 8.58331 1.9832 8.33331V8.35831C1.9832 10.0916 3.21654 11.5416 4.84987 11.8666C4.32548 12.0102 3.77495 12.0301 3.24154 11.925C3.46788 12.6354 3.91115 13.257 4.50905 13.7024C5.10695 14.1479 5.82941 14.3947 6.57487 14.4083C5.31123 15.4087 3.74487 15.9494 2.1332 15.9416C1.84987 15.9416 1.56654 15.925 1.2832 15.8916C2.86654 16.9083 4.74987 17.5 6.76654 17.5C13.3332 17.5 16.9415 12.05 16.9415 7.32498C16.9415 7.16665 16.9415 7.01665 16.9332 6.85831C17.6332 6.35831 18.2332 5.72498 18.7165 4.99998Z" fill="#D9D9D9"/>
</svg>
