<svg width="24" height="24" viewBox="0 0 24 24" fill="none" xmlns="http://www.w3.org/2000/svg">
<g clip-path="url(#clip0_315_506)">
<path d="M10.89 2.53798C11.1941 2.335 11.5481 2.21929 11.9134 2.20342C12.2787 2.18755 12.6414 2.27214 12.962 2.44798L13.109 2.53798L21.109 7.87098C21.3596 8.038 21.5693 8.25946 21.7224 8.51885C21.8754 8.77823 21.968 9.06884 21.993 9.36898L22 9.53498V19C22.0002 19.5046 21.8096 19.9905 21.4665 20.3605C21.1234 20.7305 20.6532 20.9571 20.15 20.995L20 21H4C3.49542 21.0001 3.00943 20.8096 2.63945 20.4665C2.26947 20.1234 2.04284 19.6531 2.005 19.15L2 19V9.53498C2.00001 9.23388 2.06799 8.93667 2.1989 8.66552C2.3298 8.39436 2.52024 8.15626 2.756 7.96898L2.891 7.87098L10.89 2.53798ZM12 4.20198L4.803 8.99998L12 13.798L19.197 8.99998L12 4.20198Z" fill="#9747FF"/>
</g>
<defs>
<clipPath id="clip0_315_506">
<rect width="24" height="24" fill="white"/>
</clipPath>
</defs>
</svg>
