<svg width="20" height="20" viewBox="0 0 20 20" fill="none" xmlns="http://www.w3.org/2000/svg">
<path d="M5.43932 12.095C5.43822 12.5294 5.2652 12.9458 4.95806 13.2531C4.65092 13.5604 4.23463 13.7337 3.80016 13.735C3.36554 13.7339 2.94904 13.5607 2.64172 13.2534C2.33439 12.9461 2.16126 12.5296 2.16016 12.095C2.16016 11.1925 2.89766 10.455 3.80016 10.455H5.43932V12.095ZM6.26599 12.095C6.26599 11.1925 7.00349 10.455 7.90599 10.455C8.80849 10.455 9.54516 11.1925 9.54516 12.095V16.2008C9.54406 16.6353 9.37103 17.0517 9.06389 17.359C8.75675 17.6663 8.34046 17.8395 7.90599 17.8408C7.47137 17.8397 7.05487 17.6666 6.74755 17.3592C6.44023 17.0519 6.26709 16.6354 6.26599 16.2008V12.095ZM7.90599 5.43914C7.47152 5.43804 7.05514 5.26502 6.74784 4.95788C6.44055 4.65073 6.26731 4.23445 6.26599 3.79997C6.26599 2.89747 7.00349 2.15997 7.90599 2.15997C8.80849 2.15997 9.54516 2.89747 9.54516 3.79997V5.43914H7.90599ZM7.90599 6.26581C8.80849 6.26581 9.54516 7.00331 9.54516 7.90581C9.54384 8.34014 9.37072 8.7563 9.0636 9.06342C8.75648 9.37053 8.34032 9.54365 7.90599 9.54497H3.80016C3.36568 9.54387 2.94931 9.37085 2.64201 9.06371C2.33471 8.75657 2.16148 8.34028 2.16016 7.90581C2.16016 7.00331 2.89766 6.26581 3.80016 6.26581H7.90599ZM14.561 7.90581C14.561 7.00331 15.2985 6.26581 16.201 6.26581C17.1035 6.26581 17.841 7.00331 17.841 7.90581C17.8397 8.34028 17.6664 8.75657 17.3591 9.06371C17.0518 9.37085 16.6355 9.54387 16.201 9.54497H14.561V7.90581ZM13.7352 7.90581C13.7338 8.34028 13.5606 8.75657 13.2533 9.06371C12.946 9.37085 12.5296 9.54387 12.0952 9.54497C11.6607 9.54387 11.2443 9.37085 10.937 9.06371C10.6297 8.75657 10.4565 8.34028 10.4552 7.90581V3.79997C10.4552 2.89747 11.1927 2.15997 12.0952 2.15997C12.9977 2.15997 13.7352 2.89747 13.7352 3.79997V7.90581ZM12.0952 14.5608C12.9977 14.5608 13.7352 15.2983 13.7352 16.2008C13.7341 16.6354 13.5609 17.0519 13.2536 17.3592C12.9463 17.6666 12.5298 17.8397 12.0952 17.8408C11.6605 17.8397 11.244 17.6666 10.9367 17.3592C10.6294 17.0519 10.4563 16.6354 10.4552 16.2008V14.5608H12.0952ZM12.0952 13.735C11.6605 13.7339 11.244 13.5607 10.9367 13.2534C10.6294 12.9461 10.4563 12.5296 10.4552 12.095C10.4552 11.1925 11.1927 10.455 12.0952 10.455H16.201C17.1035 10.455 17.841 11.1925 17.841 12.095C17.8399 12.5296 17.6668 12.9461 17.3594 13.2534C17.0521 13.5607 16.6356 13.7339 16.201 13.735H12.0952Z" fill="#D9D9D9"/>
</svg>
