<svg width="33" height="33" viewBox="0 0 33 33" fill="none" xmlns="http://www.w3.org/2000/svg">
<g filter="url(#filter0_d_377_1342)">
<rect x="4" width="25" height="25" rx="12.5" fill="#9747FF"/>
</g>
<path d="M20.2063 9.7395C20.1884 9.76541 20.1661 9.78794 20.1403 9.80607L14.2817 13.9071L15.2749 16.4999C15.2924 16.546 15.3224 16.5863 15.3615 16.6164C15.4005 16.6466 15.4472 16.6653 15.4962 16.6706C15.5453 16.6758 15.5948 16.6675 15.6394 16.6463C15.684 16.6252 15.7218 16.5922 15.7488 16.5508L20.2063 9.7395ZM13.9753 13.4696L11.8786 11.6485C11.8413 11.6163 11.8136 11.5743 11.7987 11.5273C11.7837 11.4803 11.7821 11.4301 11.7939 11.3822C11.8057 11.3343 11.8305 11.2906 11.8656 11.2559C11.9007 11.2213 11.9448 11.197 11.9928 11.1858L19.9199 9.32778C19.889 9.33574 19.8597 9.34917 19.8336 9.36743L13.9753 13.4696Z" fill="#D9D9D9"/>
<defs>
<filter id="filter0_d_377_1342" x="0" y="0" width="33" height="33" filterUnits="userSpaceOnUse" color-interpolation-filters="sRGB">
<feFlood flood-opacity="0" result="BackgroundImageFix"/>
<feColorMatrix in="SourceAlpha" type="matrix" values="0 0 0 0 0 0 0 0 0 0 0 0 0 0 0 0 0 0 127 0" result="hardAlpha"/>
<feOffset dy="4"/>
<feGaussianBlur stdDeviation="2"/>
<feComposite in2="hardAlpha" operator="out"/>
<feColorMatrix type="matrix" values="0 0 0 0 0 0 0 0 0 0 0 0 0 0 0 0 0 0 0.25 0"/>
<feBlend mode="normal" in2="BackgroundImageFix" result="effect1_dropShadow_377_1342"/>
<feBlend mode="normal" in="SourceGraphic" in2="effect1_dropShadow_377_1342" result="shape"/>
</filter>
</defs>
</svg>
