<svg width="16" height="16" viewBox="0 0 16 16" fill="none" xmlns="http://www.w3.org/2000/svg">
<g clip-path="url(#clip0_1238_3258)">
<path d="M1.28445 15.9567C0.974769 15.8947 0.690376 15.7424 0.467104 15.519C0.243832 15.2956 0.091669 15.0111 0.0297867 14.7014C-0.0211999 14.4436 -0.00788863 14.1772 0.068544 13.9257C0.144977 13.6742 0.282177 13.4455 0.468019 13.2596C0.653861 13.0738 0.882621 12.9366 1.13408 12.8602C1.38554 12.7837 1.65196 12.7704 1.90979 12.8214C2.21938 12.8834 2.50371 13.0356 2.72697 13.2589C2.95024 13.4821 3.10245 13.7665 3.16445 14.0761C3.21544 14.3339 3.20213 14.6003 3.1257 14.8518C3.04926 15.1032 2.91206 15.332 2.72622 15.5178C2.54038 15.7037 2.31162 15.8409 2.06016 15.9173C1.8087 15.9937 1.54228 16.0077 1.28445 15.9567ZM14.0898 3.17874C13.7802 3.11674 13.4959 2.96452 13.2726 2.74126C13.0493 2.51799 12.8971 2.23366 12.8351 1.92407C12.7841 1.66624 12.7974 1.39982 12.8739 1.14836C12.9503 0.896903 13.0875 0.668143 13.2734 0.482301C13.4592 0.296459 13.688 0.159259 13.9394 0.0828263C14.1909 0.0063936 14.4573 -0.00691767 14.7151 0.0440689C15.0247 0.106069 15.309 0.258284 15.5323 0.481548C15.7556 0.704811 15.9078 0.989141 15.9698 1.29874C16.0208 1.55656 16.0075 1.82298 15.931 2.07444C15.8546 2.3259 15.7174 2.55466 15.5316 2.7405C15.3457 2.92635 15.117 3.06355 14.8655 3.13998C14.614 3.21641 14.3476 3.22972 14.0898 3.17874ZM8.01379 4.00674C8.77845 4.00674 9.49312 4.22274 10.1005 4.5954L11.8238 2.87207C10.5933 1.95732 9.07497 1.51558 7.54585 1.62749C6.01673 1.73941 4.57885 2.3975 3.4947 3.48165C2.41055 4.56579 1.75246 6.00367 1.64054 7.5328C1.52863 9.06192 1.97037 10.5803 2.88512 11.8107L4.60912 10.0867C4.2382 9.48151 4.03531 8.78835 4.02134 8.07864C4.00737 7.36893 4.18284 6.66832 4.52966 6.04897C4.87648 5.42962 5.38213 4.91391 5.99453 4.55495C6.60693 4.19599 7.30394 4.00676 8.01379 4.00674ZM11.4185 5.9134C11.8871 6.6782 12.0846 7.57849 11.9791 8.46922C11.8737 9.35995 11.4714 10.1892 10.8372 10.8235C10.203 11.4577 9.37367 11.86 8.48294 11.9654C7.59221 12.0709 6.69192 11.8734 5.92712 11.4047L4.20312 13.1281C5.43356 14.0428 6.95193 14.4846 8.48106 14.3726C10.0102 14.2607 11.4481 13.6026 12.5322 12.5185C13.6164 11.4343 14.2745 9.99646 14.3864 8.46734C14.4983 6.93821 14.0565 5.41984 13.1418 4.1894L11.4185 5.9134Z" fill="#9747FF"/>
</g>
<defs>
<clipPath id="clip0_1238_3258">
<rect width="16" height="16" fill="white"/>
</clipPath>
</defs>
</svg>
