<svg width="88" height="88" viewBox="0 0 88 88" fill="none" xmlns="http://www.w3.org/2000/svg">
<path d="M36.6099 69.5606C35.7545 69.5622 34.9255 69.2643 34.2668 68.7185C33.8961 68.4112 33.5897 68.0337 33.365 67.6077C33.1404 67.1818 33.0021 66.7157 32.9578 66.2362C32.9136 65.7567 32.9645 65.2731 33.1074 64.8133C33.2503 64.3534 33.4826 63.9263 33.7909 63.5564L50.1926 43.9329L34.3767 24.2729C34.0725 23.8984 33.8454 23.4675 33.7084 23.0049C33.5714 22.5424 33.5271 22.0573 33.5781 21.5776C33.6291 21.0979 33.7745 20.633 34.0058 20.2097C34.237 19.7863 34.5497 19.4128 34.9258 19.1107C35.3046 18.7774 35.7482 18.526 36.2288 18.3723C36.7093 18.2186 37.2165 18.1658 37.7184 18.2174C38.2203 18.269 38.7061 18.4237 39.1454 18.672C39.5847 18.9202 39.9679 19.2565 40.271 19.6599L57.9541 41.6264C58.4926 42.2815 58.7869 43.1032 58.7869 43.9512C58.7869 44.7992 58.4926 45.6209 57.9541 46.276L39.6486 68.2426C39.2814 68.6856 38.8148 69.0359 38.2868 69.2649C37.7589 69.4938 37.1844 69.5952 36.6099 69.5606Z" fill="#02FFE2"/>
</svg>
