<svg width="16" height="16" viewBox="0 0 16 16" fill="none" xmlns="http://www.w3.org/2000/svg">
<path d="M4 8L8 4L12 8L8 12L4 8Z" fill="#9747FF"/>
<path d="M14.695 7.26368L8.737 1.30468C8.54155 1.10958 8.27667 1 8.0005 1C7.72433 1 7.45945 1.10958 7.264 1.30468L1.3045 7.26368C1.1094 7.45914 0.999817 7.72402 0.999817 8.00018C0.999817 8.27635 1.1094 8.54123 1.3045 8.73668L7.2635 14.6957C7.45895 14.8908 7.72383 15.0004 8 15.0004C8.27617 15.0004 8.54105 14.8908 8.7365 14.6957L14.6955 8.73668C14.8906 8.54123 15.0002 8.27635 15.0002 8.00018C15.0002 7.72402 14.8906 7.45914 14.6955 7.26368M8 14.0182L1.9825 8.00018L8 1.98218L14.018 8.00018L8 14.0182Z" fill="#9747FF"/>
</svg>
