<svg width="11" height="11" viewBox="0 0 11 11" fill="none" xmlns="http://www.w3.org/2000/svg">
<path d="M5.5 0.6875C4.49752 0.688683 3.53643 1.08744 2.82756 1.79631C2.1187 2.50517 1.71994 3.46626 1.71875 4.46875C1.71755 5.28798 1.98515 6.08499 2.4805 6.7375C2.4805 6.7375 2.58363 6.87328 2.60047 6.89288L5.5 10.3125L8.40091 6.89116C8.41603 6.87294 8.5195 6.7375 8.5195 6.7375L8.51985 6.73647C9.01495 6.08424 9.28243 5.28761 9.28125 4.46875C9.28007 3.46626 8.88131 2.50517 8.17244 1.79631C7.46358 1.08744 6.50249 0.688683 5.5 0.6875ZM5.5 5.84375C5.22805 5.84375 4.96221 5.76311 4.73609 5.61202C4.50998 5.46093 4.33374 5.24619 4.22967 4.99494C4.1256 4.74369 4.09837 4.46722 4.15142 4.2005C4.20448 3.93378 4.33543 3.68878 4.52773 3.49648C4.72003 3.30418 4.96503 3.17322 5.23175 3.12017C5.49848 3.06712 5.77495 3.09435 6.02619 3.19842C6.27744 3.30249 6.49219 3.47872 6.64327 3.70484C6.79436 3.93096 6.875 4.1968 6.875 4.46875C6.87455 4.83328 6.72954 5.18276 6.47177 5.44052C6.21401 5.69828 5.86454 5.8433 5.5 5.84375Z" fill="#02FFE2"/>
</svg>
