<svg width="5" height="5" viewBox="0 0 5 5" fill="none" xmlns="http://www.w3.org/2000/svg">
<path d="M4.92674 4.57301C4.94997 4.59624 4.96839 4.62381 4.98096 4.65416C4.99353 4.6845 5 4.71703 5 4.74987C5 4.78272 4.99353 4.81525 4.98096 4.84559C4.96839 4.87594 4.94997 4.90351 4.92674 4.92674C4.90351 4.94997 4.87594 4.96839 4.84559 4.98096C4.81525 4.99353 4.78272 5 4.74987 5C4.71703 5 4.6845 4.99353 4.65416 4.98096C4.62381 4.96839 4.59624 4.94997 4.57301 4.92674L2.5 2.85342L0.42699 4.92674C0.380083 4.97365 0.316462 5 0.250125 5C0.183788 5 0.120167 4.97365 0.0732599 4.92674C0.0263524 4.87983 1.30767e-09 4.81621 0 4.74987C-1.30767e-09 4.68354 0.0263524 4.61992 0.0732599 4.57301L2.14658 2.5L0.0732599 0.42699C0.0263524 0.380083 -4.94251e-10 0.316462 0 0.250125C4.94251e-10 0.183788 0.0263524 0.120167 0.0732599 0.0732599C0.120167 0.0263524 0.183788 4.94252e-10 0.250125 0C0.316462 -4.94251e-10 0.380083 0.0263524 0.42699 0.0732599L2.5 2.14658L4.57301 0.0732599C4.61992 0.0263524 4.68354 -1.30767e-09 4.74987 0C4.81621 1.30767e-09 4.87983 0.0263524 4.92674 0.0732599C4.97365 0.120167 5 0.183788 5 0.250125C5 0.316462 4.97365 0.380083 4.92674 0.42699L2.85342 2.5L4.92674 4.57301Z" fill="#6A78F2"/>
</svg>
