<svg width="11" height="12" viewBox="0 0 11 12" fill="none" xmlns="http://www.w3.org/2000/svg">
<path d="M6.60286 2.6475C6.70833 2.75284 6.8513 2.81201 7.00036 2.81201C7.14942 2.81201 7.29239 2.75284 7.39786 2.6475L7.93786 2.1075V9.75C7.93786 9.89919 7.99712 10.0423 8.10261 10.1477C8.2081 10.2532 8.35117 10.3125 8.50036 10.3125C8.64954 10.3125 8.79262 10.2532 8.89811 10.1477C9.0036 10.0423 9.06286 9.89919 9.06286 9.75V2.1075L9.60286 2.6475C9.65436 2.70277 9.71646 2.74709 9.78545 2.77784C9.85445 2.80858 9.92894 2.82511 10.0045 2.82644C10.08 2.82778 10.155 2.81388 10.2251 2.78559C10.2951 2.7573 10.3587 2.71519 10.4121 2.66178C10.4656 2.60837 10.5077 2.54474 10.536 2.4747C10.5642 2.40466 10.5781 2.32964 10.5768 2.25411C10.5755 2.17858 10.5589 2.1041 10.5282 2.0351C10.4975 1.9661 10.4531 1.904 10.3979 1.8525L8.89786 0.352501C8.79239 0.247163 8.64942 0.187996 8.50036 0.187996C8.3513 0.187996 8.20833 0.247163 8.10286 0.352501L6.60286 1.8525C6.49752 1.95797 6.43835 2.10094 6.43835 2.25C6.43835 2.39906 6.49752 2.54203 6.60286 2.6475ZM3.06286 9.8925L3.60286 9.3525C3.65436 9.29724 3.71646 9.25291 3.78546 9.22217C3.85446 9.19142 3.92894 9.17489 4.00447 9.17356C4.07999 9.17222 4.15502 9.18612 4.22506 9.21441C4.2951 9.2427 4.35872 9.28481 4.41214 9.33822C4.46555 9.39164 4.50766 9.45526 4.53595 9.5253C4.56424 9.59534 4.57814 9.67037 4.5768 9.74589C4.57547 9.82142 4.55894 9.89591 4.5282 9.9649C4.49745 10.0339 4.45312 10.096 4.39786 10.1475L2.89786 11.6475C2.79239 11.7528 2.64942 11.812 2.50036 11.812C2.3513 11.812 2.20833 11.7528 2.10286 11.6475L0.602859 10.1475C0.547594 10.096 0.503267 10.0339 0.472523 9.9649C0.441779 9.89591 0.425248 9.82142 0.423916 9.74589C0.422583 9.67037 0.436476 9.59534 0.464767 9.5253C0.493058 9.45526 0.535166 9.39164 0.58858 9.33822C0.641994 9.28481 0.70562 9.2427 0.775661 9.21441C0.845702 9.18612 0.920724 9.17222 0.996251 9.17356C1.07178 9.17489 1.14626 9.19142 1.21526 9.22217C1.28426 9.25291 1.34636 9.29724 1.39786 9.3525L1.93786 9.8925V2.25C1.93786 2.10082 1.99712 1.95774 2.10261 1.85225C2.2081 1.74676 2.35118 1.6875 2.50036 1.6875C2.64954 1.6875 2.79262 1.74676 2.89811 1.85225C3.0036 1.95774 3.06286 2.10082 3.06286 2.25V9.8925Z" fill="#583DFF"/>
</svg>
