<svg width="20" height="20" viewBox="0 0 20 20" fill="none" xmlns="http://www.w3.org/2000/svg">
<path d="M9.99984 1.66669C8.90549 1.66669 7.82185 1.88224 6.81081 2.30102C5.79976 2.71981 4.8811 3.33364 4.10728 4.10746C2.54448 5.67027 1.6665 7.78988 1.6665 10C1.6665 13.6834 4.05817 16.8084 7.3665 17.9167C7.78317 17.9834 7.9165 17.725 7.9165 17.5V16.0917C5.60817 16.5917 5.1165 14.975 5.1165 14.975C4.73317 14.0084 4.1915 13.75 4.1915 13.75C3.43317 13.2334 4.24984 13.25 4.24984 13.25C5.08317 13.3084 5.52484 14.1084 5.52484 14.1084C6.24984 15.375 7.47484 15 7.94984 14.8C8.02484 14.2584 8.2415 13.8917 8.47484 13.6834C6.62484 13.475 4.68317 12.7584 4.68317 9.58335C4.68317 8.65835 4.99984 7.91669 5.5415 7.32502C5.45817 7.11669 5.1665 6.25002 5.62484 5.12502C5.62484 5.12502 6.32484 4.90002 7.9165 5.97502C8.57484 5.79169 9.2915 5.70002 9.99984 5.70002C10.7082 5.70002 11.4248 5.79169 12.0832 5.97502C13.6748 4.90002 14.3748 5.12502 14.3748 5.12502C14.8332 6.25002 14.5415 7.11669 14.4582 7.32502C14.9998 7.91669 15.3165 8.65835 15.3165 9.58335C15.3165 12.7667 13.3665 13.4667 11.5082 13.675C11.8082 13.9334 12.0832 14.4417 12.0832 15.2167V17.5C12.0832 17.725 12.2165 17.9917 12.6415 17.9167C15.9498 16.8 18.3332 13.6834 18.3332 10C18.3332 8.90567 18.1176 7.82204 17.6988 6.81099C17.28 5.79994 16.6662 4.88129 15.8924 4.10746C15.1186 3.33364 14.1999 2.71981 13.1889 2.30102C12.1778 1.88224 11.0942 1.66669 9.99984 1.66669Z" fill="#D9D9D9"/>
</svg>
