<svg width="17" height="28" viewBox="0 0 17 28" fill="none" xmlns="http://www.w3.org/2000/svg">
<path d="M3.08283 27.4166C2.56684 27.4175 2.0668 27.2615 1.66949 26.9758C1.44588 26.8149 1.26104 26.6172 1.12555 26.3942C0.990067 26.1713 0.9066 25.9272 0.879932 25.6762C0.853265 25.4252 0.883921 25.172 0.970144 24.9313C1.05637 24.6906 1.19646 24.4669 1.38241 24.2733L11.2757 13.9999L1.73574 3.70743C1.55231 3.51138 1.41532 3.28579 1.33266 3.04364C1.25 2.80149 1.22329 2.54755 1.25407 2.29641C1.28485 2.04527 1.37252 1.80189 1.51203 1.58025C1.65153 1.35862 1.84014 1.1631 2.06699 1.00493C2.29548 0.83044 2.56305 0.698827 2.85293 0.618348C3.1428 0.537869 3.44871 0.510262 3.75145 0.537258C4.0542 0.564254 4.34725 0.645271 4.61221 0.775225C4.87717 0.905178 5.10832 1.08126 5.29116 1.29243L15.9574 12.7924C16.2822 13.1354 16.4598 13.5656 16.4598 14.0095C16.4598 14.4535 16.2822 14.8836 15.9574 15.2266L4.91574 26.7266C4.69421 26.9585 4.41279 27.1419 4.09433 27.2618C3.77587 27.3817 3.42933 27.4347 3.08283 27.4166Z" fill="#6A78F2"/>
</svg>
