<svg width="20" height="20" viewBox="0 0 20 20" fill="none" xmlns="http://www.w3.org/2000/svg">
<g filter="url(#filter0_d_1398_2891)">
<path d="M13.0918 17C11.9899 17.1721 10.8629 17.0816 9.80257 16.7359C8.74224 16.3901 7.77855 15.7988 6.98992 15.0102C6.2013 14.2216 5.61004 13.2579 5.26428 12.1976C4.91851 11.1372 4.82801 10.0103 5.00013 8.90834C4.56574 8.0821 4.40701 7.13858 4.54714 6.21569C4.68727 5.29279 5.11891 4.43891 5.77897 3.77885C6.43904 3.11879 7.29292 2.68715 8.21581 2.54702C9.1387 2.40689 10.0822 2.56562 10.9085 3.00001C12.0104 2.82788 13.1374 2.91839 14.1977 3.26416C15.258 3.60992 16.2217 4.20118 17.0103 4.9898C17.799 5.77842 18.3902 6.74212 18.736 7.80244C19.0818 8.86277 19.1723 9.98976 19.0001 11.0917C19.4345 11.9179 19.5933 12.8614 19.4531 13.7843C19.313 14.7072 18.8814 15.5611 18.2213 16.2212C17.5612 16.8812 16.7073 17.3129 15.7845 17.453C14.8616 17.5931 13.918 17.4344 13.0918 17ZM12.0443 14.2967H12.011C14.4043 14.2967 15.5968 13.1417 15.5968 11.5942C15.5968 10.5958 15.1376 9.53501 13.3251 9.12918L11.6726 8.76251C11.0435 8.61918 10.321 8.42918 10.321 7.83334C10.321 7.23751 10.8376 6.82251 11.7576 6.82251C13.616 6.82251 13.4468 8.09584 14.3668 8.09584C14.8468 8.09584 15.2776 7.81084 15.2776 7.32084C15.2776 6.17918 13.4468 5.32084 11.8976 5.32084C10.2135 5.32084 8.42013 6.03668 8.42013 7.94084C8.42013 8.85584 8.74846 9.83251 10.5535 10.285L12.7943 10.8442C13.4743 11.0125 13.6426 11.3933 13.6426 11.7375C13.6426 12.31 13.0726 12.8692 12.0443 12.8692C10.0301 12.8692 10.3126 11.3217 9.23263 11.3217C8.7493 11.3217 8.3968 11.6533 8.3968 12.1308C8.3968 13.0592 9.52346 14.2967 12.0443 14.2967Z" fill="white"/>
</g>
<defs>
<filter id="filter0_d_1398_2891" x="-2" y="0" width="28" height="28" filterUnits="userSpaceOnUse" color-interpolation-filters="sRGB">
<feFlood flood-opacity="0" result="BackgroundImageFix"/>
<feColorMatrix in="SourceAlpha" type="matrix" values="0 0 0 0 0 0 0 0 0 0 0 0 0 0 0 0 0 0 127 0" result="hardAlpha"/>
<feOffset dy="4"/>
<feGaussianBlur stdDeviation="2"/>
<feComposite in2="hardAlpha" operator="out"/>
<feColorMatrix type="matrix" values="0 0 0 0 0 0 0 0 0 0 0 0 0 0 0 0 0 0 0.25 0"/>
<feBlend mode="normal" in2="BackgroundImageFix" result="effect1_dropShadow_1398_2891"/>
<feBlend mode="normal" in="SourceGraphic" in2="effect1_dropShadow_1398_2891" result="shape"/>
</filter>
</defs>
</svg>
