<svg width="20" height="20" viewBox="0 0 20 20" fill="none" xmlns="http://www.w3.org/2000/svg">
<g filter="url(#filter0_d_1398_2905)">
<path d="M12.9998 1.66663C8.39984 1.66663 4.6665 5.39996 4.6665 9.99996C4.6665 14.6 8.39984 18.3333 12.9998 18.3333C17.5998 18.3333 21.3332 14.6 21.3332 9.99996C21.3332 5.39996 17.5998 1.66663 12.9998 1.66663ZM16.8665 7.33329C16.7415 8.64996 16.1998 11.85 15.9248 13.325C15.8082 13.95 15.5748 14.1583 15.3582 14.1833C14.8748 14.225 14.5082 13.8666 14.0415 13.5583C13.3082 13.075 12.8915 12.775 12.1832 12.3083C11.3582 11.7666 11.8915 11.4666 12.3665 10.9833C12.4915 10.8583 14.6248 8.91663 14.6665 8.74163C14.6723 8.71512 14.6715 8.6876 14.6643 8.66146C14.657 8.63532 14.6435 8.61135 14.6248 8.59163C14.5748 8.54996 14.5082 8.56663 14.4498 8.57496C14.3748 8.59163 13.2082 9.36663 10.9332 10.9C10.5998 11.125 10.2998 11.2416 10.0332 11.2333C9.73317 11.225 9.1665 11.0666 8.7415 10.925C8.2165 10.7583 7.80817 10.6666 7.8415 10.375C7.85817 10.225 8.0665 10.075 8.45817 9.91663C10.8915 8.85829 12.5082 8.15829 13.3165 7.82496C15.6332 6.85829 16.1082 6.69163 16.4248 6.69163C16.4915 6.69163 16.6498 6.70829 16.7498 6.79163C16.8332 6.85829 16.8582 6.94996 16.8665 7.01663C16.8582 7.06663 16.8748 7.21663 16.8665 7.33329Z" fill="white"/>
</g>
<defs>
<filter id="filter0_d_1398_2905" x="-1" y="0" width="28" height="28" filterUnits="userSpaceOnUse" color-interpolation-filters="sRGB">
<feFlood flood-opacity="0" result="BackgroundImageFix"/>
<feColorMatrix in="SourceAlpha" type="matrix" values="0 0 0 0 0 0 0 0 0 0 0 0 0 0 0 0 0 0 127 0" result="hardAlpha"/>
<feOffset dy="4"/>
<feGaussianBlur stdDeviation="2"/>
<feComposite in2="hardAlpha" operator="out"/>
<feColorMatrix type="matrix" values="0 0 0 0 0 0 0 0 0 0 0 0 0 0 0 0 0 0 0.25 0"/>
<feBlend mode="normal" in2="BackgroundImageFix" result="effect1_dropShadow_1398_2905"/>
<feBlend mode="normal" in="SourceGraphic" in2="effect1_dropShadow_1398_2905" result="shape"/>
</filter>
</defs>
</svg>
