<svg width="20" height="20" viewBox="0 0 20 20" fill="none" xmlns="http://www.w3.org/2000/svg">
<path d="M9.00083 0.666626C13.6033 0.666626 17.3342 4.39746 17.3342 8.99996C17.3342 13.6025 13.6033 17.3333 9.00083 17.3333C7.52814 17.3357 6.08137 16.9459 4.80916 16.2041L0.670826 17.3333L1.79749 13.1933C1.05507 11.9207 0.665032 10.4733 0.667492 8.99996C0.667492 4.39746 4.39833 0.666626 9.00083 0.666626ZM6.16083 5.08329L5.99416 5.08996C5.88626 5.09653 5.78081 5.12488 5.68416 5.17329C5.59376 5.22448 5.51124 5.28848 5.43916 5.36329C5.33916 5.45746 5.28249 5.53913 5.22166 5.61829C4.91343 6.01904 4.74747 6.51105 4.74999 7.01663C4.75166 7.42496 4.85833 7.82246 5.02499 8.19413C5.36583 8.94579 5.92666 9.74163 6.66666 10.4791C6.84499 10.6566 7.01999 10.835 7.20833 11.0008C8.12782 11.8103 9.22354 12.3942 10.4083 12.7058L10.8817 12.7783C11.0358 12.7866 11.19 12.775 11.345 12.7675C11.5877 12.7549 11.8247 12.6892 12.0392 12.575C12.1483 12.5187 12.2548 12.4576 12.3583 12.3916C12.3583 12.3916 12.3942 12.3683 12.4625 12.3166C12.575 12.2333 12.6442 12.1741 12.7375 12.0766C12.8067 12.005 12.8667 11.9208 12.9125 11.825C12.9775 11.6891 13.0425 11.43 13.0692 11.2141C13.0892 11.0491 13.0833 10.9591 13.0808 10.9033C13.0775 10.8141 13.0033 10.7216 12.9225 10.6825L12.4375 10.465C12.4375 10.465 11.7125 10.1491 11.2692 9.94746C11.2228 9.9272 11.1731 9.91562 11.1225 9.91329C11.0655 9.90744 11.0079 9.91385 10.9535 9.93211C10.8992 9.95036 10.8494 9.98003 10.8075 10.0191C10.8033 10.0175 10.7475 10.065 10.145 10.795C10.1104 10.8414 10.0628 10.8765 10.0082 10.8958C9.95354 10.9151 9.89442 10.9177 9.83832 10.9033C9.78404 10.8887 9.73085 10.8704 9.67916 10.8483C9.57582 10.805 9.53999 10.7883 9.46916 10.7583C8.99088 10.5496 8.54806 10.2676 8.15666 9.92246C8.05166 9.83079 7.95416 9.73079 7.85416 9.63413C7.52631 9.32015 7.24059 8.96496 7.00416 8.57746L6.95499 8.49829C6.91968 8.4451 6.89113 8.38771 6.86999 8.32746C6.83833 8.20496 6.92083 8.10663 6.92083 8.10663C6.92083 8.10663 7.12333 7.88496 7.21749 7.76496C7.30916 7.64829 7.38666 7.53496 7.43666 7.45413C7.53499 7.29579 7.56583 7.13329 7.51416 7.00746C7.28083 6.43746 7.03916 5.86996 6.79083 5.30663C6.74166 5.19496 6.59583 5.11496 6.46333 5.09913C6.41833 5.09413 6.37332 5.08913 6.32832 5.08579C6.21641 5.08023 6.10427 5.08135 5.99249 5.08913L6.16083 5.08329Z" fill="white"/>
</svg>
