<svg width="1435" height="322" viewBox="0 0 1435 322" fill="none" xmlns="http://www.w3.org/2000/svg">
<path opacity="0.953" fill-rule="evenodd" clip-rule="evenodd" d="M155.307 93.5479C178.315 93.5479 201.323 93.5479 224.332 93.5479C224.332 103.841 224.332 114.134 224.332 124.428C204.947 124.125 185.571 124.428 166.205 125.336C143.781 131.989 134.094 147.126 137.142 170.747C137.445 177.105 137.747 183.462 138.05 189.82C140.177 192.35 142.902 193.865 146.224 194.361C172.253 195.269 198.289 195.573 224.332 195.269C224.332 205.563 224.332 215.855 224.332 226.149C192.84 226.452 161.356 226.149 129.876 225.241C114.942 219.908 106.768 209.312 105.354 193.453C103.345 173.822 104.556 154.447 108.987 135.326C118.291 114.496 133.731 100.57 155.307 93.5479Z" fill="#6A78F2"/>
<path opacity="0.958" fill-rule="evenodd" clip-rule="evenodd" d="M269.743 93.547C295.786 93.2444 321.823 93.5472 347.851 94.4553C360.386 99.1205 368.56 107.9 372.373 120.794C373.585 146.83 373.585 172.866 372.373 198.901C368.56 211.795 360.386 220.575 347.851 225.24C321.209 226.452 294.569 226.452 267.927 225.24C252.992 219.907 244.818 209.312 243.405 193.452C242.193 171.049 242.193 148.646 243.405 126.243C245.779 109.903 254.558 99.0044 269.743 93.547ZM282.459 124.427C299.422 124.124 316.377 124.427 333.319 125.335C335.619 125.897 337.739 126.805 339.677 128.06C341.717 138.464 342.625 149.06 342.402 159.848C349.789 189.392 338.589 201.199 308.797 195.269C300.623 194.965 292.449 194.664 284.275 194.36C280.953 193.864 278.228 192.35 276.101 189.819C274.889 169.838 274.889 149.857 276.101 129.876C278.181 127.812 280.301 125.995 282.459 124.427Z" fill="#6A78F2"/>
<path opacity="0.963" fill-rule="evenodd" clip-rule="evenodd" d="M587.623 93.5479C618.503 93.5479 649.383 93.5479 680.262 93.5479C680.262 103.841 680.262 114.134 680.262 124.428C653.615 124.125 626.973 124.428 600.338 125.336C592.776 128.634 591.261 133.78 595.797 140.776C597.735 142.03 599.855 142.938 602.155 143.5C628.183 144.408 654.22 144.711 680.262 144.409C680.262 154.702 680.262 164.995 680.262 175.288C649.377 175.591 618.497 175.288 587.623 174.38C566.946 166.055 558.167 150.615 561.284 128.061C563.137 110.939 571.918 99.4348 587.623 93.5479Z" fill="#6A78F2"/>
<path opacity="0.961" fill-rule="evenodd" clip-rule="evenodd" d="M698.427 93.5471C733.55 93.2444 768.67 93.5471 803.782 94.4553C820.748 102.348 829.83 115.669 831.029 134.417C829.982 143.309 826.954 151.483 821.946 158.939C837.116 187.391 830.457 209.49 801.965 225.24C767.458 226.148 732.946 226.452 698.427 226.148C698.427 211.012 698.427 195.873 698.427 180.737C709.326 180.737 720.225 180.737 731.124 180.737C731.124 185.581 731.124 190.424 731.124 195.269C751.114 195.572 771.095 195.269 791.067 194.36C801.083 187.423 800.478 181.368 789.25 176.196C767.453 175.59 745.655 174.985 723.858 174.379C709.804 168.391 701.63 157.795 699.336 142.591C698.427 126.255 698.126 109.906 698.427 93.5471ZM731.124 124.427C750.509 124.124 769.885 124.427 789.25 125.335C800.4 130.328 801.006 136.383 791.067 143.5C774.114 144.711 757.159 144.711 740.206 143.5C736.884 143.003 734.159 141.489 732.032 138.958C731.129 134.152 730.826 129.308 731.124 124.427Z" fill="#6A78F2"/>
<path opacity="0.917" fill-rule="evenodd" clip-rule="evenodd" d="M847.377 93.5479C858.275 93.5479 869.174 93.5479 880.073 93.5479C880.073 116.556 880.073 139.565 880.073 162.573C861.768 161.532 851.173 151.844 848.285 133.51C847.377 120.203 847.075 106.882 847.377 93.5479Z" fill="#6A78F2"/>
<path opacity="0.943" fill-rule="evenodd" clip-rule="evenodd" d="M898.237 93.5479C909.136 93.5479 920.034 93.5479 930.933 93.5479C930.63 125.644 930.933 157.735 931.841 189.82C933.968 192.35 936.693 193.865 940.015 194.361C962.41 195.269 984.813 195.573 1007.22 195.269C1007.22 205.563 1007.22 215.855 1007.22 226.149C979.365 226.452 951.513 226.149 923.667 225.241C908.732 219.908 900.558 209.312 899.145 193.453C898.237 160.157 897.933 126.855 898.237 93.5479Z" fill="#6A78F2"/>
<path opacity="0.917" fill-rule="evenodd" clip-rule="evenodd" d="M1025.39 93.5479C1036.29 93.5479 1047.19 93.5479 1058.09 93.5479C1058.09 116.556 1058.09 139.565 1058.09 162.573C1039.78 161.532 1029.19 151.844 1026.3 133.51C1025.39 120.203 1025.09 106.882 1025.39 93.5479Z" fill="#6A78F2"/>
<path opacity="0.945" fill-rule="evenodd" clip-rule="evenodd" d="M1076.25 93.547C1103.5 93.2444 1130.75 93.5472 1157.99 94.4553C1173.5 100.291 1182.28 111.493 1184.33 128.06C1185.24 160.75 1185.54 193.447 1185.24 226.148C1174.34 226.148 1163.44 226.148 1152.54 226.148C1152.84 194.052 1152.54 161.961 1151.63 129.876C1149.51 127.345 1146.78 125.832 1143.46 125.335C1121.06 124.427 1098.66 124.124 1076.25 124.427C1076.25 114.133 1076.25 103.84 1076.25 93.547Z" fill="#6A78F2"/>
<path opacity="0.953" fill-rule="evenodd" clip-rule="evenodd" d="M1203.4 93.5479C1214.3 93.5479 1225.2 93.5479 1236.1 93.5479C1235.8 108.697 1236.1 123.834 1237.01 138.959C1239.13 141.49 1241.86 143.004 1245.18 143.5C1264.56 144.106 1283.93 144.711 1303.31 145.317C1322.27 151.71 1331.96 165.031 1332.37 185.279C1331.82 204.586 1322.73 217.906 1305.12 225.241C1271.22 226.149 1237.32 226.452 1203.4 226.149C1203.4 215.855 1203.4 205.563 1203.4 195.269C1232.47 195.573 1261.53 195.269 1290.59 194.361C1299.43 191.544 1301.24 186.398 1296.04 178.921C1293.69 177.834 1291.27 176.926 1288.78 176.197C1268.79 175.591 1248.81 174.986 1228.83 174.38C1214.78 168.392 1206.6 157.796 1204.31 142.592C1203.4 126.255 1203.1 109.907 1203.4 93.5479Z" fill="#6A78F2"/>
<path opacity="0.929" fill-rule="evenodd" clip-rule="evenodd" d="M1299.67 93.5479C1310.57 93.5479 1321.47 93.5479 1332.37 93.5479C1332.37 108.685 1332.37 123.822 1332.37 138.959C1321.47 138.959 1310.57 138.959 1299.67 138.959C1299.67 123.822 1299.67 108.685 1299.67 93.5479Z" fill="#6A78F2"/>
<path opacity="0.927" fill-rule="evenodd" clip-rule="evenodd" d="M847.377 168.022C858.276 168.022 869.174 168.022 880.073 168.022C880.073 187.399 880.073 206.773 880.073 226.149C869.174 226.149 858.276 226.149 847.377 226.149C847.377 206.773 847.377 187.399 847.377 168.022Z" fill="#6A78F2"/>
<path opacity="0.927" fill-rule="evenodd" clip-rule="evenodd" d="M1025.39 168.022C1036.29 168.022 1047.19 168.022 1058.09 168.022C1058.09 187.399 1058.09 206.773 1058.09 226.149C1047.19 226.149 1036.29 226.149 1025.39 226.149C1025.39 206.773 1025.39 187.399 1025.39 168.022Z" fill="#6A78F2"/>
<path opacity="0.961" fill-rule="evenodd" clip-rule="evenodd" d="M560.376 180.737C571.275 180.737 582.174 180.737 593.072 180.737C592.299 188.001 595.327 192.542 602.155 194.361C628.183 195.269 654.22 195.572 680.262 195.269C680.262 205.563 680.262 215.855 680.262 226.149C648.77 226.452 617.286 226.149 585.806 225.24C567.315 216.442 558.839 201.607 560.376 180.737Z" fill="#6A78F2"/>
<path d="M460.768 248.193C470.375 239.175 475.771 226.952 475.771 214.207C475.771 201.463 470.375 189.24 460.768 180.222L424.793 213.947C420.021 218.408 416.234 223.707 413.651 229.542C411.067 235.378 409.737 241.633 409.737 247.951C409.737 254.269 411.067 260.524 413.651 266.359C416.234 272.194 420.021 277.494 424.793 281.955L460.768 248.193Z" fill="url(#paint0_linear_3387_2918)"/>
<path d="M400.016 40C395.255 44.4594 391.479 49.7545 388.903 55.5827C386.326 61.4109 385 67.6579 385 73.9667C385 80.2756 386.326 86.5226 388.903 92.3508C391.479 98.179 395.255 103.474 400.016 107.933L476.015 179.18C480.776 183.639 484.552 188.934 487.129 194.763C489.705 200.591 491.031 206.838 491.031 213.147C491.031 219.455 489.705 225.702 487.129 231.531C484.552 237.359 480.776 242.654 476.015 247.113L548.481 179.18L400.016 40Z" fill="url(#paint1_linear_3387_2918)"/>
<defs>
<linearGradient id="paint0_linear_3387_2918" x1="382.166" y1="250.792" x2="490.373" y2="109.01" gradientUnits="userSpaceOnUse">
<stop stop-color="#02FFE2"/>
<stop offset="1" stop-color="#0088D8"/>
</linearGradient>
<linearGradient id="paint1_linear_3387_2918" x1="463.19" y1="238.328" x2="468.32" y2="54.0881" gradientUnits="userSpaceOnUse">
<stop stop-color="#02FFE2"/>
<stop offset="1" stop-color="#C108FE"/>
</linearGradient>
</defs>
</svg>
