<svg width="1436" height="322" viewBox="0 0 1436 322" fill="none" xmlns="http://www.w3.org/2000/svg">
<path opacity="0.953" fill-rule="evenodd" clip-rule="evenodd" d="M155.415 93.6895C178.44 93.6895 201.464 93.6895 224.489 93.6895C224.489 103.998 224.489 114.307 224.489 124.616C205.09 124.313 185.7 124.616 166.322 125.526C143.882 132.188 134.188 147.348 137.238 171.006C137.541 177.373 137.844 183.74 138.147 190.108C140.276 192.642 143.002 194.159 146.327 194.656C172.374 195.565 198.428 195.869 224.489 195.565C224.489 205.875 224.489 216.182 224.489 226.492C192.975 226.796 161.468 226.492 129.967 225.582C115.022 220.241 106.843 209.629 105.428 193.746C103.418 174.086 104.63 154.681 109.063 135.531C118.374 114.669 133.825 100.722 155.415 93.6895Z" fill="#F3F4F3"/>
<path opacity="0.958" fill-rule="evenodd" clip-rule="evenodd" d="M269.931 93.6888C295.992 93.3857 322.047 93.689 348.093 94.5984C360.637 99.2707 368.817 108.064 372.633 120.977C373.845 147.052 373.845 173.128 372.633 199.203C368.817 212.116 360.637 220.91 348.093 225.581C321.433 226.795 294.774 226.795 268.114 225.581C253.168 220.24 244.989 209.629 243.574 193.745C242.362 171.308 242.362 148.871 243.574 126.435C245.95 110.07 254.735 99.1545 269.931 93.6888ZM282.655 124.615C299.631 124.312 316.598 124.616 333.552 125.525C335.853 126.088 337.974 126.998 339.914 128.254C341.955 138.674 342.864 149.286 342.64 160.09C350.033 189.679 338.825 201.504 309.012 195.565C300.833 195.261 292.653 194.959 284.473 194.655C281.148 194.158 278.422 192.641 276.293 190.107C275.081 170.096 275.081 150.084 276.293 130.073C278.375 128.006 280.496 126.186 282.655 124.615Z" fill="#F3F4F3"/>
<path opacity="0.963" fill-rule="evenodd" clip-rule="evenodd" d="M588.032 93.6895C618.934 93.6895 649.835 93.6895 680.736 93.6895C680.736 103.998 680.736 114.307 680.736 124.616C654.07 124.313 627.41 124.616 600.756 125.526C593.189 128.828 591.673 133.983 596.212 140.989C598.152 142.245 600.273 143.155 602.574 143.718C628.62 144.627 654.676 144.93 680.736 144.627C680.736 154.936 680.736 165.245 680.736 175.554C649.83 175.857 618.928 175.554 588.032 174.644C567.341 166.306 558.556 150.843 561.675 128.254C563.53 111.107 572.316 99.5853 588.032 93.6895Z" fill="#F3F4F3"/>
<path opacity="0.961" fill-rule="evenodd" clip-rule="evenodd" d="M698.914 93.6888C734.061 93.3858 769.205 93.6888 804.342 94.5984C821.319 102.503 830.408 115.844 831.608 134.621C830.561 143.527 827.53 151.713 822.519 159.18C837.699 187.675 831.035 209.807 802.524 225.581C767.993 226.491 733.456 226.795 698.914 226.491C698.914 211.332 698.914 196.17 698.914 181.011C709.82 181.011 720.727 181.011 731.633 181.011C731.633 185.863 731.633 190.713 731.633 195.565C751.637 195.868 771.632 195.565 791.618 194.655C801.641 187.707 801.035 181.643 789.8 176.463C767.987 175.857 746.175 175.25 724.362 174.644C710.298 168.646 702.119 158.034 699.823 142.807C698.914 126.446 698.612 110.073 698.914 93.6888ZM731.633 124.615C751.032 124.312 770.421 124.616 789.8 125.525C800.957 130.526 801.564 136.59 791.618 143.717C774.653 144.93 757.686 144.93 740.721 143.717C737.397 143.22 734.67 141.704 732.542 139.169C731.638 134.355 731.335 129.504 731.633 124.615Z" fill="#F3F4F3"/>
<path opacity="0.917" fill-rule="evenodd" clip-rule="evenodd" d="M847.967 93.6895C858.873 93.6895 869.779 93.6895 880.686 93.6895C880.686 116.733 880.686 139.776 880.686 162.819C862.368 161.777 851.766 152.074 848.875 133.712C847.967 120.385 847.665 107.044 847.967 93.6895Z" fill="#F3F4F3"/>
<path opacity="0.943" fill-rule="evenodd" clip-rule="evenodd" d="M898.863 93.6895C909.769 93.6895 920.676 93.6895 931.582 93.6895C931.278 125.835 931.582 157.974 932.491 190.108C934.619 192.642 937.346 194.159 940.67 194.656C963.081 195.565 985.499 195.869 1007.93 195.565C1007.93 205.875 1007.93 216.182 1007.93 226.492C980.048 226.796 952.177 226.492 924.311 225.582C909.366 220.241 901.186 209.629 899.772 193.746C898.863 160.399 898.559 127.047 898.863 93.6895Z" fill="#F3F4F3"/>
<path opacity="0.917" fill-rule="evenodd" clip-rule="evenodd" d="M1026.1 93.6895C1037.01 93.6895 1047.92 93.6895 1058.82 93.6895C1058.82 116.733 1058.82 139.776 1058.82 162.819C1040.51 161.777 1029.9 152.074 1027.01 133.712C1026.1 120.385 1025.8 107.044 1026.1 93.6895Z" fill="#F3F4F3"/>
<path opacity="0.945" fill-rule="evenodd" clip-rule="evenodd" d="M1077 93.6888C1104.27 93.3857 1131.54 93.689 1158.8 94.5984C1174.32 100.443 1183.11 111.662 1185.15 128.254C1186.06 160.994 1186.37 193.74 1186.06 226.491C1175.16 226.491 1164.25 226.491 1153.34 226.491C1153.65 194.346 1153.34 162.207 1152.44 130.073C1150.31 127.538 1147.58 126.023 1144.26 125.525C1121.85 124.616 1099.43 124.312 1077 124.615C1077 114.306 1077 103.998 1077 93.6888Z" fill="#F3F4F3"/>
<path opacity="0.953" fill-rule="evenodd" clip-rule="evenodd" d="M1204.24 93.6895C1215.15 93.6895 1226.05 93.6895 1236.96 93.6895C1236.66 108.862 1236.96 124.022 1237.87 139.17C1240 141.704 1242.72 143.22 1246.05 143.718C1265.44 144.324 1284.83 144.931 1304.21 145.537C1323.19 151.94 1332.88 165.281 1333.3 185.56C1332.74 204.896 1323.66 218.236 1306.03 225.582C1272.11 226.492 1238.18 226.796 1204.24 226.492C1204.24 216.182 1204.24 205.875 1204.24 195.565C1233.33 195.869 1262.41 195.565 1291.49 194.656C1300.33 191.834 1302.15 186.68 1296.94 179.192C1294.59 178.104 1292.17 177.194 1289.67 176.463C1269.68 175.857 1249.68 175.251 1229.69 174.644C1215.62 168.647 1207.44 158.035 1205.15 142.808C1204.24 126.446 1203.94 110.074 1204.24 93.6895Z" fill="#F3F4F3"/>
<path opacity="0.929" fill-rule="evenodd" clip-rule="evenodd" d="M1300.58 93.6895C1311.49 93.6895 1322.39 93.6895 1333.3 93.6895C1333.3 108.849 1333.3 124.01 1333.3 139.17C1322.39 139.17 1311.49 139.17 1300.58 139.17C1300.58 124.01 1300.58 108.849 1300.58 93.6895Z" fill="#F3F4F3"/>
<path opacity="0.927" fill-rule="evenodd" clip-rule="evenodd" d="M847.967 168.276C858.873 168.276 869.779 168.276 880.686 168.276C880.686 187.682 880.686 207.086 880.686 226.491C869.779 226.491 858.873 226.491 847.967 226.491C847.967 207.086 847.967 187.682 847.967 168.276Z" fill="#F3F4F3"/>
<path opacity="0.927" fill-rule="evenodd" clip-rule="evenodd" d="M1026.1 168.276C1037.01 168.276 1047.92 168.276 1058.82 168.276C1058.82 187.682 1058.82 207.086 1058.82 226.491C1047.92 226.491 1037.01 226.491 1026.1 226.491C1026.1 207.086 1026.1 187.682 1026.1 168.276Z" fill="#F3F4F3"/>
<path opacity="0.961" fill-rule="evenodd" clip-rule="evenodd" d="M560.767 181.012C571.673 181.012 582.58 181.012 593.486 181.012C592.711 188.287 595.742 192.835 602.574 194.656C628.621 195.565 654.676 195.869 680.736 195.565C680.736 205.875 680.736 216.182 680.736 226.492C649.223 226.796 617.716 226.492 586.215 225.582C567.711 216.77 559.229 201.913 560.767 181.012Z" fill="#F3F4F3"/>
<path d="M461.178 248.215C470.792 239.198 476.191 226.974 476.191 214.23C476.191 201.485 470.792 189.262 461.178 180.245L425.178 213.969C420.403 218.43 416.614 223.73 414.028 229.565C411.443 235.4 410.112 241.656 410.112 247.973C410.112 254.291 411.443 260.547 414.028 266.382C416.614 272.217 420.403 277.516 425.178 281.977L461.178 248.215Z" fill="url(#paint0_linear_3387_2882)"/>
<path d="M400.384 40.0225C395.62 44.4819 391.841 49.777 389.263 55.6051C386.684 61.4333 385.357 67.6803 385.357 73.9892C385.357 80.298 386.684 86.5451 389.263 92.3732C391.841 98.2014 395.62 103.497 400.384 107.956L476.436 179.202C481.2 183.662 484.979 188.957 487.557 194.785C490.136 200.613 491.463 206.86 491.463 213.169C491.463 219.478 490.136 225.725 487.557 231.553C484.979 237.381 481.2 242.676 476.436 247.136L548.952 179.202L400.384 40.0225Z" fill="url(#paint1_linear_3387_2882)"/>
<defs>
<linearGradient id="paint0_linear_3387_2882" x1="382.521" y1="250.814" x2="490.709" y2="108.96" gradientUnits="userSpaceOnUse">
<stop stop-color="#02FFE2"/>
<stop offset="1" stop-color="#0088D8"/>
</linearGradient>
<linearGradient id="paint1_linear_3387_2882" x1="463.602" y1="238.351" x2="468.729" y2="54.1104" gradientUnits="userSpaceOnUse">
<stop stop-color="#02FFE2"/>
<stop offset="1" stop-color="#C108FE"/>
</linearGradient>
</defs>
</svg>
