<svg width="1435" height="322" viewBox="0 0 1435 322" fill="none" xmlns="http://www.w3.org/2000/svg">
<path opacity="0.953" fill-rule="evenodd" clip-rule="evenodd" d="M155.307 93.6895C178.315 93.6895 201.323 93.6895 224.332 93.6895C224.332 103.998 224.332 114.307 224.332 124.616C204.947 124.313 185.571 124.616 166.205 125.526C143.781 132.188 134.094 147.348 137.142 171.006C137.445 177.373 137.747 183.74 138.05 190.108C140.177 192.642 142.902 194.159 146.224 194.656C172.253 195.565 198.289 195.869 224.332 195.565C224.332 205.875 224.332 216.182 224.332 226.492C192.84 226.796 161.356 226.492 129.876 225.582C114.942 220.241 106.768 209.629 105.354 193.746C103.345 174.086 104.556 154.681 108.987 135.531C118.291 114.669 133.731 100.722 155.307 93.6895Z" fill="#02FFE1"/>
<path opacity="0.958" fill-rule="evenodd" clip-rule="evenodd" d="M269.743 93.6888C295.786 93.3857 321.823 93.689 347.851 94.5984C360.386 99.2707 368.56 108.064 372.373 120.977C373.585 147.052 373.585 173.128 372.373 199.203C368.56 212.116 360.386 220.91 347.851 225.581C321.209 226.795 294.569 226.795 267.927 225.581C252.992 220.24 244.818 209.629 243.405 193.745C242.193 171.308 242.193 148.871 243.405 126.435C245.779 110.07 254.558 99.1545 269.743 93.6888ZM282.459 124.615C299.422 124.312 316.377 124.616 333.319 125.525C335.619 126.088 337.739 126.998 339.677 128.254C341.717 138.674 342.625 149.286 342.402 160.09C349.789 189.679 338.589 201.504 308.797 195.565C300.623 195.261 292.449 194.959 284.275 194.655C280.953 194.158 278.228 192.641 276.101 190.107C274.889 170.096 274.889 150.084 276.101 130.073C278.181 128.006 280.301 126.186 282.459 124.615Z" fill="#02FFE1"/>
<path opacity="0.963" fill-rule="evenodd" clip-rule="evenodd" d="M587.623 93.6895C618.503 93.6895 649.383 93.6895 680.262 93.6895C680.262 103.998 680.262 114.307 680.262 124.616C653.615 124.313 626.973 124.616 600.338 125.526C592.776 128.828 591.261 133.983 595.797 140.989C597.735 142.245 599.855 143.155 602.155 143.718C628.183 144.627 654.22 144.93 680.262 144.627C680.262 154.936 680.262 165.245 680.262 175.554C649.377 175.857 618.497 175.554 587.623 174.644C566.946 166.306 558.167 150.843 561.284 128.254C563.137 111.107 571.918 99.5853 587.623 93.6895Z" fill="#02FFE1"/>
<path opacity="0.961" fill-rule="evenodd" clip-rule="evenodd" d="M698.427 93.6888C733.55 93.3858 768.67 93.6888 803.782 94.5984C820.748 102.503 829.83 115.844 831.029 134.621C829.982 143.527 826.954 151.713 821.946 159.18C837.116 187.675 830.457 209.807 801.965 225.582C767.458 226.491 732.946 226.795 698.427 226.491C698.427 211.332 698.427 196.17 698.427 181.011C709.326 181.011 720.225 181.011 731.124 181.011C731.124 185.863 731.124 190.713 731.124 195.565C751.114 195.868 771.095 195.565 791.067 194.655C801.083 187.707 800.478 181.643 789.25 176.463C767.453 175.857 745.655 175.25 723.858 174.644C709.804 168.646 701.63 158.034 699.336 142.807C698.427 126.446 698.126 110.073 698.427 93.6888ZM731.124 124.615C750.509 124.313 769.885 124.616 789.25 125.525C800.4 130.526 801.006 136.59 791.067 143.717C774.114 144.93 757.159 144.93 740.206 143.717C736.884 143.22 734.159 141.704 732.032 139.169C731.129 134.355 730.826 129.504 731.124 124.615Z" fill="#02FFE1"/>
<path opacity="0.917" fill-rule="evenodd" clip-rule="evenodd" d="M847.377 93.6895C858.275 93.6895 869.174 93.6895 880.073 93.6895C880.073 116.733 880.073 139.776 880.073 162.819C861.768 161.777 851.173 152.074 848.285 133.712C847.377 120.385 847.075 107.044 847.377 93.6895Z" fill="#02FFE1"/>
<path opacity="0.943" fill-rule="evenodd" clip-rule="evenodd" d="M898.237 93.6895C909.136 93.6895 920.034 93.6895 930.933 93.6895C930.63 125.835 930.933 157.974 931.841 190.108C933.968 192.642 936.693 194.159 940.015 194.656C962.41 195.565 984.813 195.869 1007.22 195.565C1007.22 205.875 1007.22 216.182 1007.22 226.492C979.365 226.796 951.513 226.492 923.667 225.582C908.732 220.241 900.558 209.629 899.145 193.746C898.237 160.399 897.933 127.047 898.237 93.6895Z" fill="#02FFE1"/>
<path opacity="0.917" fill-rule="evenodd" clip-rule="evenodd" d="M1025.39 93.6895C1036.29 93.6895 1047.19 93.6895 1058.09 93.6895C1058.09 116.733 1058.09 139.776 1058.09 162.819C1039.78 161.777 1029.19 152.074 1026.3 133.712C1025.39 120.385 1025.09 107.044 1025.39 93.6895Z" fill="#02FFE1"/>
<path opacity="0.945" fill-rule="evenodd" clip-rule="evenodd" d="M1076.25 93.6888C1103.5 93.3857 1130.75 93.689 1157.99 94.5984C1173.5 100.443 1182.28 111.662 1184.33 128.254C1185.24 160.994 1185.54 193.74 1185.24 226.491C1174.34 226.491 1163.44 226.491 1152.54 226.491C1152.84 194.346 1152.54 162.207 1151.63 130.073C1149.51 127.538 1146.78 126.023 1143.46 125.525C1121.06 124.616 1098.66 124.312 1076.25 124.615C1076.25 114.306 1076.25 103.998 1076.25 93.6888Z" fill="#02FFE1"/>
<path opacity="0.953" fill-rule="evenodd" clip-rule="evenodd" d="M1203.4 93.6895C1214.3 93.6895 1225.2 93.6895 1236.1 93.6895C1235.8 108.862 1236.1 124.022 1237.01 139.17C1239.13 141.704 1241.86 143.22 1245.18 143.718C1264.56 144.324 1283.93 144.931 1303.31 145.537C1322.27 151.94 1331.96 165.281 1332.37 185.56C1331.82 204.896 1322.73 218.236 1305.12 225.582C1271.22 226.492 1237.32 226.796 1203.4 226.492C1203.4 216.182 1203.4 205.875 1203.4 195.565C1232.47 195.869 1261.53 195.565 1290.59 194.656C1299.43 191.834 1301.24 186.68 1296.04 179.192C1293.69 178.104 1291.27 177.194 1288.78 176.463C1268.79 175.857 1248.81 175.251 1228.83 174.644C1214.78 168.647 1206.6 158.035 1204.31 142.808C1203.4 126.446 1203.1 110.074 1203.4 93.6895Z" fill="#02FFE1"/>
<path opacity="0.929" fill-rule="evenodd" clip-rule="evenodd" d="M1299.67 93.6895C1310.57 93.6895 1321.47 93.6895 1332.37 93.6895C1332.37 108.849 1332.37 124.01 1332.37 139.17C1321.47 139.17 1310.57 139.17 1299.67 139.17C1299.67 124.01 1299.67 108.849 1299.67 93.6895Z" fill="#02FFE1"/>
<path opacity="0.927" fill-rule="evenodd" clip-rule="evenodd" d="M847.377 168.276C858.276 168.276 869.174 168.276 880.073 168.276C880.073 187.682 880.073 207.086 880.073 226.491C869.174 226.491 858.276 226.491 847.377 226.491C847.377 207.086 847.377 187.682 847.377 168.276Z" fill="#02FFE1"/>
<path opacity="0.927" fill-rule="evenodd" clip-rule="evenodd" d="M1025.39 168.276C1036.29 168.276 1047.19 168.276 1058.09 168.276C1058.09 187.682 1058.09 207.086 1058.09 226.491C1047.19 226.491 1036.29 226.491 1025.39 226.491C1025.39 207.086 1025.39 187.682 1025.39 168.276Z" fill="#02FFE1"/>
<path opacity="0.961" fill-rule="evenodd" clip-rule="evenodd" d="M560.376 181.012C571.275 181.012 582.174 181.012 593.072 181.012C592.299 188.287 595.327 192.835 602.155 194.656C628.183 195.565 654.22 195.869 680.262 195.565C680.262 205.875 680.262 216.182 680.262 226.492C648.77 226.796 617.286 226.492 585.806 225.582C567.315 216.77 558.839 201.913 560.376 181.012Z" fill="#02FFE1"/>
<path d="M460.857 248.215C470.464 239.198 475.86 226.974 475.86 214.23C475.86 201.485 470.464 189.262 460.857 180.245L424.882 213.969C420.11 218.43 416.323 223.73 413.74 229.565C411.156 235.4 409.826 241.656 409.826 247.973C409.826 254.291 411.156 260.547 413.74 266.382C416.323 272.217 420.11 277.516 424.882 281.977L460.857 248.215Z" fill="url(#paint0_linear_3387_2828)"/>
<path d="M400.105 40.0225C395.344 44.4819 391.568 49.777 388.992 55.6051C386.415 61.4333 385.089 67.6803 385.089 73.9892C385.089 80.298 386.415 86.5451 388.992 92.3732C391.568 98.2014 395.344 103.497 400.105 107.956L476.104 179.202C480.865 183.662 484.641 188.957 487.218 194.785C489.794 200.613 491.12 206.86 491.12 213.169C491.12 219.478 489.794 225.725 487.218 231.553C484.641 237.381 480.865 242.676 476.104 247.136L548.57 179.202L400.105 40.0225Z" fill="url(#paint1_linear_3387_2828)"/>
<defs>
<linearGradient id="paint0_linear_3387_2828" x1="382.254" y1="250.814" x2="490.462" y2="109.033" gradientUnits="userSpaceOnUse">
<stop stop-color="#02FFE2"/>
<stop offset="1" stop-color="#0088D8"/>
</linearGradient>
<linearGradient id="paint1_linear_3387_2828" x1="463.279" y1="238.351" x2="468.409" y2="54.1106" gradientUnits="userSpaceOnUse">
<stop stop-color="#02FFE2"/>
<stop offset="1" stop-color="#C108FE"/>
</linearGradient>
</defs>
</svg>
