<svg width="15" height="15" viewBox="0 0 15 15" fill="none" xmlns="http://www.w3.org/2000/svg">
<path d="M0.833333 8.33333H5.83333C6.05435 8.33333 6.26631 8.24554 6.42259 8.08926C6.57887 7.93298 6.66667 7.72101 6.66667 7.5V0.833333C6.66667 0.61232 6.57887 0.400358 6.42259 0.244078C6.26631 0.0877973 6.05435 0 5.83333 0H0.833333C0.61232 0 0.400358 0.0877973 0.244078 0.244078C0.0877973 0.400358 0 0.61232 0 0.833333V7.5C0 7.72101 0.0877973 7.93298 0.244078 8.08926C0.400358 8.24554 0.61232 8.33333 0.833333 8.33333ZM0 14.1667C0 14.3877 0.0877973 14.5996 0.244078 14.7559C0.400358 14.9122 0.61232 15 0.833333 15H5.83333C6.05435 15 6.26631 14.9122 6.42259 14.7559C6.57887 14.5996 6.66667 14.3877 6.66667 14.1667V10.8333C6.66667 10.6123 6.57887 10.4004 6.42259 10.2441C6.26631 10.0878 6.05435 10 5.83333 10H0.833333C0.61232 10 0.400358 10.0878 0.244078 10.2441C0.0877973 10.4004 0 10.6123 0 10.8333V14.1667ZM8.33333 14.1667C8.33333 14.3877 8.42113 14.5996 8.57741 14.7559C8.73369 14.9122 8.94565 15 9.16667 15H14.1667C14.3877 15 14.5996 14.9122 14.7559 14.7559C14.9122 14.5996 15 14.3877 15 14.1667V8.33333C15 8.11232 14.9122 7.90036 14.7559 7.74408C14.5996 7.5878 14.3877 7.5 14.1667 7.5H9.16667C8.94565 7.5 8.73369 7.5878 8.57741 7.74408C8.42113 7.90036 8.33333 8.11232 8.33333 8.33333V14.1667ZM9.16667 5.83333H14.1667C14.3877 5.83333 14.5996 5.74554 14.7559 5.58926C14.9122 5.43297 15 5.22101 15 5V0.833333C15 0.61232 14.9122 0.400358 14.7559 0.244078C14.5996 0.0877973 14.3877 0 14.1667 0H9.16667C8.94565 0 8.73369 0.0877973 8.57741 0.244078C8.42113 0.400358 8.33333 0.61232 8.33333 0.833333V5C8.33333 5.22101 8.42113 5.43297 8.57741 5.58926C8.73369 5.74554 8.94565 5.83333 9.16667 5.83333Z" fill="#F4F4F4"/>
</svg>
