<svg width="15" height="15" viewBox="0 0 15 15" fill="none" xmlns="http://www.w3.org/2000/svg">
<path d="M9.41406 7.8125C9.41406 8.78164 8.62539 9.57031 7.65625 9.57031C6.68711 9.57031 5.89844 8.78164 5.89844 7.8125C5.89844 6.84336 6.68711 6.05469 7.65625 6.05469C8.62539 6.05469 9.41406 6.84336 9.41406 7.8125ZM14.6875 7.54941C14.6875 7.54941 12.1961 12.5 7.66504 12.5C3.45801 12.5 0.625 7.54941 0.625 7.54941C0.625 7.54941 3.23008 3.125 7.66504 3.125C12.1732 3.125 14.6875 7.54941 14.6875 7.54941ZM10.5859 7.8125C10.5859 6.19707 9.27168 4.88281 7.65625 4.88281C6.04082 4.88281 4.72656 6.19707 4.72656 7.8125C4.72656 9.42793 6.04082 10.7422 7.65625 10.7422C9.27168 10.7422 10.5859 9.42793 10.5859 7.8125Z" fill="#EAEAEA"/>
</svg>
