<svg width="16" height="15" viewBox="0 0 16 15" fill="none" xmlns="http://www.w3.org/2000/svg">
<path d="M7.45567 0C3.64276 0 3.88084 1.65999 3.88084 1.65999L3.88507 3.37978H7.52366V3.89611H2.43988C2.43988 3.89611 0 3.61832 0 7.4806C0 11.343 2.12959 11.206 2.12959 11.206H3.40052V9.41372C3.40052 9.41372 3.332 7.27578 5.49611 7.27578H9.10494C9.10494 7.27578 11.1325 7.30867 11.1325 5.30853V2.00143C11.1325 2.00143 11.4404 0 7.45567 0ZM5.44935 1.15653C5.53534 1.15645 5.62049 1.1734 5.69994 1.20639C5.77939 1.23939 5.85159 1.28779 5.91238 1.34883C5.97318 1.40987 6.0214 1.48234 6.05426 1.5621C6.08713 1.64187 6.10401 1.72736 6.10393 1.81368C6.10401 1.89999 6.08713 1.98548 6.05426 2.06525C6.0214 2.14501 5.97318 2.21748 5.91238 2.27852C5.85159 2.33956 5.77939 2.38796 5.69994 2.42096C5.62049 2.45395 5.53534 2.4709 5.44935 2.47082C5.36337 2.4709 5.27822 2.45395 5.19877 2.42096C5.11931 2.38796 5.04712 2.33956 4.98632 2.27852C4.92553 2.21748 4.87731 2.14501 4.84444 2.06525C4.81158 1.98548 4.7947 1.89999 4.79478 1.81368C4.7947 1.72736 4.81158 1.64187 4.84444 1.5621C4.87731 1.48234 4.92553 1.40987 4.98632 1.34883C5.04712 1.28779 5.11931 1.23939 5.19877 1.20639C5.27822 1.1734 5.36337 1.15645 5.44935 1.15653Z" fill="url(#paint0_linear_3355_2793)"/>
<path d="M7.56386 15.0001C11.3768 15.0001 11.1387 13.3401 11.1387 13.3401L11.1345 11.6204H7.49581V11.104H12.5796C12.5796 11.104 15.0195 11.3818 15.0195 7.51942C15.0195 3.65708 12.8899 3.79406 12.8899 3.79406H11.619V5.5863C11.619 5.5863 11.6875 7.72424 9.52336 7.72424H5.91453C5.91453 7.72424 3.88699 7.69135 3.88699 9.69154V12.9987C3.88699 12.9987 3.5791 15.0001 7.5638 15.0001M9.57012 13.8437C9.48414 13.8437 9.39898 13.8268 9.31953 13.7938C9.24008 13.7608 9.16789 13.7124 9.10709 13.6514C9.04629 13.5903 8.99808 13.5179 8.96521 13.4381C8.93234 13.3583 8.91546 13.2728 8.91554 13.1865C8.91545 13.1002 8.93233 13.0147 8.96519 12.9349C8.99806 12.8552 9.04627 12.7827 9.10707 12.7216C9.16787 12.6606 9.24006 12.6122 9.31952 12.5792C9.39897 12.5462 9.48413 12.5292 9.57012 12.5293C9.6561 12.5292 9.74125 12.5462 9.82071 12.5792C9.90016 12.6122 9.97235 12.6606 10.0331 12.7216C10.0939 12.7827 10.1422 12.8551 10.175 12.9349C10.2079 13.0147 10.2248 13.1001 10.2247 13.1865C10.2248 13.2728 10.2079 13.3583 10.175 13.438C10.1422 13.5178 10.0939 13.5903 10.0331 13.6513C9.97235 13.7123 9.90016 13.7607 9.82071 13.7937C9.74125 13.8267 9.6561 13.8437 9.57012 13.8437Z" fill="url(#paint1_linear_3355_2793)"/>
<defs>
<linearGradient id="paint0_linear_3355_2793" x1="144.337" y1="134.916" x2="891.545" y2="871.78" gradientUnits="userSpaceOnUse">
<stop stop-color="#387EB8"/>
<stop offset="1" stop-color="#366994"/>
</linearGradient>
<linearGradient id="paint1_linear_3355_2793" x1="216.929" y1="234.414" x2="1019.2" y2="989.863" gradientUnits="userSpaceOnUse">
<stop stop-color="#FFE052"/>
<stop offset="1" stop-color="#FFC331"/>
</linearGradient>
</defs>
</svg>
