<svg width="15" height="16" viewBox="0 0 15 16" fill="none" xmlns="http://www.w3.org/2000/svg">
<path d="M11.4844 0.121094H3.51562C1.574 0.121094 0 1.69509 0 3.63672V11.6055C0 13.5471 1.574 15.1211 3.51562 15.1211H11.4844C13.426 15.1211 15 13.5471 15 11.6055V3.63672C15 1.69509 13.426 0.121094 11.4844 0.121094Z" fill="#242938"/>
<path d="M4.96554 6.68131C4.96554 6.82393 4.98095 6.93953 5.0079 7.02438C5.04217 7.1198 5.08341 7.21257 5.1313 7.30193C5.15058 7.33275 5.15825 7.36357 5.15825 7.39059C5.15825 7.42914 5.13511 7.4677 5.08501 7.50619L4.84214 7.66814C4.80745 7.69123 4.77276 7.70283 4.74194 7.70283C4.70339 7.70283 4.66483 7.68355 4.62628 7.64887C4.57435 7.59304 4.52789 7.53238 4.48753 7.4677C4.44445 7.39362 4.40457 7.31773 4.368 7.24023C4.06735 7.5949 3.68954 7.77221 3.23468 7.77221C2.91089 7.77221 2.65261 7.67969 2.4637 7.49465C2.27485 7.30961 2.17847 7.06293 2.17847 6.75455C2.17847 6.42684 2.29413 6.16088 2.52927 5.96043C2.7644 5.75998 3.07665 5.65973 3.47368 5.65973C3.60476 5.65973 3.7397 5.67133 3.88231 5.69061C4.02493 5.70988 4.17142 5.7407 4.32563 5.77539V5.49396C4.32563 5.201 4.26394 4.99668 4.14446 4.87721C4.02106 4.75768 3.81294 4.6999 3.5161 4.6999C3.38116 4.6999 3.24241 4.71531 3.09979 4.75C2.95712 4.78469 2.81837 4.82711 2.68343 4.88107C2.6396 4.90068 2.59455 4.91742 2.54854 4.93117C2.52159 4.93891 2.50226 4.94277 2.48685 4.94277C2.43294 4.94277 2.40587 4.90422 2.40587 4.82324V4.63434C2.40587 4.5727 2.4136 4.52641 2.43288 4.49945C2.45216 4.4725 2.48685 4.44549 2.54081 4.41848C2.67575 4.3491 2.83765 4.29133 3.02655 4.24504C3.2154 4.19488 3.41585 4.1718 3.6279 4.1718C4.08663 4.1718 4.42196 4.27586 4.63788 4.48398C4.84987 4.69217 4.9578 5.00828 4.9578 5.43232V6.68131H4.96554ZM3.4005 7.26725C3.52765 7.26725 3.65872 7.2441 3.79753 7.19781C3.93628 7.15158 4.05962 7.06674 4.16374 6.95113C4.22538 6.87789 4.27167 6.79691 4.29476 6.70439C4.3179 6.61188 4.33331 6.50008 4.33331 6.36906V6.20711C4.21642 6.17868 4.09803 6.15681 3.9787 6.1416C3.8585 6.12634 3.73746 6.11861 3.6163 6.11846C3.35802 6.11846 3.16917 6.16861 3.04196 6.27268C2.91476 6.37674 2.85306 6.52322 2.85306 6.716C2.85306 6.89717 2.89935 7.03205 2.99567 7.12457C3.08825 7.22096 3.22319 7.26725 3.4005 7.26725ZM6.49583 7.68355C6.42646 7.68355 6.38017 7.67195 6.34935 7.645C6.31853 7.62186 6.29151 7.56789 6.26843 7.49465L5.36257 4.51486C5.33937 4.43775 5.32782 4.38766 5.32782 4.36064C5.32782 4.299 5.35864 4.26426 5.42034 4.26426H5.7981C5.87134 4.26426 5.92149 4.27586 5.94845 4.30281C5.97927 4.32596 6.00241 4.37992 6.02556 4.45316L6.67313 7.0051L7.27454 4.45316C7.29382 4.37605 7.3169 4.32602 7.34778 4.30281C7.3786 4.27973 7.43257 4.26432 7.50194 4.26432H7.81032C7.88356 4.26432 7.93372 4.27586 7.96454 4.30281C7.99536 4.32596 8.02237 4.37992 8.03778 4.45316L8.64686 7.03592L9.31372 4.45316C9.33686 4.37605 9.36388 4.32602 9.39083 4.30281C9.42165 4.27973 9.47181 4.26432 9.54118 4.26432H9.89966C9.96136 4.26432 9.99604 4.29514 9.99604 4.36064C9.99604 4.37998 9.99218 4.3992 9.98831 4.42234C9.9845 4.44549 9.97677 4.47625 9.96136 4.51873L9.03235 7.49852C9.00921 7.57562 8.9822 7.62572 8.95138 7.64887C8.92056 7.67195 8.8704 7.68742 8.80489 7.68742H8.47337C8.40013 7.68742 8.35003 7.67582 8.31921 7.64887C8.28833 7.62186 8.26138 7.57176 8.24597 7.49465L7.64843 5.00828L7.05481 7.49078C7.03554 7.56789 7.01239 7.61799 6.98157 7.645C6.95069 7.67195 6.89673 7.68355 6.82735 7.68355H6.49583ZM11.4493 7.78762C11.2489 7.78762 11.0484 7.76447 10.8557 7.71824C10.663 7.67195 10.5126 7.62186 10.4124 7.56402C10.3507 7.52934 10.3083 7.49078 10.2929 7.45609C10.2779 7.42208 10.27 7.38534 10.2697 7.34816V7.15158C10.2697 7.07061 10.3006 7.03205 10.3584 7.03205C10.3815 7.03205 10.4047 7.03592 10.4278 7.04365C10.4509 7.05133 10.4856 7.06674 10.5241 7.08221C10.6603 7.14207 10.8025 7.18728 10.9482 7.21709C11.0992 7.24777 11.2529 7.26327 11.4069 7.26338C11.6498 7.26338 11.8386 7.22096 11.9697 7.13617C12.1008 7.05133 12.1702 6.92799 12.1702 6.76996C12.1702 6.66203 12.1355 6.57332 12.0661 6.50008C11.9967 6.42684 11.8657 6.36133 11.6767 6.29963L11.1178 6.12619C10.8364 6.03754 10.6282 5.90646 10.501 5.73303C10.3738 5.5634 10.3083 5.37443 10.3083 5.17404C10.3083 5.01215 10.343 4.86953 10.4124 4.74613C10.4817 4.62279 10.5742 4.51486 10.6899 4.43008C10.8056 4.34137 10.9367 4.27586 11.0908 4.22957C11.245 4.18328 11.4069 4.16406 11.5766 4.16406C11.6613 4.16406 11.75 4.16793 11.8348 4.17947C11.9235 4.19102 12.0044 4.20643 12.0854 4.22189C12.1625 4.24117 12.2357 4.26045 12.3051 4.28359C12.3745 4.30668 12.4284 4.32982 12.467 4.35297C12.521 4.38379 12.5595 4.41461 12.5827 4.4493C12.6058 4.48018 12.6174 4.52254 12.6174 4.57656V4.75773C12.6174 4.83865 12.5865 4.88107 12.5287 4.88107C12.4978 4.88107 12.4477 4.86566 12.3822 4.83479C12.1625 4.73459 11.9158 4.68449 11.6421 4.68449C11.4223 4.68449 11.2489 4.71918 11.1294 4.79242C11.0099 4.86566 10.9482 4.97746 10.9482 5.13549C10.9482 5.24342 10.9867 5.33594 11.0639 5.40918C11.1409 5.48242 11.2836 5.55566 11.4879 5.62117L12.0353 5.79461C12.3128 5.88332 12.5133 6.00666 12.6328 6.16475C12.7522 6.32277 12.8101 6.50395 12.8101 6.70439C12.8101 6.87016 12.7754 7.02051 12.7099 7.15158C12.6405 7.28266 12.548 7.39826 12.4284 7.49078C12.309 7.58717 12.1663 7.65654 12.0006 7.7067C11.8271 7.76066 11.6459 7.78762 11.4493 7.78762Z" fill="white"/>
<path fill-rule="evenodd" clip-rule="evenodd" d="M12.178 9.661C10.9097 10.5977 9.06712 11.095 7.48274 11.095C5.26239 11.095 3.26165 10.2739 1.75058 8.9093C1.63104 8.80137 1.73903 8.65489 1.88165 8.73967C3.51612 9.68795 5.53222 10.2623 7.61768 10.2623C9.0247 10.2623 10.5705 9.96938 11.9929 9.36803C12.2049 9.27165 12.3861 9.50678 12.178 9.661Z" fill="#FF9900"/>
<path fill-rule="evenodd" clip-rule="evenodd" d="M12.706 9.05954C12.5441 8.85136 11.6344 8.95929 11.2219 9.00939C11.0986 9.02486 11.0793 8.91687 11.1911 8.83595C11.9158 8.32712 13.1069 8.47361 13.2457 8.64318C13.3845 8.81667 13.2072 10.0078 12.5287 10.5784C12.4246 10.667 12.3244 10.6207 12.3706 10.5051C12.5248 10.1235 12.8679 9.2638 12.706 9.05954Z" fill="#FF9900"/>
</svg>
