<svg width="15" height="15" viewBox="0 0 15 15" fill="none" xmlns="http://www.w3.org/2000/svg">
<path d="M13.8462 1H1.15385C0.847827 1 0.554342 1.12157 0.337954 1.33795C0.121566 1.55434 0 1.84783 0 2.15385V12.5385C0 12.8445 0.121566 13.138 0.337954 13.3544C0.554342 13.5707 0.847827 13.6923 1.15385 13.6923H13.8462C14.1522 13.6923 14.4457 13.5707 14.662 13.3544C14.8784 13.138 15 12.8445 15 12.5385V2.15385C15 1.84783 14.8784 1.55434 14.662 1.33795C14.4457 1.12157 14.1522 1 13.8462 1ZM4.96154 8.61539C5.08395 8.70719 5.16487 8.84386 5.18651 8.99533C5.20815 9.14681 5.16873 9.30067 5.07692 9.42308C4.98512 9.54549 4.84845 9.62641 4.69697 9.64805C4.5455 9.66969 4.39164 9.63027 4.26923 9.53846L1.96154 7.80769C1.88989 7.75395 1.83173 7.68427 1.79168 7.60416C1.75162 7.52405 1.73077 7.43572 1.73077 7.34615C1.73077 7.25659 1.75162 7.16826 1.79168 7.08815C1.83173 7.00804 1.88989 6.93835 1.96154 6.88462L4.26923 5.15385C4.39164 5.06204 4.5455 5.02262 4.69697 5.04426C4.84845 5.0659 4.98512 5.14682 5.07692 5.26923C5.16873 5.39164 5.20815 5.5455 5.18651 5.69697C5.16487 5.84845 5.08395 5.98512 4.96154 6.07692L3.26899 7.34615L4.96154 8.61539ZM9.20841 3.46635L6.90072 11.5433C6.88105 11.6174 6.8468 11.6869 6.79996 11.7476C6.75313 11.8084 6.69465 11.8592 6.62795 11.897C6.56125 11.9349 6.48767 11.9591 6.41151 11.9682C6.33536 11.9773 6.25815 11.9711 6.1844 11.95C6.11066 11.9289 6.04187 11.8933 5.98204 11.8453C5.92222 11.7973 5.87256 11.7379 5.83599 11.6705C5.79941 11.603 5.77664 11.529 5.76902 11.4527C5.7614 11.3764 5.76907 11.2993 5.79159 11.226L8.09928 3.14904C8.14363 3.00462 8.24287 2.88336 8.37566 2.81131C8.50846 2.73927 8.66421 2.72219 8.80946 2.76374C8.95471 2.80529 9.07787 2.90217 9.15247 3.03354C9.22707 3.16492 9.24715 3.32032 9.20841 3.46635ZM13.0385 7.80769L10.7308 9.53846C10.6084 9.63027 10.4545 9.66969 10.303 9.64805C10.1516 9.62641 10.0149 9.54549 9.92308 9.42308C9.83127 9.30067 9.79185 9.14681 9.81349 8.99533C9.83513 8.84386 9.91605 8.70719 10.0385 8.61539L11.731 7.34615L10.0385 6.07692C9.97785 6.03147 9.92679 5.97452 9.88819 5.90932C9.84959 5.84413 9.8242 5.77198 9.81349 5.69697C9.80278 5.62197 9.80694 5.5456 9.82574 5.4722C9.84454 5.39881 9.87762 5.32984 9.92308 5.26923C9.96853 5.20862 10.0255 5.15756 10.0907 5.11896C10.1559 5.08036 10.228 5.05497 10.303 5.04426C10.378 5.03355 10.4544 5.03771 10.5278 5.05651C10.6012 5.07531 10.6702 5.10839 10.7308 5.15385L13.0385 6.88462C13.1101 6.93835 13.1683 7.00804 13.2083 7.08815C13.2484 7.16826 13.2692 7.25659 13.2692 7.34615C13.2692 7.43572 13.2484 7.52405 13.2083 7.60416C13.1683 7.68427 13.1101 7.75395 13.0385 7.80769Z" fill="#EAEAEA"/>
</svg>
