<svg width="17" height="15" viewBox="0 0 17 15" fill="none" xmlns="http://www.w3.org/2000/svg">
<path d="M8.3989 9.02974C9.24363 9.02974 9.92842 8.34495 9.92842 7.50022C9.92842 6.65549 9.24363 5.9707 8.3989 5.9707C7.55417 5.9707 6.86938 6.65549 6.86938 7.50022C6.86938 8.34495 7.55417 9.02974 8.3989 9.02974Z" fill="#61DAFB"/>
<path d="M14.2084 4.97764C13.9132 4.8703 13.6047 4.76297 13.2826 4.66905C13.3631 4.34705 13.4302 4.02504 13.4839 3.71646C13.7657 1.94544 13.4571 0.697674 12.5984 0.214669C12.3435 0.067084 12.0617 0 11.7397 0C10.8005 0 9.60644 0.697674 8.39893 1.86494C7.19141 0.697674 5.99732 0 5.05814 0C4.73614 0 4.45438 0.067084 4.19946 0.214669C3.34079 0.711091 3.0322 1.95885 3.31395 3.71646C3.36762 4.02504 3.43471 4.34705 3.51521 4.66905C3.1932 4.76297 2.88462 4.85689 2.58945 4.97764C0.912344 5.62165 0 6.50716 0 7.5C0 8.49284 0.925761 9.37835 2.58945 10.0224C2.88462 10.1297 3.1932 10.237 3.51521 10.3309C3.43471 10.653 3.36762 10.975 3.31395 11.2835C3.0322 13.0546 3.34079 14.3023 4.19946 14.7853C4.45438 14.9329 4.73614 15 5.05814 15C6.01073 15 7.20483 14.3023 8.39893 13.1351C9.60644 14.3023 10.8005 15 11.7397 15C12.0617 15 12.3435 14.9329 12.5984 14.7853C13.4571 14.2889 13.7657 13.0411 13.4839 11.2835C13.4302 10.975 13.3631 10.653 13.2826 10.3309C13.6047 10.237 13.9132 10.1431 14.2084 10.0224C15.8855 9.37835 16.7979 8.49284 16.7979 7.5C16.7979 6.50716 15.8855 5.62165 14.2084 4.97764ZM12.2227 0.88551C12.7728 1.20751 12.9606 2.20036 12.7326 3.60912C12.6923 3.89088 12.6252 4.18605 12.5447 4.49463C11.847 4.33363 11.1091 4.2263 10.3309 4.15921C9.87478 3.51521 9.40519 2.93828 8.9356 2.41503C9.92844 1.4356 10.9347 0.764758 11.7531 0.764758C11.9275 0.764758 12.0886 0.805009 12.2227 0.88551ZM10.72 8.84168C10.4785 9.27102 10.1968 9.70036 9.90161 10.1297C9.40519 10.1699 8.90877 10.1834 8.39893 10.1834C7.87567 10.1834 7.37925 10.1699 6.89624 10.1297C6.60107 9.70036 6.33274 9.27102 6.09123 8.84168C5.83631 8.39893 5.59481 7.94275 5.38014 7.5C5.59481 7.05724 5.83631 6.60107 6.09123 6.15832C6.33274 5.72898 6.61449 5.29964 6.90966 4.8703C7.40608 4.83005 7.9025 4.81664 8.41234 4.81664C8.9356 4.81664 9.43202 4.83005 9.91503 4.8703C10.2102 5.29964 10.4785 5.72898 10.72 6.15832C10.975 6.60107 11.2165 7.05724 11.4311 7.5C11.203 7.94275 10.975 8.38551 10.72 8.84168ZM11.8336 8.39893C12.0349 8.86851 12.1959 9.32469 12.3435 9.78086C11.8873 9.88819 11.4043 9.96869 10.8945 10.0358C11.0555 9.78086 11.2299 9.51252 11.3775 9.23077C11.5385 8.94902 11.686 8.66726 11.8336 8.39893ZM8.39893 12.0349C8.07692 11.686 7.76834 11.3104 7.47317 10.9213C7.78175 10.9347 8.09034 10.9481 8.39893 10.9481C8.70751 10.9481 9.0161 10.9347 9.32469 10.9213C9.02952 11.3104 8.72093 11.686 8.39893 12.0349ZM5.9034 10.0224C5.39356 9.95528 4.91055 9.87478 4.45438 9.76744C4.60197 9.32469 4.76297 8.8551 4.96422 8.38551C5.11181 8.65385 5.25939 8.9356 5.42039 9.20393C5.5814 9.4991 5.7424 9.75402 5.9034 10.0224ZM4.96422 6.60107C4.76297 6.13148 4.60197 5.67531 4.45438 5.21914C4.91055 5.11181 5.39356 5.03131 5.9034 4.96422C5.7424 5.21914 5.56798 5.48748 5.42039 5.76923C5.25939 6.05098 5.11181 6.33274 4.96422 6.60107ZM8.39893 2.96512C8.72093 3.31395 9.02952 3.68962 9.32469 4.07871C9.0161 4.06529 8.70751 4.05188 8.39893 4.05188C8.09034 4.05188 7.78175 4.06529 7.47317 4.07871C7.76834 3.68962 8.07692 3.31395 8.39893 2.96512ZM11.3775 5.78265L10.8945 4.97764C11.4043 5.04472 11.8873 5.12522 12.3435 5.23256C12.1959 5.67531 12.0349 6.1449 11.8336 6.61449C11.686 6.33274 11.5385 6.05098 11.3775 5.78265ZM4.0653 3.60912C3.83721 2.20036 4.02504 1.20751 4.57513 0.88551C4.7093 0.805009 4.8703 0.764758 5.04472 0.764758C5.84973 0.764758 6.85599 1.42218 7.86225 2.41503C7.39267 2.92487 6.92308 3.51521 6.46691 4.15921C5.68873 4.2263 4.95081 4.34705 4.25313 4.49463C4.17263 4.18605 4.11896 3.89088 4.0653 3.60912ZM0.751342 7.5C0.751342 6.86941 1.5161 6.19857 2.85778 5.70215C3.12612 5.59481 3.42129 5.50089 3.71646 5.42039C3.93113 6.09123 4.19946 6.80233 4.52147 7.51342C4.19946 8.22451 3.91771 8.92218 3.71646 9.59302C1.86494 9.05635 0.751342 8.25134 0.751342 7.5ZM4.57513 14.1145C4.02504 13.7925 3.83721 12.7996 4.0653 11.3909C4.10555 11.1091 4.17263 10.814 4.25313 10.5054C4.95081 10.6664 5.68873 10.7737 6.46691 10.8408C6.92308 11.4848 7.39267 12.0617 7.86225 12.585C6.86941 13.5644 5.86315 14.2352 5.04472 14.2352C4.8703 14.2352 4.7093 14.195 4.57513 14.1145ZM12.7326 11.3909C12.9606 12.7996 12.7728 13.7925 12.2227 14.1145C12.0886 14.195 11.9275 14.2352 11.7531 14.2352C10.9481 14.2352 9.94186 13.5778 8.9356 12.585C9.40519 12.0751 9.87478 11.4848 10.3309 10.8408C11.1091 10.7737 11.847 10.653 12.5447 10.5054C12.6252 10.814 12.6789 11.1091 12.7326 11.3909ZM13.9401 9.29785C13.6717 9.40519 13.3766 9.49911 13.0814 9.57961C12.8667 8.90877 12.5984 8.19767 12.2764 7.48658C12.5984 6.77549 12.8801 6.07782 13.0814 5.40698C14.9329 5.94365 16.0465 6.74866 16.0465 7.5C16.0465 8.13059 15.2683 8.80143 13.9401 9.29785Z" fill="#61DAFB"/>
</svg>
