<svg width="15" height="15" viewBox="0 0 15 15" fill="none" xmlns="http://www.w3.org/2000/svg">
<g clip-path="url(#clip0_1241_3537)">
<path d="M1.20426 14.9593C0.91393 14.9011 0.647312 14.7584 0.437994 14.5489C0.228676 14.3395 0.0860236 14.0728 0.028009 13.7824C-0.019791 13.5407 -0.00731167 13.291 0.064344 13.0552C0.136 12.8195 0.264625 12.605 0.438852 12.4308C0.613078 12.2566 0.827541 12.1279 1.06329 12.0563C1.29903 11.9846 1.5488 11.9721 1.79051 12.0199C2.08075 12.0781 2.34731 12.2208 2.55662 12.4301C2.76593 12.6394 2.90863 12.9059 2.96676 13.1962C3.01456 13.4379 3.00208 13.6877 2.93042 13.9234C2.85877 14.1592 2.73014 14.3736 2.55592 14.5478C2.38169 14.7221 2.16723 14.8507 1.93148 14.9224C1.69574 14.994 1.44597 15.0071 1.20426 14.9593ZM13.2093 2.97994C12.919 2.92182 12.6525 2.77912 12.4431 2.56981C12.2338 2.3605 12.0911 2.09394 12.033 1.80369C11.9852 1.56198 11.9977 1.31221 12.0693 1.07647C12.141 0.840725 12.2696 0.626262 12.4439 0.452035C12.6181 0.277808 12.8325 0.149183 13.0683 0.0775276C13.304 0.00587193 13.5538 -0.00660739 13.7955 0.0411926C14.0858 0.099318 14.3523 0.24202 14.5616 0.451329C14.7709 0.660638 14.9136 0.927197 14.9718 1.21744C15.0196 1.45916 15.0071 1.70892 14.9354 1.94467C14.8638 2.18041 14.7351 2.39487 14.5609 2.5691C14.3867 2.74333 14.1722 2.87195 13.9365 2.94361C13.7007 3.01526 13.451 3.02774 13.2093 2.97994ZM7.51301 3.75619C8.22988 3.75619 8.89989 3.95869 9.46926 4.30807L11.0849 2.69244C9.93135 1.83487 8.50787 1.42074 7.07432 1.52565C5.64077 1.63057 4.29275 2.24754 3.27637 3.26392C2.25998 4.28031 1.64301 5.62832 1.53809 7.06188C1.43318 8.49543 1.84731 9.91891 2.70488 11.0724L4.32113 9.45619C3.9734 8.88879 3.78318 8.23895 3.77009 7.5736C3.757 6.90825 3.92149 6.25143 4.24664 5.67079C4.57179 5.09015 5.04583 4.60667 5.61996 4.27014C6.19408 3.93362 6.84753 3.75621 7.51301 3.75619ZM10.7049 5.54369C11.1442 6.26069 11.3294 7.10471 11.2305 7.93977C11.1317 8.77483 10.7546 9.5523 10.16 10.1469C9.56536 10.7415 8.7879 11.1186 7.95284 11.2175C7.11778 11.3163 6.27375 11.1312 5.55676 10.6918L3.94051 12.3074C5.09405 13.165 6.51752 13.5792 7.95108 13.4742C9.38463 13.3693 10.7326 12.7523 11.749 11.736C12.7654 10.7196 13.3824 9.37156 13.4873 7.93801C13.5922 6.50445 13.1781 5.08098 12.3205 3.92744L10.7049 5.54369Z" fill="#6A78F2"/>
</g>
<defs>
<clipPath id="clip0_1241_3537">
<rect width="15" height="15" fill="white"/>
</clipPath>
</defs>
</svg>
