<svg width="15" height="15" viewBox="0 0 15 15" fill="none" xmlns="http://www.w3.org/2000/svg">
<path fill-rule="evenodd" clip-rule="evenodd" d="M10.317 5.01709C10.5051 5.56119 10.6406 6.11666 10.6851 6.6924C10.7404 7.40666 10.7151 8.11588 10.5645 8.81842C10.5604 8.83775 10.5517 8.85592 10.5453 8.87467C10.4981 8.87479 10.4499 8.86893 10.4037 8.87607C10.0136 8.93736 9.62383 9.00088 9.23407 9.06404C8.83118 9.12932 8.4277 9.19201 8.02551 9.26174C7.88301 9.28635 7.70665 9.25693 7.64911 9.45404C7.64747 9.45943 7.63106 9.46037 7.62157 9.46342L7.64102 8.28557L7.62122 5.44354L7.80895 5.41131C8.11598 5.36103 8.42301 5.31006 8.73028 5.26119C9.09696 5.20295 9.46399 5.14635 9.8309 5.08951C9.99274 5.06432 10.1548 5.04123 10.317 5.01709Z" fill="#439934"/>
<path fill-rule="evenodd" clip-rule="evenodd" d="M7.23383 12.897C7.03578 12.7268 6.83082 12.564 6.64097 12.3849C5.61945 11.4214 4.87226 10.2874 4.50429 8.92016C4.40293 8.54387 4.33531 8.16148 4.31363 7.77266C4.2984 7.50055 4.27636 7.22598 4.29558 6.95527C4.34679 6.23527 4.45086 5.52219 4.66203 4.82867L4.67363 4.8125C4.69414 4.8398 4.72367 4.86395 4.7341 4.89477C4.94023 5.5018 5.14484 6.1093 5.3484 6.71715C5.988 8.6273 6.62679 10.5379 7.26746 12.4476C7.28 12.4849 7.31246 12.5155 7.33578 12.5491L7.23383 12.897Z" fill="#45A538"/>
<path fill-rule="evenodd" clip-rule="evenodd" d="M10.317 5.01725C10.1548 5.04139 9.99259 5.06447 9.83075 5.08943C9.46384 5.14627 9.09681 5.20287 8.73013 5.26111C8.42286 5.30998 8.11583 5.36096 7.8088 5.41123L7.62106 5.44346L7.61966 5.321C7.61345 5.22033 7.60278 5.11978 7.60161 5.01912C7.59352 4.37717 7.58848 3.73521 7.58052 3.09326C7.57559 2.69143 7.56821 2.28971 7.56001 1.88799C7.55497 1.63838 7.54958 1.38865 7.53833 1.13939C7.53224 1.00545 7.51067 0.872207 7.50188 0.738262C7.49696 0.66127 7.50376 0.583691 7.50528 0.506348C7.60102 0.691855 7.69466 0.87877 7.79309 1.06287C7.9486 1.35396 8.19634 1.56842 8.41934 1.80244C9.30095 2.72729 9.92684 3.8026 10.317 5.01725Z" fill="#46A037"/>
<path fill-rule="evenodd" clip-rule="evenodd" d="M7.62136 9.46302C7.63085 9.45997 7.64737 9.45904 7.6489 9.45365C7.70644 9.25654 7.8828 9.28595 8.0253 9.26134C8.42749 9.19173 8.83097 9.12892 9.23386 9.06365C9.62362 9.00048 10.0134 8.93697 10.4035 8.87568C10.4497 8.86841 10.4978 8.87439 10.5451 8.87427C10.4722 9.13443 10.4148 9.40021 10.3223 9.65322C10.2173 9.94021 10.0903 10.2203 9.95538 10.4949C9.75345 10.9044 9.50353 11.2885 9.21089 11.639C8.98601 11.9094 8.73534 12.1594 8.48409 12.4063C8.34522 12.5428 8.18151 12.654 8.02917 12.7767L7.98968 12.7498L7.84741 12.6281L7.70022 12.3055C7.59969 11.9292 7.54484 11.5421 7.53687 11.1526L7.53956 11.0869L7.5596 10.8026C7.56628 10.7056 7.57519 10.6086 7.57929 10.5114C7.5944 10.1619 7.60753 9.81247 7.62136 9.46302Z" fill="#409433"/>
<path fill-rule="evenodd" clip-rule="evenodd" d="M7.62143 9.46336C7.6076 9.81281 7.59447 10.1623 7.57959 10.5118C7.57549 10.6091 7.56658 10.706 7.5599 10.803L7.47025 10.8369C7.27115 10.2507 7.07193 9.67078 6.87705 9.0893C6.55479 8.1273 6.23639 7.16379 5.91459 6.20156C5.65468 5.4249 5.39296 4.64884 5.12943 3.8734C5.11713 3.83707 5.08174 3.80871 5.05713 3.7766L5.63088 2.72168C5.65057 2.7559 5.67658 2.78789 5.689 2.82469C5.95473 3.61009 6.21911 4.39595 6.48213 5.18227C6.82385 6.20531 7.16346 7.22918 7.50494 8.25234C7.51854 8.29324 7.54103 8.33098 7.56248 8.3768L7.641 8.28539L7.62143 9.46336Z" fill="#4FAA41"/>
<path fill-rule="evenodd" clip-rule="evenodd" d="M5.05727 3.77637C5.08187 3.80848 5.11715 3.83684 5.12957 3.87316C5.3931 4.64861 5.65482 5.42466 5.91473 6.20133C6.23652 7.16355 6.55492 8.12707 6.87719 9.08906C7.07195 9.67043 7.27117 10.2505 7.47039 10.8367L7.56004 10.8028L7.54 11.0871L7.52184 11.1526C7.49066 11.4639 7.46441 11.7758 7.42645 12.0864C7.40734 12.242 7.3668 12.3948 7.33598 12.5489C7.31277 12.5153 7.2802 12.4847 7.26766 12.4474C6.62699 10.5376 5.9882 8.62711 5.34859 6.71695C5.14511 6.10906 4.94034 5.5016 4.7343 4.89457C4.72387 4.86375 4.69445 4.83961 4.67383 4.8123L5.05727 3.77637Z" fill="#4AA73C"/>
<path fill-rule="evenodd" clip-rule="evenodd" d="M7.64085 8.2852L7.56234 8.3766C7.54089 8.33078 7.51839 8.29293 7.5048 8.25215C7.16343 7.22898 6.82371 6.20512 6.48199 5.18207C6.21896 4.39576 5.95459 3.6099 5.68886 2.82449C5.67656 2.7877 5.65054 2.75559 5.63074 2.72148L6.34031 1.78809C6.36269 1.81797 6.39457 1.84457 6.40617 1.8782C6.60316 2.45488 6.79839 3.03227 6.99246 3.61C7.17374 4.14953 7.35234 4.68988 7.53574 5.22871C7.54804 5.2648 7.59081 5.29035 7.61941 5.32082L7.62082 5.44328C7.62761 6.39039 7.63429 7.33785 7.64085 8.2852Z" fill="#57AE47"/>
<path fill-rule="evenodd" clip-rule="evenodd" d="M7.61968 5.32084C7.59108 5.29037 7.54831 5.26482 7.53601 5.22873C7.35261 4.6899 7.17401 4.14955 6.99272 3.61002C6.79866 3.03229 6.60343 2.45502 6.40644 1.87822C6.39483 1.84459 6.36296 1.81799 6.34058 1.78811C6.57132 1.56217 6.79491 1.32814 7.03491 1.11264C7.24831 0.921152 7.41987 0.71584 7.42772 0.413262C7.42808 0.400723 7.43464 0.388184 7.44472 0.353027L7.50554 0.506074C7.50401 0.583535 7.4971 0.660996 7.50214 0.737988C7.51093 0.871934 7.53249 1.00518 7.53858 1.13912C7.54983 1.38838 7.55522 1.63811 7.56026 1.88771C7.56835 2.28943 7.57573 2.69115 7.58077 3.09299C7.58862 3.73494 7.59378 4.37689 7.60187 5.01885C7.6028 5.11975 7.61335 5.22018 7.61968 5.32084Z" fill="#60B24F"/>
<path fill-rule="evenodd" clip-rule="evenodd" d="M7.33572 12.5488C7.36654 12.3947 7.40708 12.2418 7.42619 12.0863C7.46427 11.7759 7.4904 11.4638 7.52158 11.1525L7.52931 11.1514L7.53705 11.1527C7.54502 11.5421 7.59987 11.9292 7.70041 12.3055C7.67978 12.3327 7.6506 12.357 7.6397 12.3877C7.55451 12.6279 7.47423 12.87 7.38857 13.1103C7.37685 13.1431 7.34427 13.1686 7.3213 13.1975L7.23376 12.8968L7.33572 12.5488Z" fill="#A9AA88"/>
<path fill-rule="evenodd" clip-rule="evenodd" d="M7.32141 13.1976C7.34438 13.1687 7.37707 13.1432 7.38868 13.1104C7.47434 12.8702 7.55473 12.6282 7.63981 12.3878C7.65071 12.3571 7.67977 12.3329 7.70051 12.3057L7.84758 12.6284C7.81852 12.6696 7.77844 12.7068 7.76227 12.7527L7.48055 13.58C7.46895 13.6131 7.42934 13.6366 7.40286 13.6646L7.32141 13.1976Z" fill="#B6B598"/>
<path fill-rule="evenodd" clip-rule="evenodd" d="M7.40283 13.6646C7.42943 13.6367 7.46893 13.6131 7.48053 13.58L7.76225 12.7528C7.7783 12.7069 7.8185 12.6697 7.84756 12.6284L7.98994 12.7499C7.92115 12.8179 7.88295 12.8964 7.90592 12.9957L7.86268 13.1372C7.84299 13.1615 7.81451 13.1826 7.80478 13.2104C7.70646 13.492 7.6126 13.7751 7.51357 14.0567C7.50103 14.0924 7.46623 14.1204 7.44162 14.1519C7.42885 13.9893 7.41584 13.8271 7.40283 13.6646Z" fill="#C2C1A7"/>
<path fill-rule="evenodd" clip-rule="evenodd" d="M7.44176 14.1518C7.46625 14.1203 7.50106 14.0923 7.51371 14.0567C7.61274 13.7752 7.70661 13.492 7.80493 13.2103C7.81465 13.1827 7.84301 13.1615 7.86282 13.1372L7.80317 13.787C7.78723 13.8054 7.76415 13.8215 7.75653 13.8429C7.68915 14.0321 7.62563 14.2226 7.55801 14.4117C7.54407 14.4508 7.51735 14.4852 7.49649 14.5217C7.47797 14.4974 7.44481 14.474 7.44329 14.4487C7.43731 14.3501 7.44141 14.2508 7.44176 14.1518Z" fill="#CECDB7"/>
<path fill-rule="evenodd" clip-rule="evenodd" d="M7.49634 14.5218C7.5172 14.4852 7.54392 14.4507 7.55786 14.4118C7.6256 14.2228 7.68899 14.0323 7.75638 13.843C7.76399 13.8216 7.7872 13.8056 7.80302 13.7871L7.80442 14.2137L7.66169 14.5798L7.49634 14.5218Z" fill="#DBDAC7"/>
<path fill-rule="evenodd" clip-rule="evenodd" d="M7.66174 14.58L7.80448 14.2139L7.83389 14.647L7.66174 14.58Z" fill="#EBE9DC"/>
<path fill-rule="evenodd" clip-rule="evenodd" d="M7.90599 12.9957C7.88302 12.8965 7.92111 12.8179 7.99001 12.75L8.02951 12.777L7.90599 12.9957Z" fill="#CECDB7"/>
<path fill-rule="evenodd" clip-rule="evenodd" d="M7.53708 11.153L7.52934 11.1517L7.52161 11.1529L7.53977 11.0874L7.53708 11.153Z" fill="#4FAA41"/>
</svg>
