<svg width="11" height="15" viewBox="0 0 11 15" fill="none" xmlns="http://www.w3.org/2000/svg">
<path d="M8.17171e-05 14.3859C8.17171e-05 14.725 2.2734 14.9998 5.07772 14.9998C7.88208 14.9999 10.1554 14.725 10.1554 14.3859C10.1554 14.0468 7.48864 13.772 5.07772 13.772C2.20785 13.772 8.17171e-05 14.0468 8.17171e-05 14.3859" fill="#1A4658"/>
<path d="M0.314208 9.95598C0.471386 9.95598 0.640634 9.88372 0.761565 9.32998C0.882496 8.7762 1.06381 8.2104 1.06381 8.2104C0.870348 8.2104 0.761565 8.12611 0.761565 8.12611C0.894565 8.06587 1.18474 7.86124 1.37813 7.60847C1.57156 7.35565 2.06727 6.94629 2.06727 6.94629V6.12775C2.06727 5.57393 1.71059 5.14061 1.71059 5.14061C1.95238 5.14061 2.06727 5.35725 2.06727 5.35725V4.18956C2.06727 3.03385 1.48096 2.51624 1.48096 2.51624C1.66228 2.50423 1.78317 2.58847 1.78317 2.58847C1.69852 1.73376 1.43558 1.48095 1.43558 1.48095C2.40271 1.22814 2.94226 1.79397 2.94226 1.79397C3.05104 1.27633 2.62563 0.975243 2.62563 0.975243C3.12127 0.866922 3.53123 1.01138 3.53123 1.01138C3.53123 0.252973 3.22846 0 3.22846 0C4.73967 0 5.5977 1.13144 5.5977 1.13144C5.65812 0.649925 5.52504 0.228146 5.52504 0.228146C6.98785 0.842095 7.37462 2.20176 7.37462 2.20176C7.47134 1.97306 7.4834 1.45379 7.4834 1.45379C7.4834 1.45379 8.08794 2.46208 8.19672 3.16024C8.30551 3.85847 8.10001 5.86288 8.10001 5.86288C8.10001 5.86288 8.19668 5.74254 8.40222 5.71847C8.40222 5.71847 8.18465 5.95922 8.18465 6.50095C8.18465 6.50095 8.26926 6.42872 8.41433 6.46485C8.41433 6.46485 8.18465 6.66948 8.16044 7.01859C8.16044 7.01859 8.42644 7.19918 8.57151 7.37973C8.57151 7.37973 8.80122 7.39179 8.92211 7.42788C8.92211 7.42788 8.72865 7.5362 8.6924 7.63254C8.6924 7.63254 9.26061 8.2104 9.55075 8.67985C9.55075 8.67985 9.29685 8.52338 9.11554 8.57153C9.11554 8.57153 9.51454 9.05305 9.6475 9.84758C9.6475 9.84758 9.45407 9.75132 9.36943 9.79947C9.36943 9.79947 9.61121 10.3051 9.62332 10.8347L9.88928 10.9913L9.68375 11.1357C9.68375 11.1357 9.84093 11.7858 9.87721 12.159C9.87721 12.159 9.75632 12.0386 9.65961 12.0025C9.65961 12.0025 9.52661 12.3154 9.34525 12.5562C9.16389 12.797 8.75282 13.0017 8.51104 13.0017L8.05658 12.984C8.11295 13.2262 8.22412 13.4315 8.45852 13.4423L8.48452 13.4838C8.48933 13.4835 8.49415 13.4833 8.49897 13.4832C8.50362 13.5539 8.64694 13.5666 8.68636 13.6156C8.80618 13.7645 8.89754 13.969 8.9584 14.1513C9.00298 14.2849 8.9819 14.2849 9.01279 14.4222C9.02291 14.4671 9.06972 14.5151 9.08532 14.5606C8.95479 14.517 8.59302 14.4878 8.40246 14.4739L8.39924 14.6418C8.39924 14.6418 8.3678 14.6709 8.31579 14.692C8.31396 14.6916 8.31222 14.6911 8.31007 14.6913C8.2924 14.6928 8.27533 14.6953 8.25862 14.6995C7.97269 14.674 7.77358 14.722 7.44212 14.6946C7.37764 14.687 7.31717 14.678 7.26072 14.646C7.24468 14.5982 7.2425 14.5953 7.23495 14.5336C7.23336 14.5226 7.23336 14.5113 7.23066 14.4979C7.2255 14.497 7.22042 14.4963 7.21538 14.4955C7.21154 14.4944 7.20755 14.4939 7.20355 14.494C7.20212 14.4935 7.20093 14.4928 7.19934 14.4927L7.18362 14.4913C7.18041 14.49 7.17685 14.4897 7.17345 14.4905C7.11343 14.4851 7.01715 14.4801 6.95716 14.4768C6.76222 14.4765 6.50567 14.4989 6.50567 14.4989C6.48979 14.2813 6.47395 13.9437 6.12033 12.9595L6.03267 12.9053C6.03267 12.9053 4.94655 13.2864 3.93877 12.8899C3.85901 13.0854 3.60098 13.7423 3.56041 14.1565C3.52571 14.205 3.52956 14.2666 3.52841 14.3319C3.52742 14.3871 3.52273 14.4424 3.52126 14.4975C3.48502 14.4925 3.35412 14.4766 3.18896 14.4768C3.12901 14.4801 3.0327 14.4851 2.97267 14.4905C2.96927 14.4897 2.96571 14.49 2.9625 14.4913L2.94678 14.4927C2.94519 14.4928 2.944 14.4935 2.94257 14.4939C2.93857 14.4938 2.93457 14.4944 2.93074 14.4956C2.9257 14.4963 2.92066 14.497 2.91546 14.4979C2.9128 14.5113 2.9128 14.5226 2.91113 14.5336C2.90359 14.5953 2.90144 14.5982 2.8854 14.646C2.88024 14.6489 2.875 14.6515 2.86976 14.654C2.68928 14.6312 2.50641 14.6271 2.32486 14.6356C2.18201 14.6423 2.04162 14.669 1.90108 14.6945C1.90108 14.6958 1.90092 14.6972 1.90092 14.6985C1.88675 14.7 1.87293 14.701 1.85908 14.7019C1.78364 14.7154 1.70805 14.7279 1.63194 14.7361C1.63047 14.6413 1.63099 14.5584 1.63302 14.4855C1.48159 14.4928 1.2624 14.5228 1.17049 14.5361C1.13397 14.5448 1.10439 14.5502 1.0733 14.5568C1.06909 14.5581 1.06465 14.5593 1.0608 14.5606L1.06127 14.5595C1.03007 14.5665 0.9964 14.5754 0.951974 14.5907C0.958723 14.5093 0.958128 14.511 0.968966 14.4089C0.977303 14.3299 1.03416 14.09 1.14056 13.991C1.14056 13.991 1.02463 14.0409 0.989254 14.0608C1.10351 13.9066 1.15906 13.6863 1.51808 13.5343C1.51808 13.5343 1.45253 13.5035 1.39258 13.4957C1.45523 13.4573 1.50307 13.4422 1.56648 13.4467C1.54496 13.3858 1.45015 13.2321 1.37059 13.2123C1.37059 13.2123 1.41942 13.1785 1.49922 13.2047C1.52918 13.22 1.5581 13.2373 1.58577 13.2564C1.59633 13.2639 1.61178 13.2562 1.61491 13.2446C1.64 13.1522 1.65632 13.0583 1.67113 12.964C0.947647 12.9379 0.846169 12.5683 0.846169 12.5683C0.785743 12.6165 0.785744 12.7248 0.785744 12.7248C0.471466 12.3155 0.507713 11.9062 0.507713 11.9062C0.435138 11.9182 0.374712 11.9664 0.374712 11.9664C0.338425 11.3404 0.531852 10.2689 0.531852 10.2689C0.435139 10.3171 0.374712 10.2569 0.374712 10.2569C0.483495 10.2088 0.495564 10.0884 0.495564 10.0884C0.338386 10.1004 0.314208 9.95594 0.314208 9.95594" fill="#EDF7FA"/>
<path d="M7.23063 14.498C7.23063 14.498 7.20229 14.1936 7.30202 13.9738C7.30202 13.9738 7.11316 13.9866 7.08144 14.4832C7.08144 14.4832 7.21368 14.4985 7.23063 14.498M8.17859 13.4712L8.1774 13.4619C8.17672 13.4665 8.1768 13.4701 8.17859 13.4712ZM8.00176 14.4744L8.00347 14.474L8.00124 14.4682L8.00176 14.4744Z" fill="#CDE9EE"/>
<path d="M5.59766 1.13148C5.65808 0.649925 5.525 0.228146 5.525 0.228146C6.98785 0.842095 7.37462 2.20176 7.37462 2.20176C7.47134 1.97306 7.4834 1.45379 7.4834 1.45379C7.4834 1.45379 8.08794 2.46208 8.19672 3.16024C8.30551 3.85847 8.10001 5.86288 8.10001 5.86288C8.10001 5.86288 8.19668 5.74254 8.40222 5.71847C8.40222 5.71847 8.18465 5.95922 8.18465 6.50095C8.18465 6.50095 8.26926 6.42872 8.41433 6.46485C8.41433 6.46485 8.18465 6.66948 8.16044 7.01859C8.16044 7.01859 8.42644 7.19918 8.57151 7.37973C8.57151 7.37973 8.80122 7.39179 8.92211 7.42788C8.92211 7.42788 8.72865 7.5362 8.6924 7.63254C8.6924 7.63254 9.26061 8.2104 9.55075 8.67985C9.55075 8.67985 9.29685 8.52338 9.11554 8.57153C9.11554 8.57153 9.51454 9.05305 9.6475 9.84758C9.6475 9.84758 9.45407 9.75132 9.36943 9.79947C9.36943 9.79947 9.61121 10.3051 9.62332 10.8347L9.88928 10.9913L9.68375 11.1357C9.68375 11.1357 9.84093 11.7858 9.87721 12.159C9.87721 12.159 9.75632 12.0386 9.65961 12.0025C9.65961 12.0025 9.52661 12.3154 9.34525 12.5562C9.16389 12.797 8.75282 13.0017 8.51104 13.0017L8.48043 12.9975C8.49393 13.0805 8.5091 13.1631 8.53125 13.2446C8.53435 13.2562 8.54979 13.2639 8.56039 13.2564C8.58803 13.2373 8.61692 13.22 8.64686 13.2047C8.72666 13.1786 8.77553 13.2123 8.77553 13.2123C8.69597 13.2321 8.60116 13.3858 8.57961 13.4468C8.64305 13.4422 8.69089 13.4573 8.75354 13.4957C8.69359 13.5035 8.62804 13.5343 8.62804 13.5343C8.98702 13.6863 9.04261 13.9066 9.15687 14.0608C9.12149 14.0409 9.0056 13.9911 9.0056 13.9911C9.11196 14.09 9.16878 14.3299 9.17715 14.4089C9.18795 14.511 9.18736 14.5093 9.19411 14.5907C9.09894 14.5578 9.05269 14.5545 8.97567 14.5361C8.8566 14.5189 8.52394 14.4734 8.40174 14.4861L8.421 14.7201L8.415 14.72C8.35227 14.7021 8.30114 14.7045 8.2452 14.6985C8.24437 14.634 8.24095 14.5696 8.23567 14.5053C8.2394 14.3955 8.22571 14.2955 8.20316 14.184C8.20244 14.1802 8.20149 14.1763 8.20073 14.1726C8.15635 14.0204 8.07913 13.9337 8.02898 13.8804C8.01235 13.8627 7.9979 13.8418 7.98551 13.8203C7.94961 13.7725 7.92095 13.7198 7.90047 13.6637C7.85076 13.5287 7.87208 13.232 7.97193 12.9424C7.86664 13.0933 7.77069 13.2257 7.72523 13.271L7.72824 12.9023C7.72824 12.9023 7.53482 13.0948 7.36168 13.2402C7.27831 13.3127 7.17552 13.4069 7.10255 13.4445C7.09727 13.4478 7.0925 13.4128 7.08667 13.4657H7.08675C7.08599 13.4657 7.08528 13.4552 7.08452 13.4556C6.98646 13.5104 6.88562 13.5539 6.79121 13.6147C6.78108 13.6212 6.77076 13.6244 6.76084 13.6312C6.71716 13.6611 6.64022 13.6944 6.57106 13.7307L6.50567 14.4996C6.44676 13.6915 5.98431 12.9177 5.98431 12.9177L6.00126 12.9126C6.14435 12.8685 7.19128 12.5078 7.80983 11.22C7.85057 11.1352 7.58016 11.3163 7.58016 11.3163C7.83405 10.7023 7.93076 9.71519 7.93076 9.71519C7.84616 9.78741 7.76151 9.79943 7.76151 9.79943C7.94283 9.2938 8.01537 8.66784 8.01537 8.102C8.06372 5.05633 6.93334 4.35809 6.93334 4.35809C7.12677 4.28587 7.3323 4.29187 7.3323 4.29187C7.10862 3.7562 6.36517 3.00982 6.36517 3.00982C6.56463 3.02187 7.34441 3.23251 7.34441 3.23251C6.69759 1.55314 6.04474 1.10776 6.04474 1.10776C6.09309 1.511 5.93596 1.93839 5.93596 1.93839C4.53354 0.21087 3.40676 0.291438 3.40676 0.291438C3.32319 0.118165 3.22831 0 3.22831 0C4.73955 0 5.5977 1.13144 5.5977 1.13144M1.63357 14.4884C1.63357 14.4884 1.64719 14.052 1.74688 13.8323C1.74688 13.8323 1.48695 13.9918 1.48842 14.4959C1.48842 14.4959 1.61658 14.4889 1.63357 14.4884Z" fill="#CDE9EE"/>
<path d="M8.39648 12.244C8.22525 10.5742 8.17868 7.30762 8.17868 7.30762C8.5504 8.03898 8.84963 9.36619 8.84963 9.36619L8.7771 9.65509L8.94027 9.58291C9.20262 10.4894 9.02512 11.7029 8.96636 12.0447C8.79949 12.1763 8.60071 12.2206 8.39648 12.244ZM8.74716 12.2079C8.69471 12.4722 8.6382 12.7355 8.57764 12.998C8.53226 13.0048 8.48124 13.0014 8.48124 13.0014C8.43964 12.84 8.43277 12.5901 8.40041 12.2827C8.5196 12.2688 8.63656 12.2477 8.74716 12.2079Z" fill="#ABD8D7"/>
<path d="M3.06547 13.6471C3.0694 13.6484 3.07367 13.6483 3.07754 13.6468C3.08141 13.6453 3.08463 13.6425 3.08663 13.6389C3.10541 13.6426 3.11982 13.646 3.12951 13.6485L3.12947 13.6484C2.88006 13.4677 2.85712 13.2766 2.85712 13.2766C3.02259 13.3509 3.19823 13.3786 3.28367 13.3884C2.70716 12.8908 2.61136 11.9668 2.61136 11.9668C2.84751 12.2554 3.18259 12.4993 3.44156 12.6631L3.44101 12.6619C3.44101 12.6619 3.6145 12.7586 3.7749 12.8338C3.77866 12.8331 3.78255 12.8336 3.78602 12.8352C3.78949 12.8368 3.79236 12.8394 3.79423 12.8428C3.87662 12.8808 3.95344 12.9118 3.99866 12.9193C3.99866 12.9193 3.86514 13.1648 3.80936 13.2972L3.82032 13.306C3.82032 13.306 3.62713 13.7607 3.55682 14.2011C3.54939 14.2755 3.54368 14.3407 3.53967 14.3905C3.53629 14.4549 3.53173 14.4993 3.53173 14.4993C3.27629 14.4617 2.91552 14.4983 2.91552 14.4983C2.91723 14.5398 2.8944 14.6392 2.89019 14.6573C2.7689 14.641 2.64654 14.6339 2.52414 14.6328C2.52573 14.206 2.54459 13.4967 3.06547 13.6471Z" fill="#CDE9EE"/>
<path d="M8.40981 12.3727C8.81036 12.3053 9.17383 11.8469 9.17383 11.8469C8.88178 12.1561 8.51824 12.1975 8.51824 12.1975C8.47024 11.8444 8.76339 11.0361 8.76339 11.0361C8.54626 11.3054 8.42752 11.6167 8.36261 11.8716L8.40981 12.3727Z" fill="#83BAC0"/>
<path d="M7.50085 11.7471C7.50085 11.7471 7.18574 12.3001 6.90922 12.5393C6.61074 12.7975 6.33343 13.1624 6.21555 13.3835C6.21555 13.3835 6.06596 13.0375 5.98433 12.917C5.98433 12.917 6.86841 12.659 7.50085 11.7471ZM3.3882 12.8257C3.34437 12.7643 3.29419 12.7072 3.24639 12.6489C3.16798 12.5533 3.07837 12.4606 3.01255 12.3565C3.12617 12.4412 3.2527 12.5145 3.38205 12.5921C3.75747 12.8453 4.01898 12.917 4.01898 12.917C3.9374 13.0375 3.7878 13.3835 3.7878 13.3835C3.71646 13.2496 3.58651 13.0632 3.42902 12.8795C3.4158 12.8613 3.40107 12.8438 3.3882 12.8257Z" fill="#ABD8D7"/>
<path d="M7.62043 3.51198C7.65481 3.51443 7.76483 3.5172 7.76483 3.5172C8.76161 3.5865 9.49427 2.81738 9.49427 2.81738C9.49427 2.81738 9.55978 3.41777 9.12679 3.94388C8.69365 4.46999 7.81596 4.56 7.81596 4.56C7.78746 4.68303 7.84923 4.95739 7.84923 4.95739C7.84923 4.95739 7.59256 4.67473 7.52741 4.13909C7.48163 3.76377 7.59915 3.51048 7.62043 3.51198Z" fill="#545352"/>
<path d="M7.62043 3.51198C7.6535 3.51384 7.76482 3.5172 7.76482 3.5172C8.76161 3.5865 9.49426 2.81738 9.49426 2.81738C9.49426 2.81738 9.03889 4.12965 7.51812 4.02591C7.51812 4.02591 7.47607 3.78318 7.62043 3.51198Z" fill="#6E7979"/>
<path d="M2.64364 3.51198C2.6093 3.51443 2.49928 3.5172 2.49928 3.5172C1.5025 3.5865 0.769843 2.81738 0.769843 2.81738C0.769843 2.81738 0.704335 3.41777 1.13732 3.94388C1.57047 4.46999 2.44815 4.56 2.44815 4.56C2.47665 4.68303 2.41488 4.95739 2.41488 4.95739C2.41488 4.95739 2.67155 4.67473 2.7367 4.13909C2.78248 3.76377 2.66492 3.51048 2.64364 3.51198Z" fill="#545352"/>
<path d="M2.64366 3.51198C2.61063 3.51384 2.49931 3.5172 2.49931 3.5172C1.50252 3.5865 0.769867 2.81738 0.769867 2.81738C0.769867 2.81738 1.22524 4.12965 2.74601 4.02591C2.74601 4.02591 2.78806 3.78318 2.64366 3.51198Z" fill="#6E7979"/>
<path d="M8.14066 7.95797C8.14066 7.95797 8.85716 10.5221 8.14066 12.1654V7.95797ZM1.0064 12.0141C1.36007 12.2828 1.72798 12.2998 1.72798 12.2998C1.74438 11.9487 1.35899 11.1813 1.35899 11.1813C1.44092 11.2294 1.51403 11.291 1.57517 11.3636L1.57767 11.106L1.29964 10.8773L1.52324 10.6967L1.23918 9.5591L1.51117 9.73969C1.51117 9.73969 1.59577 8.12057 1.53539 7.42233C1.53539 7.42233 1.87992 7.07919 2.04913 6.94078C2.04913 6.94078 2.01717 7.43929 1.98068 8.23581C1.82624 8.87478 1.58644 10.1971 1.8848 11.3601C1.88135 11.5958 1.87881 11.8352 1.87742 12.0769C1.87742 12.0769 1.72874 12.5912 1.68042 12.9523C1.68042 12.9523 1.63206 12.9659 1.55953 12.9539L1.56501 12.4008C1.19145 12.2885 1.0064 12.0141 1.0064 12.0141ZM4.35833 7.04894C4.35833 7.32243 4.18245 7.54413 3.96541 7.54413C3.7484 7.54413 3.57244 7.32243 3.57244 7.04894C3.57244 6.77537 3.7484 6.55371 3.96541 6.55371C4.18245 6.55371 4.35833 6.77541 4.35833 7.04894Z" fill="#CDE9EE"/>
<path d="M4.34619 6.91627C4.34619 7.18553 4.17301 7.40384 3.9593 7.40384C3.74563 7.40384 3.57241 7.18553 3.57241 6.91627C3.57241 6.64697 3.74563 6.42871 3.9593 6.42871C4.17301 6.42871 4.34619 6.64697 4.34619 6.91627Z" fill="white"/>
<path d="M4.06212 6.66504C4.06543 6.67734 4.06717 6.69002 4.06728 6.70275C4.06728 6.77142 4.02234 6.82701 3.96696 6.82701C3.91769 6.82701 3.87691 6.78305 3.86842 6.72509C3.83681 6.76636 3.81732 6.82195 3.81732 6.8833C3.81732 7.01048 3.90054 7.11354 4.0032 7.11354C4.10583 7.11354 4.18909 7.01048 4.18909 6.8833C4.18909 6.7817 4.13589 6.69556 4.06212 6.66504Z" fill="#474746"/>
<path d="M6.24438 7.04894C6.24438 7.32243 6.06847 7.54413 5.85142 7.54413C5.63441 7.54413 5.45849 7.32243 5.45849 7.04894C5.45849 6.77537 5.63441 6.55371 5.85142 6.55371C6.06847 6.55371 6.24438 6.77541 6.24438 7.04894Z" fill="#CDE9EE"/>
<path d="M6.23218 6.91627C6.23218 7.18553 6.059 7.40384 5.84529 7.40384C5.63161 7.40384 5.45843 7.18553 5.45843 6.91627C5.45843 6.64697 5.63161 6.42871 5.84529 6.42871C6.059 6.42871 6.23218 6.64697 6.23218 6.91627Z" fill="white"/>
<path d="M5.87556 6.66504C5.87888 6.67734 5.88063 6.69001 5.88076 6.70275C5.88076 6.77142 5.83586 6.82701 5.78043 6.82701C5.7312 6.82701 5.69039 6.78305 5.68189 6.72509C5.65029 6.76636 5.6308 6.82195 5.6308 6.8833C5.6308 7.01048 5.71405 7.11354 5.81668 7.11354C5.91935 7.11354 6.00256 7.01048 6.00256 6.8833C6.00256 6.7817 5.94936 6.69556 5.87556 6.66504Z" fill="#474746"/>
<path d="M2.94268 7.43697C2.96733 7.5109 3.05106 7.5305 3.28959 7.5764L3.30587 7.57956C3.53955 7.62424 3.95737 7.61839 4.18625 7.5851C4.19576 7.58376 4.20525 7.58231 4.21472 7.58075C4.42684 7.54501 4.45098 7.51766 4.51923 7.40819C4.58966 7.29489 4.63297 6.96218 4.64095 6.89659L4.64135 6.89327C4.64981 6.82393 4.65402 6.78922 4.56457 6.74937C4.44427 6.6956 3.91021 6.62057 3.69141 6.61077C3.51863 6.60318 3.15242 6.62713 2.985 6.65148C2.95872 6.65536 2.9393 6.65888 2.92727 6.66204C2.90798 6.66714 2.83707 6.70149 2.84069 6.77657C2.84537 6.87556 2.90933 7.33711 2.94268 7.43697ZM5.27177 6.89327L5.27217 6.89659C5.28015 6.96222 5.32347 7.29489 5.39394 7.40815C5.46214 7.51766 5.48628 7.54501 5.69845 7.58071C5.70746 7.58225 5.71699 7.58368 5.72691 7.58506C5.95571 7.61839 6.37357 7.6242 6.6073 7.57952L6.62353 7.5764C6.86206 7.5305 6.94579 7.51086 6.97045 7.43697C7.0038 7.33711 7.06776 6.8756 7.07248 6.77657C7.07605 6.70145 7.00515 6.66714 6.98585 6.66204C6.97386 6.65888 6.95441 6.65532 6.92816 6.65148C6.7607 6.62713 6.39454 6.60318 6.22175 6.61077C6.00292 6.62057 5.46889 6.6956 5.3486 6.74933C5.25911 6.78922 5.26332 6.82393 5.27177 6.89327ZM2.63638 6.45382C2.81158 6.42832 3.11741 6.39942 3.48449 6.41804C3.96218 6.44255 4.37146 6.50857 4.61598 6.54799C4.68895 6.55977 4.74632 6.56906 4.79007 6.57487L4.8378 6.58127C4.89143 6.58863 4.92661 6.59329 4.95658 6.59475C4.98652 6.59329 5.02169 6.58863 5.07529 6.58131L5.12309 6.57483C5.1668 6.56906 5.22417 6.55981 5.29718 6.54799C5.54167 6.50857 5.95095 6.44251 6.42868 6.41804C6.79572 6.39942 7.10154 6.42832 7.27674 6.45382C7.27674 6.45382 7.46374 6.47754 7.62366 6.54486L7.59317 6.74727C7.59317 6.74727 7.4242 6.70719 7.25916 6.68525C7.22851 6.97068 7.1688 7.33735 7.1688 7.33735L7.16784 7.34873C7.16332 7.36723 7.15911 7.38518 7.15454 7.40475C7.12052 7.54893 7.08677 7.63373 6.95095 7.68456C6.81756 7.73469 6.50201 7.78114 6.18372 7.79747C6.06537 7.80356 5.93102 7.79628 5.79516 7.7766C5.59367 7.74734 5.4114 7.6933 5.34177 7.64203C5.24045 7.56747 5.18626 7.37984 5.15041 7.25567L5.13965 7.2191C5.12694 7.17676 5.11594 7.13233 5.1053 7.0892C5.08998 7.02729 5.07422 6.96332 5.06068 6.94122C5.05826 6.93739 5.0469 6.92403 5.0026 6.91754C4.9889 6.91557 4.9735 6.91454 4.95654 6.91434C4.93963 6.91454 4.92423 6.91561 4.91049 6.91754C4.86626 6.92403 4.85491 6.93739 4.85245 6.94126C4.83895 6.96332 4.82315 7.02729 4.80786 7.0892C4.79718 7.13229 4.78618 7.17676 4.77348 7.2191L4.76276 7.25567C4.72687 7.3798 4.67264 7.56747 4.57136 7.64203C4.50172 7.6933 4.31949 7.7473 4.11797 7.7766C3.98215 7.79628 3.84776 7.80356 3.72945 7.79747C3.41112 7.78114 3.09557 7.73469 2.96217 7.68456C2.82639 7.63373 2.79265 7.54897 2.75858 7.40475C2.75402 7.38518 2.74985 7.36719 2.74528 7.34873L2.74433 7.33735C2.74433 7.33735 2.68466 6.97064 2.65397 6.68525C2.48893 6.70719 2.31996 6.74727 2.31996 6.74727L2.28947 6.54486C2.44939 6.4775 2.63638 6.45382 2.63638 6.45382Z" fill="#545352"/>
<path d="M5.73013 5.94124C5.73013 5.94124 6.16717 5.73369 6.41733 6.11906C6.41733 6.11906 6.44313 5.73583 6.09019 5.69301C5.73724 5.65012 5.73013 5.94124 5.73013 5.94124ZM5.89406 5.37813C5.89406 5.37813 6.29922 5.18774 6.48379 5.55366C6.48379 5.55366 6.5441 5.23396 6.25495 5.15679C5.9658 5.07962 5.89406 5.37813 5.89406 5.37813ZM4.16462 6.17619C4.16462 6.17619 3.82521 6.01501 3.63095 6.31432C3.63095 6.31432 3.6109 6.01671 3.885 5.98342C4.15914 5.95014 4.16462 6.17619 4.16462 6.17619ZM3.92327 5.64316C3.92327 5.64316 3.57985 5.58778 3.52102 5.90033C3.52102 5.90033 3.40703 5.67467 3.60614 5.5552C3.80528 5.43569 3.92327 5.64312 3.92327 5.64312" fill="#A0D1DE"/>
<path d="M5.76057 8.97756C5.76057 8.97756 5.52077 8.81705 5.37924 8.79499C5.37924 8.79499 5.34835 9.09778 5.20769 9.24698C5.20769 9.24698 4.90413 8.97455 4.60395 8.95518C4.60395 8.95518 4.52645 9.12122 4.40067 9.18278L4.40135 9.18471C4.35597 9.21294 4.30035 9.24148 4.24647 9.25338C4.24647 9.25338 4.07417 9.14957 4.02434 8.95997C4.02434 8.95997 4.00775 9.36024 4.26009 9.57842C4.26009 9.57842 4.45248 9.48493 4.59112 9.33525C4.63277 9.29489 4.67608 9.24789 4.69705 9.20974C4.69705 9.20974 5.14226 9.52335 5.1585 9.70216C5.1585 9.70216 5.47988 9.39021 5.58946 9.1498C5.58946 9.1498 5.80393 9.21721 5.8634 9.26066C5.8634 9.26066 6.03578 8.97993 6.0708 8.72656C6.0708 8.72656 5.86348 8.92375 5.76057 8.97756Z" fill="#B2DCE5"/>
<path d="M4.95129 8.19039C4.96908 8.18659 4.49977 8.22273 4.03891 8.2064C4.03891 8.2064 4.01429 8.11887 3.97896 8.0708C3.97896 8.0708 3.98662 8.2181 3.94521 8.2483C3.94521 8.2483 4.17584 8.33868 4.40841 8.33801C4.40841 8.33801 4.155 8.2959 4.07 8.25234C4.07 8.25234 4.53244 8.27795 4.95129 8.19039Z" fill="#545352"/>
</svg>
