<svg width="14" height="15" viewBox="0 0 14 15" fill="none" xmlns="http://www.w3.org/2000/svg">
<path d="M13.7638 4.40994C13.7637 4.15772 13.7081 3.93486 13.5956 3.74363C13.4851 3.55549 13.3196 3.39784 13.0976 3.2732C11.2651 2.24873 9.43092 1.22739 7.59907 0.201871C7.10522 -0.0745734 6.62639 -0.0644431 6.13619 0.215969C5.40683 0.632985 1.75515 2.66151 0.667001 3.27262C0.218869 3.52421 0.000807833 3.90916 0.000700122 4.40947C0 6.46974 0.000700122 8.53002 0 10.5903C0 10.837 0.0533708 11.0556 0.16092 11.2439C0.271486 11.4377 0.4393 11.5997 0.666409 11.7271C1.75461 12.3382 5.40677 14.3666 6.13598 14.7838C6.62639 15.0644 7.10522 15.0744 7.59923 14.7979C9.43113 13.7723 11.2655 12.751 13.0982 11.7265C13.3253 11.5991 13.4931 11.437 13.6036 11.2434C13.711 11.055 13.7645 10.8365 13.7645 10.5897C13.7645 10.5897 13.7645 6.47027 13.7638 4.40994Z" fill="#A179DC"/>
<path d="M6.90328 7.47998L0.160889 11.2441C0.271454 11.4379 0.439268 11.5999 0.666377 11.7273C1.75458 12.3384 5.40674 14.3668 6.13595 14.784C6.62636 15.0645 7.10518 15.0746 7.5992 14.7981C9.4311 13.7725 11.2654 12.7512 13.0981 11.7267C13.3252 11.5993 13.493 11.4372 13.6036 11.2436L6.90328 7.47998Z" fill="#280068"/>
<path d="M13.7638 4.40996C13.7637 4.15774 13.7081 3.93488 13.5956 3.74365L6.90332 7.47988L13.6037 11.2434C13.711 11.055 13.7644 10.8365 13.7645 10.5897C13.7645 10.5897 13.7645 6.47029 13.7638 4.40996Z" fill="#390091"/>
<path d="M10.873 6.07275V6.77634H11.5986V6.07275H11.9614V6.77634H12.6871V7.12814H11.9614V7.83168H12.6871V8.18347H11.9614V8.88706H11.5986V8.18347H10.873V8.88706H10.5101V8.18347H9.78455V7.83168H10.5101V7.12814H9.78455V6.77634H10.5101V6.07275H10.873ZM11.5986 7.12809H10.873V7.83168H11.5986V7.12809Z" fill="white"/>
<path d="M6.91809 2.53911C8.81079 2.53911 10.4632 3.53575 11.3484 5.01719L11.3397 5.00293L9.11281 6.24615C8.6741 5.5259 7.86983 5.0398 6.94712 5.02977L6.91804 5.02962C5.51106 5.02962 4.3704 6.1356 4.3704 7.49981C4.36994 7.92979 4.48579 8.35237 4.7064 8.72537C5.14554 9.4687 5.97109 9.97005 6.91809 9.97005C7.87096 9.97005 8.70119 9.46233 9.13807 8.71106L9.12746 8.72908L11.351 9.97804C10.4756 11.4469 8.84574 12.4405 6.97507 12.4603L6.91809 12.4606C5.01941 12.4606 3.36228 11.4578 2.47937 9.96853C2.04836 9.2415 1.80176 8.39864 1.80176 7.49981C1.80176 4.76012 4.09234 2.53906 6.91804 2.53906L6.91809 2.53911Z" fill="white"/>
</svg>
