<svg width="15" height="15" viewBox="0 0 15 15" fill="none" xmlns="http://www.w3.org/2000/svg">
<path d="M9.99991 7.49997C9.35742 7.49997 8.73617 7.2131 8.24992 6.69248C7.77711 6.18467 7.48836 5.50748 7.43743 4.78624C7.38305 4.01686 7.61774 3.30937 8.09805 2.79375C8.57836 2.27812 9.24992 2 9.99991 2C10.7446 2 11.418 2.28312 11.8968 2.7975C12.3802 3.31687 12.6155 4.02311 12.5611 4.78592C12.509 5.50811 12.2205 6.18498 11.7487 6.69216C11.2637 7.2131 10.6427 7.49997 9.99991 7.49997ZM14.1196 12.9999H5.88056C5.74809 13.0007 5.61723 12.971 5.49804 12.9132C5.37886 12.8553 5.27452 12.771 5.19306 12.6665C5.10666 12.5533 5.04699 12.4219 5.01852 12.2824C4.99006 12.1428 4.99353 11.9986 5.02869 11.8606C5.29181 10.804 5.94368 9.92777 6.91368 9.32684C7.77461 8.79371 8.87054 8.49997 9.99991 8.49997C11.1515 8.49997 12.2187 8.78121 13.0846 9.31402C14.0568 9.91183 14.7096 10.7931 14.9714 11.8624C15.0062 12.0006 15.0093 12.1448 14.9805 12.2843C14.9517 12.4238 14.8918 12.555 14.8052 12.6681C14.7238 12.772 14.6197 12.856 14.5009 12.9135C14.382 12.9711 14.2516 13.0006 14.1196 12.9999ZM4.09369 7.62497C2.99401 7.62497 2.02714 6.60248 1.93745 5.34592C1.89308 4.70217 2.0937 4.10686 2.49995 3.6703C2.90182 3.23812 3.4687 2.99999 4.09369 2.99999C4.71869 2.99999 5.28119 3.23937 5.68525 3.67405C6.09462 4.11405 6.29462 4.70811 6.24774 5.34655C6.15806 6.60279 5.1915 7.62497 4.09369 7.62497ZM6.14556 8.60778C5.59587 8.33903 4.88244 8.20465 4.09401 8.20465C3.17339 8.20465 2.27933 8.44465 1.57621 8.88028C0.779023 9.37496 0.242776 10.0953 0.0262143 10.965C-0.00547766 11.09 -0.00847517 11.2207 0.017446 11.3471C0.0433673 11.4735 0.0975362 11.5924 0.175901 11.6949C0.250259 11.7904 0.34552 11.8675 0.454358 11.9204C0.563195 11.9733 0.68271 12.0005 0.80371 11.9999H4.27244C4.33099 11.9999 4.38768 11.9794 4.43262 11.9419C4.47756 11.9043 4.50791 11.8522 4.51838 11.7946C4.52182 11.7749 4.52619 11.7553 4.53119 11.7359C4.79619 10.6715 5.41712 9.77215 6.33462 9.11653C6.36836 9.0922 6.39551 9.05984 6.41359 9.02237C6.43167 8.98491 6.44011 8.94353 6.43816 8.90197C6.4362 8.86042 6.42391 8.82001 6.40239 8.78441C6.38087 8.74881 6.35081 8.71914 6.31493 8.69809C6.26587 8.66934 6.20962 8.63903 6.14556 8.60778Z" fill="#EAEAEA"/>
</svg>
