<svg width="15" height="15" viewBox="0 0 15 15" fill="none" xmlns="http://www.w3.org/2000/svg">
<path d="M14.9642 8.98533C14.874 8.72047 14.6378 8.53601 14.3323 8.49174C14.1883 8.47089 14.0233 8.47978 13.8281 8.5188C13.4878 8.58688 13.2353 8.6128 13.0511 8.61781C13.7465 7.47928 14.312 6.18094 14.6375 4.95877C15.1639 2.98256 14.8826 2.08227 14.5539 1.67505C13.684 0.597185 12.4148 0.0181465 10.8837 0.000428963C10.0669 -0.00925586 9.34985 0.147126 8.97579 0.259583C8.62752 0.199993 8.25305 0.166723 7.86013 0.16057C7.12358 0.149176 6.47281 0.304874 5.91674 0.624872C5.60889 0.523922 5.11481 0.381612 4.54423 0.290803C3.20226 0.0771669 2.12068 0.243632 1.32955 0.785583C0.371578 1.44176 -0.0725121 2.58183 0.00962022 4.17413C0.0357052 4.67968 0.32734 6.21786 0.786528 7.67662C1.05043 8.5151 1.33184 9.21138 1.62295 9.74632C2.03579 10.5049 2.47753 10.9516 2.97343 11.112C3.25138 11.2018 3.75639 11.2647 4.28755 10.8357C4.35488 10.9148 4.44471 10.9933 4.56391 11.0663C4.71531 11.1589 4.90043 11.2345 5.08531 11.2794C5.7516 11.4409 6.3757 11.4005 6.90815 11.1741C6.91144 11.2659 6.91396 11.3537 6.91608 11.4294C6.9196 11.5523 6.92313 11.6728 6.92777 11.7855C6.95932 12.5474 7.01278 13.1398 7.17117 13.5543C7.17986 13.5771 7.19156 13.6119 7.20389 13.6487C7.28291 13.8833 7.41504 14.2761 7.75121 14.5837C8.0993 14.9023 8.52036 15 8.90599 15C9.0994 15 9.28393 14.9754 9.44579 14.9418C10.0227 14.8219 10.6779 14.6392 11.1519 13.9847C11.6001 13.3661 11.8179 12.4342 11.8574 10.9659C11.8625 10.9244 11.8672 10.8847 11.8717 10.847L11.8811 10.7694L11.9867 10.7784L12.0139 10.7802C12.6015 10.8061 13.32 10.6853 13.7613 10.4865C14.1099 10.3296 15.2273 9.7576 14.9642 8.98533Z" fill="black"/>
<path d="M13.9594 9.13563C12.2122 9.48514 12.092 8.91151 12.092 8.91151C13.9368 6.25713 14.708 2.88778 14.0425 2.06314C12.2269 -0.186299 9.08408 0.877551 9.03161 0.905124L9.01475 0.908086C8.66954 0.838583 8.28326 0.797224 7.84904 0.79033C7.0585 0.777797 6.45878 0.991319 6.0037 1.32596C6.0037 1.32596 0.397203 -0.913743 0.657994 4.14276C0.713454 5.21846 2.248 12.2822 4.07829 10.1486C4.74728 9.36841 5.3937 8.70876 5.3937 8.70876C5.71471 8.91556 6.09905 9.02107 6.50196 8.98318L6.53327 8.95743C6.52352 9.05428 6.52799 9.14902 6.54579 9.26119C6.07426 9.77204 6.21285 9.86171 5.27027 10.0499C4.31647 10.2405 4.87676 10.5798 5.2426 10.6686C5.6861 10.7761 6.71211 10.9284 7.40536 9.98733L7.37774 10.0947C7.56245 10.2382 7.69217 11.028 7.67044 11.7441C7.6487 12.4601 7.63419 12.9517 7.77971 13.3357C7.92535 13.7196 8.0704 14.5836 9.30956 14.3261C10.3449 14.111 10.8815 13.5534 10.9561 12.6233C11.0091 11.9621 11.129 12.0599 11.1365 11.4687L11.2327 11.1889C11.3435 10.2926 11.2503 10.0034 11.8881 10.1379L12.0432 10.1511C12.5127 10.1718 13.1272 10.0779 13.4878 9.91532C14.2644 9.56586 14.725 8.98233 13.9593 9.13563H13.9594Z" fill="#336791"/>
<path d="M6.33185 4.62416C6.1744 4.60291 6.03181 4.62256 5.95967 4.67554C5.91913 4.70534 5.90656 4.73986 5.90315 4.76362C5.8941 4.82657 5.93957 4.89619 5.96754 4.93208C6.04662 5.03371 6.16212 5.10356 6.27645 5.11894C6.29301 5.12122 6.30952 5.12224 6.32591 5.12224C6.51656 5.12224 6.68993 4.97828 6.7052 4.87203C6.7243 4.73895 6.52507 4.65019 6.33185 4.62416ZM11.5479 4.62837C11.5329 4.52406 11.3414 4.49432 11.1598 4.51882C10.9784 4.54332 10.8025 4.62273 10.8172 4.72727C10.8289 4.80857 10.9803 4.94734 11.1595 4.94734C11.1747 4.94734 11.1899 4.94638 11.2053 4.94427C11.3249 4.9282 11.4127 4.85454 11.4544 4.8121C11.5179 4.74738 11.5546 4.67526 11.5479 4.62837Z" fill="white"/>
<path d="M14.5409 9.09578C14.4742 8.90043 14.2598 8.83759 13.9035 8.90892C12.8458 9.12062 12.4669 8.97398 12.3426 8.88516C13.1648 7.67057 13.8412 6.20235 14.2061 4.83252C14.3789 4.18363 14.4744 3.58101 14.4822 3.08982C14.4908 2.55072 14.3961 2.15455 14.2008 1.91254C13.4135 0.936939 12.2578 0.413617 10.859 0.399261C9.89734 0.388778 9.08483 0.627424 8.92732 0.694534C8.59562 0.614549 8.23401 0.565441 7.84033 0.559174C7.11841 0.547837 6.49437 0.715442 5.97772 1.05709C5.7533 0.976077 5.17332 0.783008 4.46403 0.672202C3.23781 0.480784 2.26338 0.625829 1.56802 1.10352C0.738295 1.67356 0.355246 2.69251 0.429447 4.13202C0.454415 4.61632 0.739 6.10619 1.18808 7.53299C1.77922 9.41093 2.42183 10.474 3.09792 10.6927C3.17706 10.7183 3.2683 10.7362 3.36894 10.7362C3.61557 10.7362 3.91795 10.6284 4.23256 10.2617C4.61629 9.81528 5.01323 9.37973 5.42289 8.95558C5.68867 9.0939 5.98066 9.17115 6.27929 9.1789C6.27987 9.18647 6.28064 9.19405 6.28134 9.20157C6.22994 9.26101 6.1796 9.32131 6.13036 9.38245C5.92344 9.63716 5.88038 9.6902 5.21433 9.82317C5.02486 9.86111 4.52167 9.96166 4.51427 10.3037C4.50628 10.6774 5.10911 10.8344 5.17779 10.851C5.41713 10.9091 5.64773 10.9378 5.86763 10.9378C6.40243 10.9378 6.87307 10.7673 7.24919 10.4375C7.23761 11.7698 7.2949 13.0826 7.45987 13.4826C7.59499 13.8101 7.92505 14.6103 8.96762 14.6103C9.12061 14.6103 9.28898 14.593 9.47422 14.5545C10.5623 14.3283 11.0349 13.862 11.2176 12.8338C11.3154 12.2844 11.4833 10.9723 11.5622 10.2685C11.7289 10.3189 11.9434 10.342 12.1752 10.3419C12.6589 10.3419 13.2169 10.2423 13.5669 10.0848C13.9601 9.90771 14.6695 9.47326 14.5409 9.09578ZM11.9496 4.33996C11.9461 4.54773 11.9166 4.73635 11.8853 4.93324C11.8517 5.145 11.8169 5.36393 11.8081 5.62969C11.7995 5.88833 11.8328 6.15723 11.865 6.4173C11.9301 6.94256 11.9969 7.48331 11.7383 8.01689C11.6954 7.94309 11.6571 7.86682 11.6238 7.7885C11.5916 7.71296 11.5218 7.59161 11.4252 7.42366C11.0492 6.76988 10.1689 5.23888 10.6195 4.61415C10.7538 4.4282 11.0945 4.23701 11.9496 4.33996ZM10.9131 0.819981C12.1664 0.846813 13.1579 1.30149 13.8598 2.1713C14.3982 2.83847 13.8054 5.87421 12.0891 8.49315C12.0719 8.47187 12.0545 8.45066 12.0371 8.42952L12.0153 8.4032C12.4588 7.69296 12.3721 6.99024 12.2949 6.36722C12.2632 6.11154 12.2332 5.87005 12.2409 5.64319C12.2487 5.40278 12.2815 5.19655 12.3132 4.99716C12.3522 4.75145 12.3919 4.49719 12.3809 4.19748C12.3891 4.16603 12.3924 4.12889 12.3881 4.08479C12.3602 3.79738 12.0218 2.9372 11.3321 2.15865C10.9548 1.7328 10.4046 1.25625 9.65335 0.934831C9.97647 0.869886 10.4183 0.809328 10.9131 0.819981ZM3.89962 9.99322C3.553 10.3974 3.31365 10.3199 3.23493 10.2945C2.72204 10.1286 2.12691 9.07738 1.60221 7.41045C1.14819 5.96809 0.882878 4.5177 0.861846 4.111C0.795576 2.82474 1.11711 1.92832 1.81759 1.44659C2.95757 0.662688 4.83181 1.13189 5.58492 1.36985C5.57411 1.38022 5.56283 1.3899 5.55214 1.40044C4.31628 2.61071 4.34559 4.67847 4.34865 4.80489C4.34853 4.85365 4.35276 4.9227 4.35852 5.01767C4.37979 5.36547 4.41938 6.01276 4.31363 6.74578C4.2154 7.42697 4.43196 8.09368 4.90765 8.57502C4.95647 8.62432 5.00779 8.67125 5.0614 8.71562C4.84967 8.93552 4.38948 9.42181 3.89962 9.99322ZM5.22026 8.28453C4.83686 7.89657 4.66273 7.35695 4.74245 6.80389C4.85407 6.02956 4.81289 5.35516 4.79074 4.99283C4.78763 4.94213 4.78487 4.89769 4.78328 4.86265C4.96382 4.70741 5.80048 4.27273 6.39714 4.4053C6.66939 4.46575 6.8353 4.64554 6.90427 4.95477C7.26123 6.55579 6.9515 7.22307 6.70264 7.75933C6.65135 7.86979 6.60288 7.97422 6.56152 8.08223L6.52944 8.16575C6.44825 8.37688 6.3727 8.5732 6.32588 8.7596C5.91827 8.75846 5.52177 8.5896 5.22026 8.28447M5.28283 10.4436C5.1638 10.4148 5.05676 10.3647 4.99396 10.3232C5.04642 10.2993 5.13977 10.2667 5.30169 10.2343C6.08524 10.0779 6.20626 9.96753 6.47052 9.64217C6.53109 9.56754 6.59977 9.483 6.69488 9.38L6.695 9.37988C6.83665 9.22607 6.90145 9.25216 7.01895 9.29944C7.11418 9.33761 7.20695 9.45338 7.24455 9.58076C7.26235 9.64092 7.28232 9.75509 7.21693 9.84396C6.66492 10.5935 5.86052 10.5838 5.28283 10.4436ZM9.38351 14.1439C8.42495 14.3431 8.08555 13.8688 7.86189 13.3266C7.71754 12.9766 7.64657 11.3982 7.69692 9.65511C7.69757 9.63192 7.69416 9.60953 7.68758 9.58845C7.68169 9.54683 7.67274 9.50567 7.66079 9.46528C7.58594 9.21165 7.40352 8.9995 7.18468 8.91154C7.09773 8.87662 6.93817 8.81253 6.74641 8.86009C6.7873 8.69671 6.85821 8.51218 6.93511 8.31239L6.96737 8.22836C7.00367 8.13362 7.04926 8.03546 7.09744 7.93155C7.35788 7.37051 7.71455 6.60205 7.32744 4.86602C7.18245 4.21577 6.69823 3.89822 5.96421 3.97199C5.52418 4.01614 5.12156 4.18831 4.92076 4.28703C4.87757 4.30823 4.83809 4.32874 4.8012 4.34868C4.85725 3.69353 5.06898 2.46914 5.86105 1.69446C6.35977 1.2068 7.02394 0.965937 7.83316 0.978926C9.42763 1.00422 10.4501 1.79769 11.0272 2.45894C11.5244 3.02869 11.7937 3.60266 11.9011 3.91223C11.093 3.83253 10.5434 3.9872 10.2648 4.37346C9.6587 5.21364 10.5964 6.84434 11.0471 7.62807C11.1297 7.77169 11.2011 7.89583 11.2235 7.94858C11.3703 8.29348 11.5603 8.52375 11.699 8.69181C11.7415 8.74331 11.7827 8.79327 11.8141 8.83691C11.5694 8.90533 11.1297 9.06342 11.1698 9.85364C11.1375 10.2502 10.9077 12.1066 10.791 12.7625C10.6369 13.629 10.3081 13.9516 9.38351 14.1439ZM13.3846 9.70399C13.1343 9.81661 12.7155 9.9011 12.3177 9.91927C11.8782 9.93921 11.6545 9.87153 11.6018 9.82989C11.5772 9.33744 11.7662 9.286 11.9662 9.23154C11.9976 9.22299 12.0283 9.21462 12.0579 9.20459C12.0763 9.21912 12.0965 9.23353 12.1186 9.24766C12.4718 9.47371 13.1017 9.4981 13.9911 9.32007L14.0009 9.31819C13.8809 9.42694 13.6757 9.5729 13.3846 9.70399Z" fill="white"/>
</svg>
