<svg width="13" height="15" viewBox="0 0 13 15" fill="none" xmlns="http://www.w3.org/2000/svg">
<path d="M4.29117 0.769231V0H8.45883V0.769231H4.29117ZM5.97656 9.31923H6.77344V5.29615H5.97656V9.31923ZM6.375 15C5.49419 15 4.6673 14.8395 3.89433 14.5185C3.12189 14.1974 2.44587 13.7574 1.86628 13.1985C1.28722 12.6395 0.831406 11.9869 0.498844 11.2408C0.166281 10.4946 0 9.69641 0 8.84615C0 7.9959 0.166281 7.19769 0.498844 6.45154C0.831406 5.7059 1.28722 5.05333 1.86628 4.49385C2.44534 3.93487 3.12162 3.49487 3.89512 3.17385C4.66756 2.85282 5.49419 2.69231 6.375 2.69231C7.14744 2.69231 7.89438 2.82564 8.61581 3.09231C9.33672 3.35795 9.99866 3.73436 10.6016 4.22154L11.4718 3.38154L12.036 3.92615L11.1658 4.76615C11.6705 5.34821 12.0607 5.98718 12.3364 6.68308C12.6121 7.37949 12.75 8.10051 12.75 8.84615C12.75 9.69641 12.5837 10.4946 12.2512 11.2408C11.9186 11.9864 11.4628 12.639 10.8837 13.1985C10.3047 13.7574 9.62864 14.1974 8.85567 14.5185C8.0827 14.8395 7.25581 15 6.375 15Z" fill="currentColor"/>
</svg>
