<svg width="10" height="15" viewBox="0 0 10 15" fill="none" xmlns="http://www.w3.org/2000/svg">
<path d="M2.50001 15C3.16305 15 3.79894 14.7366 4.26778 14.2678C4.73662 13.7989 5.00001 13.163 5.00001 12.5V10H2.50001C1.83696 10 1.20108 10.2634 0.732235 10.7322C0.263393 11.2011 0 11.837 0 12.5C0 13.163 0.263393 13.7989 0.732235 14.2678C1.20108 14.7366 1.83696 15 2.50001 15Z" fill="#0ACF83"/>
<path d="M0 7.50001C0 6.83696 0.263393 6.20108 0.732235 5.73224C1.20108 5.26339 1.83696 5 2.50001 5H5.00001V10H2.50001C1.83696 10 1.20108 9.73662 0.732235 9.26778C0.263393 8.79894 0 8.16305 0 7.50001Z" fill="#A259FF"/>
<path d="M0 2.50001C-2.02241e-07 1.8373 0.263125 1.20171 0.731544 0.732925C1.19996 0.264139 1.83535 0.000517738 2.49805 0L4.99806 0V5.00001H2.50001C1.83696 5.00001 1.20108 4.73662 0.732235 4.26778C0.263393 3.79894 0 3.16305 0 2.50001Z" fill="#F24E1E"/>
<path d="M5 0H7.50001C8.16305 0 8.79894 0.263393 9.26778 0.732235C9.73662 1.20108 10 1.83696 10 2.50001C10 3.16305 9.73662 3.79894 9.26778 4.26778C8.79894 4.73662 8.16305 5.00001 7.50001 5.00001H5V0Z" fill="#FF7262"/>
<path d="M10 7.50001C10 8.16305 9.73662 8.79894 9.26778 9.26778C8.79894 9.73662 8.16305 10 7.50001 10C6.83696 10 6.20108 9.73662 5.73224 9.26778C5.26339 8.79894 5 8.16305 5 7.50001C5 6.83696 5.26339 6.20108 5.73224 5.73224C6.20108 5.26339 6.83696 5 7.50001 5C8.16305 5 8.79894 5.26339 9.26778 5.73224C9.73662 6.20108 10 6.83696 10 7.50001Z" fill="#1ABCFE"/>
</svg>
