<svg width="19" height="15" viewBox="0 0 19 15" fill="none" xmlns="http://www.w3.org/2000/svg">
<path d="M18.75 1.76471C18.0599 2.07353 17.316 2.27647 16.5452 2.37353C17.3339 1.90588 17.9434 1.16471 18.2302 0.273529C17.4863 0.714706 16.6617 1.02353 15.7923 1.2C15.0842 0.441177 14.0894 0 12.9601 0C10.8538 0 9.13301 1.69412 9.13301 3.78529C9.13301 4.08529 9.16886 4.37647 9.2316 4.65C6.04087 4.49118 3.19969 2.98235 1.30856 0.697059C0.976936 1.25294 0.788719 1.90588 0.788719 2.59412C0.788719 3.90882 1.46092 5.07353 2.5006 5.73529C1.86424 5.73529 1.27271 5.55882 0.752868 5.29412V5.32059C0.752868 7.15588 2.07935 8.69118 3.83604 9.03529C3.27204 9.18724 2.67994 9.20839 2.10624 9.09706C2.34967 9.84925 2.82643 10.5074 3.46948 10.9791C4.11254 11.4507 4.88956 11.7121 5.69132 11.7265C4.33225 12.7857 2.64758 13.3582 0.914197 13.35C0.609465 13.35 0.304732 13.3324 0 13.2971C1.70292 14.3735 3.72849 15 5.89747 15C12.9601 15 16.8409 9.22941 16.8409 4.22647C16.8409 4.05882 16.8409 3.9 16.832 3.73235C17.5848 3.20294 18.2302 2.53235 18.75 1.76471Z" fill="#EAEAEA"/>
</svg>
