<svg width="20" height="20" viewBox="0 0 20 20" fill="none" xmlns="http://www.w3.org/2000/svg">
<path d="M2.10063 11.4922V9.77125H4.24928V9.67059H2.10063V8.10063H4.38512V8H2V11.5928H4.40523V11.4922H2.10063ZM6.34256 9.00637L5.45192 10.1788L4.58137 9.0064H4.45054L5.39152 10.2543L4.35993 11.5928H4.48071L5.45186 10.3297L6.42806 11.5928H6.55385L5.51728 10.2543L6.46328 9.00634L6.34256 9.00637ZM6.8558 12.4784V10.8682H6.86586C6.92626 11.103 7.04535 11.2917 7.22314 11.4343C7.40094 11.5769 7.62736 11.6482 7.90243 11.6482C8.08022 11.6482 8.23791 11.6121 8.37544 11.54C8.51298 11.4679 8.62787 11.3697 8.72013 11.2456C8.81237 11.1215 8.88283 10.9772 8.93148 10.8129C8.9801 10.6485 9.00445 10.4757 9.00445 10.2946C9.00445 10.1 8.97926 9.92053 8.92894 9.75618C8.87863 9.59179 8.80566 9.44921 8.71007 9.32847C8.61446 9.20769 8.49872 9.11374 8.36285 9.04669C8.227 8.97958 8.07352 8.94603 7.90243 8.94603C7.7716 8.94603 7.65001 8.96533 7.53763 9.00389C7.42525 9.04249 7.32546 9.09697 7.23824 9.16743C7.15051 9.23843 7.07414 9.32243 7.01179 9.4165C6.94807 9.51212 6.89941 9.61695 6.86586 9.73102H6.8558V9.00637H6.75517V12.4784H6.8558ZM7.90243 11.5525C7.58713 11.5525 7.33383 11.4443 7.14262 11.228C6.95142 11.0116 6.8558 10.7005 6.8558 10.2945C6.8558 10.1268 6.8793 9.96747 6.92626 9.81652C6.97322 9.66557 7.04115 9.53305 7.13003 9.41901C7.21894 9.30494 7.32882 9.21437 7.45962 9.14729C7.59045 9.08018 7.73807 9.04663 7.90243 9.04663C8.07017 9.04663 8.21695 9.08018 8.34273 9.14729C8.46852 9.21437 8.57254 9.30579 8.65471 9.42152C8.73689 9.53725 8.79896 9.66977 8.84091 9.81903C8.88283 9.96831 8.90379 10.1268 8.90379 10.2945C8.90379 10.4455 8.88452 10.5957 8.84592 10.7449C8.80735 10.8942 8.7478 11.0284 8.66728 11.1475C8.58679 11.2665 8.48365 11.3638 8.35784 11.4393C8.23202 11.5148 8.08022 11.5525 7.90243 11.5525ZM9.55795 11.5928V10.1285C9.55795 9.98761 9.57806 9.85004 9.61835 9.71589C9.65858 9.5817 9.72064 9.46344 9.80451 9.36114C9.88838 9.25882 9.99487 9.17831 10.124 9.11959C10.2532 9.06088 10.4067 9.03657 10.5845 9.04663V8.946C10.4301 8.94267 10.2951 8.95941 10.1794 8.99631C10.0636 9.03322 9.96385 9.08353 9.87998 9.14729C9.79611 9.21101 9.72904 9.28564 9.67872 9.3712C9.62844 9.45663 9.59113 9.54904 9.568 9.64543H9.55795V9.00637H9.45732V11.5928L9.55795 11.5928ZM10.7102 10.3197H12.874C12.8807 10.1419 12.8631 9.97085 12.8211 9.80646C12.7792 9.64208 12.7121 9.49614 12.6199 9.36869C12.5276 9.24121 12.4085 9.13889 12.2626 9.06173C12.1167 8.98456 11.9431 8.946 11.7418 8.946C11.5975 8.946 11.4566 8.9762 11.3191 9.0366C11.1816 9.09697 11.0608 9.18501 10.9568 9.30074C10.8528 9.41647 10.769 9.55821 10.7052 9.72598C10.6415 9.89368 10.6096 10.0849 10.6096 10.2996C10.6096 10.4908 10.6314 10.6694 10.675 10.8355C10.7186 11.0015 10.7857 11.1458 10.8763 11.2682C10.9669 11.3907 11.0835 11.4854 11.226 11.5525C11.3686 11.6196 11.5405 11.6515 11.7418 11.6481C12.037 11.6481 12.2852 11.5651 12.4865 11.3991C12.6878 11.233 12.8069 10.999 12.8438 10.6971H12.7432C12.6995 10.9823 12.588 11.1961 12.4085 11.3387C12.229 11.4812 12.0035 11.5525 11.7317 11.5525C11.5472 11.5525 11.3912 11.5207 11.2637 11.4569C11.1363 11.3932 11.0323 11.306 10.9518 11.1953C10.8713 11.0846 10.8117 10.9546 10.7732 10.8053C10.7346 10.656 10.7136 10.4941 10.7102 10.3197ZM12.7733 10.2191H10.7103C10.7203 10.0379 10.7539 9.87523 10.8109 9.73099C10.8679 9.58672 10.9426 9.46344 11.0348 9.36114C11.1271 9.25882 11.2344 9.18084 11.3569 9.12714C11.4793 9.07348 11.611 9.04663 11.7519 9.04663C11.9196 9.04663 12.0672 9.07767 12.1947 9.13974C12.3221 9.2018 12.4286 9.28652 12.5142 9.39385C12.5997 9.50119 12.6643 9.62616 12.7079 9.76871C12.7515 9.91129 12.7733 10.0614 12.7733 10.2191ZM14.9622 9.77125H15.0629C15.0629 9.48273 14.979 9.27308 14.8113 9.14224C14.6435 9.01141 14.4154 8.946 14.1269 8.946C13.9659 8.946 13.83 8.96614 13.7193 9.0064C13.6086 9.04663 13.5181 9.09863 13.4476 9.16236C13.3772 9.22608 13.3269 9.29654 13.2967 9.37371C13.2665 9.45087 13.2514 9.52468 13.2514 9.59511C13.2514 9.736 13.2765 9.84838 13.3269 9.93225C13.3772 10.0161 13.456 10.0815 13.5633 10.1285C13.6372 10.162 13.721 10.1922 13.8149 10.2191C13.9089 10.2459 14.0179 10.2744 14.142 10.3046C14.2527 10.3315 14.3617 10.3583 14.4691 10.3851C14.5764 10.412 14.6712 10.448 14.7534 10.4933C14.8356 10.5386 14.9027 10.5965 14.9547 10.6669C15.0067 10.7374 15.0327 10.8296 15.0327 10.9437C15.0327 11.0544 15.0067 11.1483 14.9547 11.2254C14.9031 11.3022 14.8353 11.3666 14.7559 11.4142C14.6754 11.4628 14.5857 11.498 14.4867 11.5198C14.3877 11.5416 14.2913 11.5525 14.1974 11.5525C13.8921 11.5525 13.6581 11.4846 13.4954 11.3488C13.3327 11.2129 13.2514 10.999 13.2514 10.7072H13.1507C13.1507 11.0326 13.2388 11.2707 13.4149 11.4217C13.591 11.5727 13.8519 11.6481 14.1974 11.6481C14.3081 11.6481 14.4196 11.6355 14.532 11.6104C14.6444 11.5852 14.745 11.5442 14.8339 11.4871C14.922 11.4309 14.9961 11.3551 15.0503 11.2657C15.1056 11.1751 15.1333 11.0644 15.1333 10.9336C15.1333 10.8095 15.109 10.7088 15.0604 10.6317C15.0117 10.5546 14.948 10.4908 14.8691 10.4405C14.7903 10.3902 14.7014 10.3508 14.6024 10.3222C14.5029 10.2936 14.4031 10.2659 14.303 10.2392C14.1799 10.2069 14.0566 10.175 13.9332 10.1436C13.8275 10.1168 13.7294 10.0849 13.6388 10.048C13.5516 10.0111 13.482 9.95826 13.43 9.88949C13.378 9.82072 13.352 9.72259 13.352 9.59511C13.352 9.57165 13.3587 9.5297 13.3721 9.46933C13.3855 9.40892 13.4174 9.3477 13.4678 9.28564C13.5181 9.22361 13.5952 9.16825 13.6992 9.11959C13.8032 9.07097 13.9458 9.04663 14.1269 9.04663C14.2511 9.04663 14.3642 9.06007 14.4666 9.08689C14.5689 9.11373 14.657 9.1565 14.7307 9.21521C14.8046 9.27392 14.8616 9.34855 14.9018 9.43912C14.9421 9.52973 14.9622 9.64042 14.9622 9.77125ZM17.292 9.77125H17.3926C17.3926 9.48273 17.3088 9.27308 17.1411 9.14224C16.9733 9.01141 16.7452 8.946 16.4567 8.946C16.2957 8.946 16.1598 8.96614 16.0491 9.0064C15.9384 9.04663 15.8478 9.09863 15.7774 9.16236C15.7069 9.22608 15.6566 9.29654 15.6264 9.37371C15.5962 9.45087 15.5812 9.52468 15.5812 9.59511C15.5812 9.736 15.6063 9.84838 15.6567 9.93225C15.7069 10.0161 15.7858 10.0815 15.8931 10.1285C15.9669 10.162 16.0508 10.1922 16.1447 10.2191C16.2386 10.2459 16.3477 10.2744 16.4718 10.3046C16.5825 10.3315 16.6915 10.3583 16.7989 10.3851C16.9062 10.412 17.001 10.448 17.0832 10.4933C17.1654 10.5386 17.2325 10.5965 17.2844 10.6669C17.3365 10.7374 17.3625 10.8296 17.3625 10.9437C17.3625 11.0544 17.3365 11.1483 17.2844 11.2254C17.2329 11.3022 17.165 11.3666 17.0857 11.4142C17.0052 11.4628 16.9154 11.498 16.8165 11.5198C16.7175 11.5416 16.6211 11.5525 16.5271 11.5525C16.2219 11.5525 15.9879 11.4846 15.8252 11.3488C15.6625 11.2129 15.5812 10.999 15.5812 10.7072H15.4805C15.4805 11.0326 15.5686 11.2707 15.7447 11.4217C15.9208 11.5727 16.1816 11.6481 16.5271 11.6481C16.6379 11.6481 16.7494 11.6355 16.8618 11.6104C16.9741 11.5852 17.0748 11.5442 17.1637 11.4871C17.2518 11.4309 17.3259 11.3551 17.3801 11.2657C17.4354 11.1751 17.4631 11.0644 17.4631 10.9336C17.4631 10.8095 17.4388 10.7088 17.3901 10.6317C17.3415 10.5546 17.2778 10.4908 17.1989 10.4405C17.1201 10.3902 17.0312 10.3508 16.9322 10.3222C16.8327 10.2936 16.7329 10.2659 16.6328 10.2392C16.5097 10.2069 16.3864 10.175 16.263 10.1436C16.1573 10.1168 16.0592 10.0849 15.9686 10.048C15.8814 10.0111 15.8118 9.95826 15.7598 9.88949C15.7078 9.82072 15.6818 9.72259 15.6818 9.59511C15.6818 9.57165 15.6885 9.5297 15.7019 9.46933C15.7153 9.40892 15.7472 9.3477 15.7975 9.28564C15.8478 9.22361 15.925 9.16825 16.029 9.11959C16.133 9.07097 16.2755 9.04663 16.4567 9.04663C16.5808 9.04663 16.694 9.06007 16.7964 9.08689C16.8987 9.11373 16.9867 9.1565 17.0605 9.21521C17.1343 9.27392 17.1914 9.34855 17.2316 9.43912C17.2719 9.52973 17.292 9.64042 17.292 9.77125" fill="white"/>
</svg>
