<svg width="15" height="15" viewBox="0 0 15 15" fill="none" xmlns="http://www.w3.org/2000/svg">
<path d="M7.5 9.75C8.09674 9.75 8.66903 9.51295 9.09099 9.09099C9.51295 8.66903 9.75 8.09674 9.75 7.5C9.75 6.90326 9.51295 6.33097 9.09099 5.90901C8.66903 5.48705 8.09674 5.25 7.5 5.25C6.90326 5.25 6.33097 5.48705 5.90901 5.90901C5.48705 6.33097 5.25 6.90326 5.25 7.5C5.25 8.09674 5.48705 8.66903 5.90901 9.09099C6.33097 9.51295 6.90326 9.75 7.5 9.75ZM7.5 11.25C6.50544 11.25 5.55161 10.8549 4.84835 10.1516C4.14509 9.44839 3.75 8.49456 3.75 7.5C3.75 6.50544 4.14509 5.55161 4.84835 4.84835C5.55161 4.14509 6.50544 3.75 7.5 3.75C8.49456 3.75 9.44839 4.14509 10.1516 4.84835C10.8549 5.55161 11.25 6.50544 11.25 7.5C11.25 8.49456 10.8549 9.44839 10.1516 10.1516C9.44839 10.8549 8.49456 11.25 7.5 11.25ZM7.5 0C7.69891 0 7.88968 0.0790176 8.03033 0.21967C8.17098 0.360322 8.25 0.551088 8.25 0.75V2.25C8.25 2.44891 8.17098 2.63968 8.03033 2.78033C7.88968 2.92098 7.69891 3 7.5 3C7.30109 3 7.11032 2.92098 6.96967 2.78033C6.82902 2.63968 6.75 2.44891 6.75 2.25V0.75C6.75 0.551088 6.82902 0.360322 6.96967 0.21967C7.11032 0.0790176 7.30109 0 7.5 0ZM7.5 12C7.69891 12 7.88968 12.079 8.03033 12.2197C8.17098 12.3603 8.25 12.5511 8.25 12.75V14.25C8.25 14.4489 8.17098 14.6397 8.03033 14.7803C7.88968 14.921 7.69891 15 7.5 15C7.30109 15 7.11032 14.921 6.96967 14.7803C6.82902 14.6397 6.75 14.4489 6.75 14.25V12.75C6.75 12.5511 6.82902 12.3603 6.96967 12.2197C7.11032 12.079 7.30109 12 7.5 12ZM0.75 6.75H2.25C2.44891 6.75 2.63968 6.82902 2.78033 6.96967C2.92098 7.11032 3 7.30109 3 7.5C3 7.69891 2.92098 7.88968 2.78033 8.03033C2.63968 8.17098 2.44891 8.25 2.25 8.25H0.75C0.551088 8.25 0.360322 8.17098 0.21967 8.03033C0.0790176 7.88968 0 7.69891 0 7.5C0 7.30109 0.0790176 7.11032 0.21967 6.96967C0.360322 6.82902 0.551088 6.75 0.75 6.75ZM12.75 6.75H14.25C14.4489 6.75 14.6397 6.82902 14.7803 6.96967C14.921 7.11032 15 7.30109 15 7.5C15 7.69891 14.921 7.88968 14.7803 8.03033C14.6397 8.17098 14.4489 8.25 14.25 8.25H12.75C12.5511 8.25 12.3603 8.17098 12.2197 8.03033C12.079 7.88968 12 7.69891 12 7.5C12 7.30109 12.079 7.11032 12.2197 6.96967C12.3603 6.82902 12.5511 6.75 12.75 6.75ZM12.8032 2.19675C12.9439 2.3374 13.0228 2.52813 13.0228 2.727C13.0228 2.92587 12.9439 3.1166 12.8032 3.25725L11.7427 4.31775C11.6736 4.38938 11.5908 4.44652 11.4993 4.48583C11.4078 4.52513 11.3094 4.54582 11.2098 4.54669C11.1102 4.54755 11.0115 4.52858 10.9193 4.49087C10.8271 4.45316 10.7434 4.39747 10.673 4.32705C10.6025 4.25663 10.5468 4.17289 10.5091 4.08072C10.4714 3.98854 10.4524 3.88978 10.4533 3.7902C10.4542 3.69061 10.4749 3.5922 10.5142 3.5007C10.5535 3.40919 10.6106 3.32643 10.6822 3.25725L11.7427 2.19675C11.8834 2.05615 12.0741 1.97716 12.273 1.97716C12.4719 1.97716 12.6626 2.05615 12.8032 2.19675ZM4.31775 10.6822C4.45835 10.8229 4.53734 11.0136 4.53734 11.2125C4.53734 11.4114 4.45835 11.6021 4.31775 11.7427L3.25725 12.8025C3.18806 12.8741 3.10531 12.9313 3.0138 12.9706C2.9223 13.0099 2.82389 13.0306 2.7243 13.0314C2.62472 13.0323 2.52596 13.0133 2.43378 12.9756C2.34161 12.9379 2.25787 12.8822 2.18745 12.8118C2.11703 12.7414 2.06134 12.6576 2.02363 12.5655C1.98592 12.4733 1.96695 12.3745 1.96781 12.2749C1.96868 12.1754 1.98937 12.0769 2.02867 11.9854C2.06798 11.8939 2.12512 11.8112 2.19675 11.742L3.25725 10.6815C3.3979 10.5409 3.58863 10.4619 3.7875 10.4619C3.98637 10.4619 4.1771 10.5409 4.31775 10.6815V10.6822ZM3.25725 2.19675L4.31775 3.25725C4.45437 3.3987 4.52996 3.58815 4.52826 3.7848C4.52655 3.98145 4.44767 4.16956 4.30861 4.30861C4.16956 4.44767 3.98145 4.52655 3.7848 4.52826C3.58815 4.52996 3.3987 4.45437 3.25725 4.31775L2.1975 3.25725C2.06644 3.11485 1.99549 2.9273 1.9995 2.73381C2.00351 2.54031 2.08216 2.35586 2.21901 2.21901C2.35586 2.08216 2.54031 2.00351 2.73381 1.9995C2.9273 1.99549 3.11485 2.06644 3.25725 2.1975V2.19675ZM11.7427 10.6822L12.8032 11.7427C12.9399 11.8842 13.0155 12.0737 13.0138 12.2703C13.012 12.4669 12.9332 12.6551 12.7941 12.7941C12.6551 12.9332 12.4669 13.012 12.2703 13.0138C12.0737 13.0155 11.8842 12.9399 11.7427 12.8032L10.6822 11.7427C10.6106 11.6736 10.5535 11.5908 10.5142 11.4993C10.4749 11.4078 10.4542 11.3094 10.4533 11.2098C10.4524 11.1102 10.4714 11.0115 10.5091 10.9193C10.5468 10.8271 10.6025 10.7434 10.673 10.673C10.7434 10.6025 10.8271 10.5468 10.9193 10.5091C11.0115 10.4714 11.1102 10.4524 11.2098 10.4533C11.3094 10.4542 11.4078 10.4749 11.4993 10.5142C11.5908 10.5535 11.6736 10.6106 11.7427 10.6822Z" fill="#EAEAEA"/>
</svg>
