<svg width="15" height="15" viewBox="0 0 15 15" fill="none" xmlns="http://www.w3.org/2000/svg">
<g clip-path="url(#clip0_3474_2789)">
<path d="M6.625 14L1 8.375C0.5 7.875 0.5 7.09375 1 6.59375L6.625 0.96875C7.125 0.46875 7.90625 0.46875 8.40625 0.96875L14.0313 6.59375C14.5313 7.09375 14.5313 7.875 14.0313 8.375L8.40625 14C7.90625 14.5 7.09375 14.5 6.625 14Z" fill="#579DFF"/>
<path d="M6.75 10.2188C6.75 10.125 6.78125 10.0312 6.8125 9.9375C6.84375 9.84375 6.90625 9.78125 6.96875 9.71875C7.03125 9.65625 7.125 9.59375 7.21875 9.5625C7.3125 9.53125 7.40625 9.5 7.53125 9.5C7.65625 9.5 7.75 9.53125 7.84375 9.5625C7.9375 9.59375 8.03125 9.65625 8.09375 9.71875C8.15625 9.78125 8.21875 9.84375 8.25 9.9375C8.28125 10.0312 8.3125 10.125 8.3125 10.2188C8.3125 10.3125 8.28125 10.4062 8.25 10.5C8.21875 10.5937 8.15625 10.6562 8.09375 10.7187C8.03125 10.7812 7.9375 10.8437 7.84375 10.875C7.75 10.9062 7.65625 10.9375 7.53125 10.9375C7.40625 10.9375 7.3125 10.9062 7.21875 10.875C7.125 10.8437 7.0625 10.7812 6.96875 10.7187C6.90625 10.6562 6.84375 10.5937 6.8125 10.5C6.78125 10.4062 6.75 10.3438 6.75 10.2188ZM8.0625 8.78125H6.9375L6.78125 4.0625H8.21875L8.0625 8.78125Z" fill="white"/>
</g>
<defs>
<clipPath id="clip0_3474_2789">
<rect width="15" height="15" fill="white"/>
</clipPath>
</defs>
</svg>
