<svg width="15" height="15" viewBox="0 0 15 15" fill="none" xmlns="http://www.w3.org/2000/svg">
<path d="M12.808 0.0849475C12.3399 0.222428 11.5559 0.617395 10.6198 1.18788V1.22297L11.4389 1.98072L11.4799 1.99534C12.0825 1.56528 12.691 1.17619 13.3113 0.845599C13.3581 0.819255 13.3815 0.807565 13.3815 0.807565C13.3581 0.819255 13.3346 0.833881 13.3113 0.845599C13.1123 0.956765 12.5038 1.30782 11.591 2.00997L11.6963 2.02166C11.6963 2.02166 13.832 1.91634 14.8618 1.82858L14.9203 1.80224C15.248 0.883604 14.5985 0.462351 14.5985 0.462351C14.5985 0.462351 13.7793 -0.198854 12.808 0.0849475Z" fill="url(#paint0_linear_3355_2796)"/>
<path d="M8.95215 4.08722C9.21542 3.84442 9.47875 3.60452 9.74202 3.37338C10.017 3.13349 10.2979 2.89944 10.5846 2.67417C10.6022 2.66248 10.6197 2.64786 10.6314 2.63323C10.9041 2.41731 11.1869 2.20466 11.4798 1.99546L10.6197 1.18506C10.5553 1.22309 10.491 1.26406 10.4266 1.30501C10.1809 1.46008 9.92341 1.6239 9.66008 1.79945C9.34858 2.00745 9.04429 2.21812 8.74732 2.43137C8.45191 2.64262 8.16322 2.85621 7.88138 3.07205C7.63561 3.26222 7.38403 3.45533 7.13832 3.65718C7.12657 3.66594 7.1207 3.67181 7.10901 3.68059V3.71275L8.17978 4.77474L8.22659 4.78352C8.46649 4.54944 8.70638 4.31542 8.95215 4.08722Z" fill="url(#paint1_linear_3355_2796)"/>
<path d="M4.28877 9.28603C4.48184 9.03442 4.68661 8.7799 4.89144 8.52247C5.09033 8.27671 5.28928 8.02803 5.49998 7.77936C5.70475 7.53068 5.92121 7.28204 6.13772 7.03042C6.36005 6.7759 6.58238 6.52138 6.81059 6.26977C7.03879 6.0211 7.267 5.77242 7.50102 5.52668C7.58446 5.43737 7.67029 5.34861 7.75847 5.26044C7.90473 5.10831 8.05687 4.95617 8.20313 4.80697C8.20901 4.79822 8.22075 4.79237 8.22657 4.78359L7.10899 3.68066L7.05635 3.72454C6.7989 3.93809 6.53557 4.15458 6.28398 4.37694C6.02544 4.6032 5.7738 4.83142 5.52918 5.06152C5.31854 5.25754 5.11964 5.45355 4.92063 5.65247C4.87969 5.69344 4.84462 5.73148 4.80368 5.77242C4.57056 6.01132 4.35009 6.25326 4.1425 6.49797C3.92012 6.76128 3.72122 7.01286 3.54571 7.25278C3.42864 7.41073 3.32919 7.55996 3.22969 7.70625C3.15289 7.82969 3.07878 7.95354 3.00736 8.07778C2.84019 8.36619 2.69767 8.65803 2.5802 8.95251L2.59782 8.98764L3.66853 10.0525L3.70366 10.0613C3.84992 9.86236 4.00206 9.66344 4.16007 9.45864C4.20101 9.40014 4.24788 9.34454 4.28877 9.28603Z" fill="url(#paint2_linear_3355_2796)"/>
<path d="M2.5686 8.99064C2.42816 9.34464 2.32865 9.69863 2.27602 10.0497C2.27602 10.0614 2.27014 10.0731 2.27014 10.0877C1.91906 9.80689 0.98292 9.53481 0.98292 9.53481C1.65578 10.0204 2.16482 10.5032 2.24089 10.9771C1.88399 11.0151 1.39245 10.9595 0.819094 10.8572C1.41002 11.1292 1.85468 11.2053 2.03025 11.2258C1.48609 11.2433 0.918541 11.4306 0.345122 11.6441C1.18181 11.4745 1.85474 11.4072 2.34034 11.4598C1.57384 12.5452 0.807346 13.7447 0.0350342 15.0144C0.269054 14.9793 0.409501 14.9003 0.491443 14.7921C0.625957 14.5609 1.53877 13.0513 2.96057 11.0649C3.00152 11.0093 3.04252 10.9508 3.08346 10.8952C3.09521 10.8806 3.10684 10.863 3.11858 10.8484C3.27072 10.6407 3.42286 10.4271 3.58662 10.2106C3.62175 10.1609 3.66269 10.1111 3.69782 10.0614V10.0585L2.58023 8.95264C2.58023 8.96726 2.57436 8.97898 2.56854 8.99067" fill="url(#paint3_linear_3355_2796)"/>
<path d="M11.5911 2.01288C11.3394 2.20599 11.0644 2.42538 10.766 2.67406C10.7484 2.68577 10.7367 2.7004 10.7192 2.71209C10.4402 2.94679 10.169 3.1838 9.90587 3.42302C9.64173 3.66209 9.38427 3.90298 9.13356 4.14564C8.88659 4.38277 8.64666 4.62171 8.41382 4.86238L8.46651 4.8741L11.1873 4.72784L11.2517 4.7044C12.0767 4.51426 12.4453 4.34165 12.8022 4.09298C12.9005 4.0227 12.996 3.95149 13.0889 3.8794C13.3814 3.65119 13.6682 3.40252 13.9197 3.15387C14.1655 2.91395 14.382 2.67406 14.5517 2.46051C14.657 2.323 14.7447 2.19721 14.8033 2.08604C14.8559 1.98656 14.8969 1.89293 14.9261 1.80518C13.8262 1.90171 12.4745 1.99241 11.591 2.01288" fill="url(#paint4_linear_3355_2796)"/>
<path d="M8.30854 4.97678C8.21496 5.07625 8.11546 5.17864 8.01601 5.28105C7.91069 5.39221 7.7995 5.50925 7.69417 5.62626C7.64154 5.68477 7.58304 5.74621 7.53035 5.80472C7.36071 5.9861 7.19682 6.17334 7.02131 6.36642C6.80282 6.61228 6.58827 6.85901 6.3777 7.1066C6.16705 7.35233 5.95641 7.60395 5.74577 7.86725C5.53593 8.1227 5.33112 8.37918 5.13135 8.63665C4.94415 8.87364 4.75695 9.11353 4.56968 9.36511C4.55793 9.37683 4.55212 9.38852 4.54043 9.40024C4.35323 9.64892 4.1706 9.90188 3.97747 10.1622C3.97159 10.1681 3.9612 10.1833 3.95532 10.1892L3.99574 10.1937L4.80958 10.1499L4.85551 10.1404C4.83795 10.1375 4.82714 10.1258 4.80958 10.1229C5.88622 10.0556 7.31971 9.65182 8.25003 9.15447C8.67719 8.92627 9.06334 8.65422 9.42612 8.33828C9.69527 8.10127 9.94103 7.8409 10.1809 7.55129C10.3916 7.29967 10.5905 7.02468 10.7836 6.72922C10.5378 6.79354 10.2511 6.84329 9.94103 6.87548C9.88834 6.88133 9.82984 6.88717 9.77133 6.89302C9.71283 6.89889 9.65432 6.90183 9.60163 6.90764C10.6081 6.71457 11.24 6.3401 11.7022 5.88372C11.4389 5.97438 11.0059 6.09142 10.491 6.14993C10.4208 6.15871 10.3506 6.16456 10.2746 6.1704C10.2569 6.1704 10.2394 6.17334 10.2219 6.17334C10.573 6.10021 10.8655 6.01826 11.1229 5.92172C11.1756 5.90125 11.2283 5.88078 11.2809 5.85738C11.357 5.82228 11.4331 5.78718 11.5033 5.75205C11.5501 5.72865 11.591 5.70524 11.6379 5.67892C11.7407 5.61806 11.8346 5.55352 11.9187 5.48582C11.9479 5.46535 11.9714 5.44194 12.0006 5.42147C12.0358 5.38928 12.065 5.35712 12.0943 5.32493C12.2346 5.18451 12.3458 5.05869 12.4336 4.94752C12.4804 4.89193 12.5155 4.8422 12.5506 4.79245C12.5624 4.77492 12.574 4.75445 12.5916 4.73688C12.6267 4.68422 12.6559 4.63741 12.6794 4.59356C12.7066 4.54547 12.7281 4.49662 12.7437 4.44727C12.7086 4.46189 12.6735 4.47358 12.6267 4.48821C12.3224 4.5789 11.8017 4.66081 11.3804 4.69885C11.3219 4.70472 11.2809 4.70763 11.2341 4.71348C11.238 4.71154 10.2996 4.76114 8.41897 4.86229C8.40722 4.86817 8.33785 4.94168 8.30854 4.97678Z" fill="url(#paint5_linear_3355_2796)"/>
<path d="M3.8675 10.2978C3.72124 10.4997 3.5691 10.7074 3.42284 10.9181C3.42284 10.921 3.41697 10.924 3.41697 10.9269C3.39353 10.9561 3.37597 10.9854 3.35259 11.0176C3.25314 11.1609 3.16532 11.2867 2.96643 11.5793C3.29408 11.6553 3.55735 11.8513 3.809 12.0766C3.78556 11.8455 3.59248 11.6261 3.22389 11.4593C4.84464 11.4944 6.24306 11.2896 6.96274 10.6987C7.02818 10.645 7.0868 10.5893 7.13825 10.5319C6.8106 10.7396 6.40107 10.8274 5.64039 10.8069C6.76966 10.5553 7.33133 10.3125 7.83456 9.91169C7.95905 9.80947 8.07615 9.70505 8.18564 9.59863C7.19676 10.1048 6.0558 10.2481 4.85633 10.1399L3.95526 10.1896C3.92601 10.2218 3.89675 10.2598 3.8675 10.2978Z" fill="url(#paint6_linear_3355_2796)"/>
<defs>
<linearGradient id="paint0_linear_3355_2796" x1="82.5013" y1="128.303" x2="560.166" y2="-189.668" gradientUnits="userSpaceOnUse">
<stop stop-color="#F69923"/>
<stop offset="0.3123" stop-color="#F79A23"/>
<stop offset="0.8383" stop-color="#E97826"/>
</linearGradient>
<linearGradient id="paint1_linear_3355_2796" x1="-944.207" y1="1421.4" x2="39.5891" y2="-134.964" gradientUnits="userSpaceOnUse">
<stop offset="0.3233" stop-color="#9E2064"/>
<stop offset="0.6302" stop-color="#C92037"/>
<stop offset="0.7514" stop-color="#CD2335"/>
<stop offset="1" stop-color="#E97826"/>
</linearGradient>
<linearGradient id="paint2_linear_3355_2796" x1="-449.378" y1="1091.06" x2="974.656" y2="-104.684" gradientUnits="userSpaceOnUse">
<stop offset="0.3233" stop-color="#9E2064"/>
<stop offset="0.6302" stop-color="#C92037"/>
<stop offset="0.7514" stop-color="#CD2335"/>
<stop offset="1" stop-color="#E97826"/>
</linearGradient>
<linearGradient id="paint3_linear_3355_2796" x1="-67.0525" y1="477.89" x2="759.579" y2="154.26" gradientUnits="userSpaceOnUse">
<stop stop-color="#282662"/>
<stop offset="0.09548" stop-color="#662E8D"/>
<stop offset="0.7882" stop-color="#9F2064"/>
<stop offset="0.9487" stop-color="#CD2032"/>
</linearGradient>
<linearGradient id="paint4_linear_3355_2796" x1="-836.774" y1="1424.91" x2="-512.079" y2="-142.868" gradientUnits="userSpaceOnUse">
<stop offset="0.3233" stop-color="#9E2064"/>
<stop offset="0.6302" stop-color="#C92037"/>
<stop offset="0.7514" stop-color="#CD2335"/>
<stop offset="1" stop-color="#E97826"/>
</linearGradient>
<linearGradient id="paint5_linear_3355_2796" x1="-302.585" y1="1083.08" x2="344.257" y2="-540.813" gradientUnits="userSpaceOnUse">
<stop offset="0.3233" stop-color="#9E2064"/>
<stop offset="0.6302" stop-color="#C92037"/>
<stop offset="0.7514" stop-color="#CD2335"/>
<stop offset="1" stop-color="#E97826"/>
</linearGradient>
<linearGradient id="paint6_linear_3355_2796" x1="-104.649" y1="486.767" x2="91.935" y2="-448.379" gradientUnits="userSpaceOnUse">
<stop stop-color="#282662"/>
<stop offset="0.09548" stop-color="#662E8D"/>
<stop offset="0.7882" stop-color="#9F2064"/>
<stop offset="0.9487" stop-color="#CD2032"/>
</linearGradient>
</defs>
</svg>
