<svg width="15" height="15" viewBox="0 0 15 15" fill="none" xmlns="http://www.w3.org/2000/svg">
<path fill-rule="evenodd" clip-rule="evenodd" d="M7.5 6.35424L13.6275 0.225671C13.7839 0.069242 13.9907 -0.00897217 14.1964 -0.00897217C14.6293 -0.00897217 15 0.33817 15 0.793527C15 1.00031 14.9218 1.20603 14.7654 1.36353L8.63679 7.49103L14.7643 13.6185C14.9218 13.776 15 13.9817 15 14.1875C15 14.645 14.6261 14.991 14.1964 14.991C13.9907 14.991 13.7839 14.9128 13.6275 14.7564L7.5 8.62889L1.3725 14.7564C1.21607 14.9128 1.00929 14.991 0.803571 14.991C0.373929 14.991 0 14.645 0 14.1875C0 13.9817 0.0782141 13.776 0.235714 13.6185L6.36321 7.49103L0.234643 1.36353C0.0782141 1.20603 0 1.00031 0 0.793527C0 0.33817 0.370714 -0.00897217 0.803571 -0.00897217C1.00929 -0.00897217 1.21607 0.069242 1.3725 0.225671L7.5 6.35424Z" fill="#EAEAEA" fill-opacity="0.666667"/>
</svg>
