<svg width="15" height="15" viewBox="0 0 15 15" fill="none" xmlns="http://www.w3.org/2000/svg">
<rect width="15" height="15" fill="#0E0E0E"/>
<path d="M10.7028 7.4323L7.4323 10.7028C7.37594 10.7651 7.34568 10.8467 7.34778 10.9307C7.34989 11.0147 7.38419 11.0947 7.44361 11.1541C7.50302 11.2135 7.583 11.2478 7.66699 11.2499C7.75099 11.252 7.83259 11.2217 7.8949 11.1654L11.1654 7.8949C11.2217 7.83259 11.252 7.75099 11.2499 7.66699C11.2478 7.583 11.2135 7.50302 11.1541 7.44361C11.0947 7.38419 11.0147 7.34989 10.9307 7.34778C10.8467 7.34568 10.7651 7.37594 10.7028 7.4323ZM10.0487 3.83462L3.83462 10.0487C3.77826 10.111 3.748 10.1926 3.7501 10.2766C3.75221 10.3606 3.78651 10.4406 3.84593 10.5C3.90534 10.5594 3.98532 10.5937 4.06932 10.5958C4.15331 10.5979 4.23491 10.5676 4.29722 10.5113L10.5113 4.29722C10.5676 4.23491 10.5979 4.15331 10.5958 4.06932C10.5937 3.98532 10.5594 3.90534 10.5 3.84593C10.4406 3.78651 10.3606 3.75221 10.2766 3.7501C10.1926 3.748 10.111 3.77826 10.0487 3.83462Z" fill="white"/>
</svg>
