<svg width="15" height="16" viewBox="0 0 15 16" fill="none" xmlns="http://www.w3.org/2000/svg">
<path d="M11.4844 0.878906H3.51562C1.574 0.878906 0 2.45291 0 4.39453V12.3633C0 14.3049 1.574 15.8789 3.51562 15.8789H11.4844C13.426 15.8789 15 14.3049 15 12.3633V4.39453C15 2.45291 13.426 0.878906 11.4844 0.878906Z" fill="#242938"/>
<path fill-rule="evenodd" clip-rule="evenodd" d="M11.2518 10.1175C11.2982 10.0908 11.3368 10.0524 11.3637 10.0061C11.3906 9.95986 11.4049 9.90732 11.405 9.8538L11.4105 8.08772C11.4107 8.03419 11.4249 7.98165 11.4519 7.93538C11.4787 7.88909 11.5173 7.85069 11.5637 7.82405L12.5211 7.27415C12.5912 7.23392 12.6744 7.22314 12.7524 7.24416C12.8305 7.26518 12.897 7.3163 12.9374 7.38629C12.9641 7.43266 12.9782 7.48523 12.9782 7.53876V10.7495C12.9782 10.8031 12.9641 10.8559 12.9372 10.9023C12.9103 10.9488 12.8716 10.9873 12.825 11.0141L9.21205 13.0893C9.1659 13.1158 9.11363 13.1297 9.06042 13.1298C9.00721 13.1298 8.95492 13.116 8.90871 13.0896L6.0733 11.4679C6.02661 11.4412 5.98781 11.4026 5.9608 11.3561C5.93379 11.3096 5.91954 11.2568 5.91949 11.203V9.58403C5.91949 9.58221 5.92166 9.58098 5.92348 9.58186C5.92384 9.5821 5.92427 9.58224 5.9247 9.58225C5.92514 9.58226 5.92557 9.58215 5.92595 9.58193C5.92633 9.58171 5.92663 9.58139 5.92684 9.58101C5.92705 9.58062 5.92714 9.58019 5.92711 9.57975V9.57793C5.92711 9.5767 5.92775 9.57547 5.92898 9.57489L8.26418 8.23333C8.26629 8.2321 8.26535 8.22875 8.26295 8.22875C8.2623 8.22874 8.26168 8.22848 8.26123 8.22802C8.26077 8.22756 8.2605 8.22694 8.26049 8.22629L8.26506 6.63905C8.26532 6.58537 8.25139 6.53257 8.22469 6.48601C8.19799 6.43944 8.15946 6.40075 8.11301 6.37385C8.06658 6.34692 8.01388 6.33271 7.96021 6.33266C7.90653 6.33261 7.8538 6.34672 7.80732 6.37356L6.07178 7.37364C6.02545 7.40028 5.97294 7.41431 5.91949 7.41431C5.86605 7.41431 5.81354 7.40028 5.76721 7.37364L4.02615 6.3711C3.97977 6.34437 3.92718 6.33031 3.87365 6.33034C3.82012 6.33037 3.76754 6.34448 3.72119 6.37126C3.67484 6.39803 3.63635 6.43653 3.60959 6.48289C3.58282 6.52924 3.56873 6.58183 3.56871 6.63536V9.50405C3.56877 9.55752 3.55477 9.61007 3.52812 9.65642C3.50147 9.70278 3.46311 9.74132 3.41687 9.76818C3.37063 9.79504 3.31815 9.80927 3.26468 9.80946C3.21121 9.80965 3.15863 9.79578 3.11221 9.76924L2.146 9.21688C2.09919 9.19016 2.06031 9.15151 2.03329 9.10488C2.00627 9.05824 1.99209 9.00529 1.99219 8.95139L2.00074 3.93735C2.00086 3.88389 2.01501 3.83141 2.04178 3.78514C2.06856 3.73888 2.10702 3.70046 2.15331 3.67373C2.1996 3.647 2.2521 3.6329 2.30555 3.63284C2.35901 3.63278 2.41154 3.64676 2.45789 3.67338L5.7675 5.57434C5.81375 5.60091 5.86616 5.61489 5.91949 5.61489C5.97283 5.61489 6.02523 5.60091 6.07148 5.57434L9.38022 3.67338C9.45034 3.63308 9.53361 3.62227 9.6117 3.64335C9.68979 3.66442 9.75631 3.71565 9.79664 3.78577C9.82336 3.83211 9.83736 3.88473 9.83736 3.93829V8.9535C9.83738 9.00716 9.82325 9.05987 9.7964 9.10632C9.76955 9.15278 9.73093 9.19134 9.68443 9.21811L7.95164 10.216C7.90512 10.2429 7.8665 10.2815 7.83968 10.3281C7.81287 10.3746 7.79879 10.4274 7.79889 10.4812C7.79899 10.5349 7.81329 10.5876 7.84033 10.6341C7.86737 10.6805 7.90619 10.7189 7.95287 10.7455L8.90871 11.2896C8.95489 11.316 9.00715 11.3298 9.06031 11.3297C9.11347 11.3296 9.16568 11.3156 9.21176 11.289L11.2518 10.1175ZM11.4523 5.61858C11.4524 5.67254 11.4668 5.72552 11.494 5.77212C11.5212 5.81872 11.5602 5.85729 11.6072 5.88389C11.6542 5.91049 11.7073 5.92415 11.7613 5.92348C11.8153 5.92281 11.8681 5.90783 11.9144 5.88008L12.8299 5.33077C12.8751 5.30367 12.9125 5.26535 12.9385 5.21953C12.9645 5.1737 12.9782 5.12194 12.9782 5.06926V3.94983C12.9781 3.90949 12.97 3.86956 12.9544 3.83237C12.9388 3.79517 12.9159 3.76144 12.8872 3.73312C12.8585 3.7048 12.8244 3.68245 12.787 3.66736C12.7496 3.65227 12.7095 3.64474 12.6692 3.6452C12.6152 3.64588 12.5624 3.66084 12.5162 3.68856L11.6006 4.23788C11.5554 4.26495 11.518 4.30327 11.492 4.34911C11.466 4.39495 11.4523 4.44674 11.4523 4.49944V5.61881V5.61858Z" fill="#007FFF"/>
</svg>
