<svg width="15" height="15" viewBox="0 0 15 15" fill="none" xmlns="http://www.w3.org/2000/svg">
<path d="M7.5 11.2117C11.1244 11.2117 14.0625 9.75123 14.0625 7.94962C14.0625 6.148 11.1244 4.6875 7.5 4.6875C3.87563 4.6875 0.9375 6.148 0.9375 7.94962C0.9375 9.75123 3.87563 11.2117 7.5 11.2117Z" fill="#8993BE"/>
<path fill-rule="evenodd" clip-rule="evenodd" d="M2.7804 9.88101L3.4996 6.40426H5.16263C5.88179 6.4472 6.2414 6.79054 6.2414 7.39151C6.2414 8.42165 5.3874 9.02257 4.62323 8.97963H3.81425L3.63444 9.88101H2.7804ZM3.994 8.33583L4.21876 7.04811H4.80308C5.11772 7.04811 5.34244 7.17688 5.34244 7.4344C5.29752 8.16413 4.93792 8.29289 4.5334 8.33583H3.994ZM6.07431 8.97963L6.79347 5.50293H7.64751L7.46771 6.40426H8.27675C8.99595 6.4472 9.26563 6.79054 9.17576 7.21981L8.86112 8.97963H7.96216L8.2768 7.39151C8.32171 7.17688 8.32171 7.04811 8.00712 7.04811H7.33287L6.92836 8.97963H6.07431ZM8.80354 9.88101L9.5227 6.40426H11.1858C11.905 6.4472 12.2646 6.79054 12.2646 7.39151C12.2646 8.42165 11.4105 9.02257 10.6464 8.97963H9.83734L9.65754 9.88101H8.80354ZM10.0171 8.33583L10.2419 7.04811H10.8262C11.1409 7.04811 11.3656 7.17688 11.3656 7.4344C11.3207 8.16413 10.9611 8.29289 10.5565 8.33583H10.0171H10.0171Z" fill="#232531"/>
</svg>
