<svg width="8" height="16" viewBox="0 0 8 16" fill="none" xmlns="http://www.w3.org/2000/svg">
<path fill-rule="evenodd" clip-rule="evenodd" d="M6.74849 5.2207C6.95902 5.82975 7.11066 6.45151 7.16051 7.09597C7.22242 7.89548 7.19409 8.68934 7.02553 9.47573C7.02094 9.49738 7.01123 9.51771 7.00402 9.5387C6.95115 9.53883 6.89724 9.53227 6.84556 9.54027C6.40888 9.60887 5.97259 9.67997 5.53631 9.75067C5.08533 9.82374 4.6337 9.89392 4.18351 9.97196C4.024 9.99951 3.82658 9.96659 3.76218 10.1872C3.76034 10.1933 3.74198 10.1943 3.73135 10.1977L3.75313 8.87928L3.73096 5.69805L3.9411 5.66197C4.28478 5.6057 4.62845 5.54864 4.97239 5.49394C5.38283 5.42875 5.79367 5.36539 6.20438 5.30177C6.38553 5.27357 6.56695 5.24773 6.74849 5.2207Z" fill="#439934"/>
<path fill-rule="evenodd" clip-rule="evenodd" d="M3.29732 14.0411C3.07564 13.8506 2.84622 13.6683 2.63371 13.4679C1.49027 12.3894 0.6539 11.12 0.242013 9.58962C0.128547 9.16842 0.05286 8.7404 0.0285928 8.30516C0.0115401 8.00057 -0.0131211 7.69323 0.00839152 7.39022C0.0657147 6.58429 0.182198 5.78609 0.418574 5.0098L0.43156 4.9917C0.454515 5.02226 0.487571 5.04928 0.499246 5.08378C0.729981 5.76327 0.959011 6.44327 1.18686 7.12367C1.90281 9.26181 2.61784 11.4005 3.33497 13.5381C3.34901 13.5798 3.38534 13.614 3.41145 13.6517L3.29732 14.0411Z" fill="#45A538"/>
<path fill-rule="evenodd" clip-rule="evenodd" d="M6.7485 5.22068C6.56695 5.2477 6.38541 5.27354 6.20426 5.30148C5.79355 5.3651 5.38271 5.42846 4.97227 5.49365C4.62833 5.54835 4.28465 5.60541 3.94098 5.66168L3.73083 5.69776L3.72926 5.56068C3.72231 5.448 3.71037 5.33545 3.70906 5.22278C3.70001 4.5042 3.69437 3.78563 3.68545 3.06706C3.67994 2.61726 3.67168 2.1676 3.66249 1.71793C3.65685 1.43853 3.65082 1.159 3.63823 0.87999C3.63141 0.730058 3.60727 0.580913 3.59743 0.430981C3.59192 0.344799 3.59953 0.257962 3.60123 0.171387C3.7084 0.379036 3.81321 0.588258 3.9234 0.794333C4.09747 1.12017 4.37477 1.36022 4.62439 1.62217C5.61122 2.6574 6.31182 3.86106 6.7485 5.22068Z" fill="#46A037"/>
<path fill-rule="evenodd" clip-rule="evenodd" d="M3.73105 10.1971C3.74168 10.1937 3.76017 10.1927 3.76188 10.1866C3.82628 9.966 4.0237 9.99892 4.18321 9.97138C4.6334 9.89346 5.08503 9.82315 5.53601 9.75009C5.97229 9.67938 6.40858 9.60829 6.84526 9.53968C6.89694 9.53155 6.95085 9.53824 7.00372 9.53811C6.92213 9.82932 6.85785 10.1268 6.75436 10.41C6.63682 10.7313 6.49463 11.0448 6.34365 11.3521C6.11762 11.8105 5.83787 12.2404 5.5103 12.6328C5.25857 12.9355 4.97799 13.2153 4.69676 13.4917C4.54131 13.6445 4.35806 13.769 4.18754 13.9063L4.14333 13.8762L3.98409 13.74L3.81933 13.3789C3.70679 12.9576 3.6454 12.5243 3.63647 12.0884L3.63949 12.0148L3.66192 11.6966C3.6694 11.588 3.67937 11.4795 3.68396 11.3706C3.70088 10.9795 3.71557 10.5883 3.73105 10.1971Z" fill="#409433"/>
<path fill-rule="evenodd" clip-rule="evenodd" d="M3.7312 10.1977C3.71572 10.5889 3.70102 10.98 3.68437 11.3713C3.67977 11.4802 3.66981 11.5887 3.66233 11.6973L3.56198 11.7352C3.33911 11.0791 3.11612 10.4299 2.89798 9.77898C2.53725 8.70217 2.18085 7.62366 1.82064 6.54659C1.52971 5.67723 1.23675 4.80854 0.941774 3.94055C0.928001 3.89988 0.888386 3.86814 0.86084 3.8322L1.50307 2.65137C1.52511 2.68967 1.55423 2.72548 1.56813 2.76667C1.86557 3.64581 2.1615 4.52547 2.45592 5.40563C2.83842 6.55078 3.21857 7.69685 3.60081 8.84214C3.61602 8.88792 3.64121 8.93015 3.66521 8.98144L3.7531 8.87913L3.7312 10.1977Z" fill="#4FAA41"/>
<path fill-rule="evenodd" clip-rule="evenodd" d="M0.860965 3.83203C0.888511 3.86797 0.927995 3.89972 0.941899 3.94038C1.23688 4.80838 1.52984 5.67706 1.82077 6.54642C2.18097 7.62349 2.53737 8.70201 2.8981 9.77881C3.11611 10.4296 3.33911 11.0789 3.56211 11.735L3.66245 11.6971L3.64002 12.0153L3.61969 12.0887C3.5848 12.4371 3.55542 12.7862 3.51291 13.1339C3.49153 13.3081 3.44615 13.4791 3.41165 13.6516C3.38568 13.614 3.34921 13.5797 3.33517 13.538C2.61804 11.4003 1.90301 9.26173 1.18706 7.12359C0.959294 6.44314 0.730088 5.76317 0.499448 5.0837C0.487774 5.0492 0.454849 5.02218 0.431763 4.99161L0.860965 3.83203Z" fill="#4AA73C"/>
<path fill-rule="evenodd" clip-rule="evenodd" d="M3.75296 8.87901L3.66507 8.98132C3.64107 8.93003 3.61588 8.88767 3.60067 8.84202C3.21856 7.69673 2.83828 6.55067 2.45578 5.40551C2.16136 4.52535 1.86543 3.6457 1.56799 2.76655C1.55422 2.72536 1.5251 2.68942 1.50293 2.65125L2.29719 1.60645C2.32224 1.63989 2.35792 1.66967 2.37091 1.70732C2.59141 2.35283 2.80995 2.99912 3.02717 3.64581C3.2301 4.24974 3.43001 4.85458 3.6353 5.45772C3.64907 5.49812 3.69695 5.52672 3.72896 5.56082L3.73053 5.6979C3.73814 6.75805 3.74562 7.8186 3.75296 8.87901Z" fill="#57AE47"/>
<path fill-rule="evenodd" clip-rule="evenodd" d="M3.72925 5.56074C3.69725 5.52663 3.64937 5.49804 3.63559 5.45764C3.43031 4.8545 3.2304 4.24965 3.02747 3.64573C2.81025 2.99904 2.59171 2.35287 2.37121 1.70723C2.35822 1.66959 2.32254 1.63981 2.29749 1.60636C2.55577 1.35346 2.80605 1.0915 3.07469 0.850272C3.31356 0.635933 3.5056 0.406115 3.51439 0.0674236C3.51478 0.0533879 3.52213 0.0393523 3.53341 0L3.60149 0.171314C3.59978 0.25802 3.59204 0.344726 3.59768 0.430907C3.60752 0.58084 3.63166 0.729985 3.63848 0.879917C3.65107 1.15892 3.65711 1.43846 3.66275 1.71786C3.6718 2.16752 3.68006 2.61719 3.6857 3.06699C3.69449 3.78556 3.70026 4.50413 3.70931 5.2227C3.71036 5.33564 3.72217 5.44806 3.72925 5.56074Z" fill="#60B24F"/>
<path fill-rule="evenodd" clip-rule="evenodd" d="M3.41136 13.6517C3.44586 13.4792 3.49125 13.308 3.51263 13.1339C3.55526 12.7864 3.58451 12.4371 3.6194 12.0887L3.62806 12.0874L3.63672 12.0888C3.64565 12.5248 3.70704 12.9581 3.81958 13.3793C3.79649 13.4098 3.76383 13.4369 3.75163 13.4713C3.65627 13.7402 3.56641 14.0112 3.47052 14.2801C3.4574 14.3168 3.42094 14.3454 3.39523 14.3777L3.29724 14.0411L3.41136 13.6517Z" fill="#A9AA88"/>
<path fill-rule="evenodd" clip-rule="evenodd" d="M3.39539 14.3778C3.4211 14.3455 3.45769 14.3169 3.47068 14.2802C3.56657 14.0113 3.65655 13.7404 3.75179 13.4713C3.76399 13.437 3.79652 13.4098 3.81973 13.3794L3.98436 13.7406C3.95183 13.7868 3.90696 13.8284 3.88886 13.8798L3.57352 14.8058C3.56053 14.8429 3.5162 14.8691 3.48655 14.9005L3.39539 14.3778Z" fill="#B6B598"/>
<path fill-rule="evenodd" clip-rule="evenodd" d="M3.48645 14.9006C3.51623 14.8693 3.56043 14.843 3.57342 14.8059L3.88876 13.8799C3.90673 13.8286 3.95173 13.7869 3.98426 13.7407L4.14363 13.8768C4.06663 13.9528 4.02387 14.0407 4.04958 14.1518L4.00118 14.3103C3.97914 14.3374 3.94726 14.361 3.93638 14.3921C3.82632 14.7073 3.72125 15.0243 3.61041 15.3395C3.59637 15.3795 3.55742 15.4108 3.52987 15.446C3.51557 15.264 3.50101 15.0825 3.48645 14.9006Z" fill="#C2C1A7"/>
<path fill-rule="evenodd" clip-rule="evenodd" d="M3.5301 15.4458C3.55751 15.4105 3.59647 15.3791 3.61064 15.3393C3.72148 15.0242 3.82655 14.7073 3.93661 14.3919C3.9475 14.361 3.97924 14.3372 4.00141 14.3101L3.93464 15.0374C3.9168 15.058 3.89096 15.076 3.88243 15.1C3.80701 15.3117 3.73591 15.525 3.66022 15.7367C3.64462 15.7804 3.61471 15.819 3.59136 15.8598C3.57063 15.8326 3.53351 15.8064 3.5318 15.778C3.52511 15.6677 3.52971 15.5566 3.5301 15.4458Z" fill="#CECDB7"/>
<path fill-rule="evenodd" clip-rule="evenodd" d="M3.59119 15.8599C3.61454 15.819 3.64444 15.7804 3.66005 15.7369C3.73587 15.5253 3.80684 15.312 3.88226 15.1002C3.89079 15.0762 3.91676 15.0583 3.93447 15.0376L3.93604 15.5151L3.77627 15.9249L3.59119 15.8599Z" fill="#DBDAC7"/>
<path fill-rule="evenodd" clip-rule="evenodd" d="M3.77637 15.9249L3.93614 15.5151L3.96906 16L3.77637 15.9249Z" fill="#EBE9DC"/>
<path fill-rule="evenodd" clip-rule="evenodd" d="M4.04973 14.1515C4.02402 14.0404 4.06665 13.9524 4.14379 13.8765L4.18799 13.9066L4.04973 14.1515Z" fill="#CECDB7"/>
<path fill-rule="evenodd" clip-rule="evenodd" d="M3.63682 12.0891L3.62816 12.0876L3.61951 12.089L3.63984 12.0156L3.63682 12.0891Z" fill="#4FAA41"/>
</svg>
