<svg width="15" height="15" viewBox="0 0 15 15" fill="none" xmlns="http://www.w3.org/2000/svg">
<path d="M13.8343 6.79623L11.0185 9.61108C9.4643 11.1662 6.94299 11.1662 5.38878 9.61108C5.14384 9.3671 4.95236 9.09203 4.78419 8.80821L6.09249 7.49991C6.1547 7.43721 6.2315 7.40125 6.30487 7.35898C6.39526 7.66809 6.5532 7.96064 6.79621 8.20362C7.57234 8.98024 8.83545 8.97928 9.61108 8.20362L12.4259 5.38877C13.2026 4.61215 13.2026 3.34955 12.4259 2.57343C11.6503 1.79731 10.3877 1.79731 9.61108 2.57343L8.60992 3.57554C7.79784 3.25916 6.92255 3.17412 6.0706 3.299L8.20361 1.166C9.75879 -0.388667 12.2791 -0.388667 13.8343 1.166C15.3886 2.72073 15.3886 5.24156 13.8343 6.79623ZM6.3904 11.4248L5.38878 12.4269C4.61265 13.2026 3.34954 13.2026 2.57341 12.4269C1.79729 11.6503 1.79729 10.3877 2.57341 9.61111L5.38878 6.79626C6.1654 6.01964 7.42752 6.01964 8.20365 6.79626C8.44616 7.03877 8.6041 7.33133 8.69548 7.63994C8.76936 7.59717 8.84519 7.56218 8.90739 7.49997L10.2157 6.19217C10.0485 5.90739 9.85605 5.63328 9.61111 5.38884C8.0569 3.83417 5.53559 3.83417 3.98088 5.38884L1.16601 8.20368C-0.388669 9.75885 -0.388669 12.2792 1.16601 13.8343C2.72069 15.3885 5.24153 15.3885 6.79624 13.8343L8.92976 11.7008C8.0773 11.8262 7.20202 11.7407 6.3904 11.4248Z" fill="#EAEAEA"/>
</svg>
