<svg width="17" height="15" viewBox="0 0 17 15" fill="none" xmlns="http://www.w3.org/2000/svg">
<path d="M0 0.833333C0 0.61232 0.0877973 0.400358 0.244078 0.244078C0.400358 0.0877973 0.61232 0 0.833333 0H15.8333C16.0543 0 16.2663 0.0877973 16.4226 0.244078C16.5789 0.400358 16.6667 0.61232 16.6667 0.833333V14.1667C16.6667 14.3877 16.5789 14.5996 16.4226 14.7559C16.2663 14.9122 16.0543 15 15.8333 15H0.833333C0.61232 15 0.400358 14.9122 0.244078 14.7559C0.0877973 14.5996 0 14.3877 0 14.1667V0.833333ZM11.6667 13.3333H15V1.66667H11.6667V13.3333ZM10 1.66667H6.66667V13.3333H10V1.66667ZM1.66667 1.66667V13.3333H5V1.66667H1.66667Z" fill="#EAEAEA"/>
</svg>
