<svg width="15" height="15" viewBox="0 0 15 15" fill="none" xmlns="http://www.w3.org/2000/svg">
<path d="M3.37744 2.50193C2.47325 3.80127 2.58578 5.49196 3.27659 6.87284L3.32714 6.97098L3.35948 7.03321L3.37965 7.069L3.41569 7.13344C3.43709 7.1712 3.4591 7.20871 3.48161 7.24647L3.51924 7.30845C3.54421 7.34854 3.56966 7.38839 3.59574 7.42812L3.62833 7.47842C3.66436 7.53216 3.70114 7.58566 3.73914 7.63842L3.74234 7.64248L3.76103 7.66769C3.79387 7.71295 3.82769 7.75772 3.862 7.80211L3.9 7.85045C3.93063 7.88894 3.96174 7.92707 3.99335 7.96532L4.02901 8.00787C4.07144 8.0578 4.11486 8.10773 4.15901 8.15643L4.16159 8.15914L4.16664 8.16467C4.2098 8.21178 4.25396 8.2579 4.29884 8.30402L4.34115 8.34669C4.37583 8.38162 4.41113 8.41593 4.44667 8.45012L4.48984 8.4912C4.53744 8.53597 4.5854 8.58 4.63447 8.6228L4.63669 8.62476L4.6619 8.64616C4.70507 8.68367 4.74897 8.72057 4.79325 8.75709L4.84761 8.80051C4.88376 8.82941 4.92029 8.85807 4.95706 8.88611L5.01573 8.9305C5.05631 8.96039 5.09727 8.98978 5.13859 9.01868L5.18323 9.05042L5.19565 9.05927C5.23476 9.08633 5.27498 9.11228 5.31495 9.13823L5.3666 9.17266C5.4281 9.2114 5.49045 9.2499 5.55342 9.28704L5.60507 9.31619C5.65144 9.34288 5.69805 9.36919 5.74528 9.39477L5.82288 9.43487L5.92324 9.48701L5.94636 9.49821L5.98743 9.51801C6.03995 9.5431 6.09296 9.56782 6.14645 9.59167L6.18003 9.60668C6.24128 9.63349 6.30314 9.65919 6.36549 9.68391L6.41075 9.70162C6.46843 9.72401 6.52697 9.74577 6.58576 9.76644L6.60777 9.77406C6.67222 9.79669 6.7374 9.81748 6.80295 9.83801L6.85005 9.85203C6.91671 9.8722 6.98276 9.89606 7.0515 9.90885C11.424 10.7062 12.6941 7.28139 12.6941 7.28139C11.6273 8.67113 9.73394 9.03763 7.93995 8.62956C7.87194 8.61419 7.80602 8.59291 7.73973 8.57348L7.6898 8.55823C7.62514 8.53851 7.56085 8.51759 7.49696 8.4955L7.47052 8.48604C7.41355 8.46585 7.35689 8.44482 7.30055 8.42294L7.25283 8.40425C7.19122 8.3799 7.12985 8.35444 7.06934 8.328L7.03269 8.31164C6.98078 8.28831 6.92916 8.26432 6.87785 8.2397L6.83308 8.21817C6.79287 8.19862 6.75314 8.17783 6.71329 8.1573L6.63348 8.11536C6.5849 8.08953 6.5373 8.06247 6.48995 8.03493L6.4415 8.00799C6.3786 7.97074 6.31628 7.93253 6.25456 7.89337L6.20414 7.85979C6.15935 7.83103 6.11503 7.80155 6.07119 7.77137L6.02827 7.74124C5.98602 7.71147 5.94412 7.68121 5.90257 7.65047L5.84686 7.60829C5.80874 7.57914 5.77086 7.54975 5.73347 7.51962L5.68292 7.47903C5.6352 7.43992 5.5881 7.40032 5.54161 7.35986L5.52612 7.34694C5.47593 7.30267 5.4264 7.25765 5.37755 7.21191L5.33573 7.17157C5.29951 7.13734 5.26392 7.10244 5.22898 7.06691L5.18717 7.02509C5.14265 6.97959 5.09899 6.93347 5.05619 6.88661L5.04967 6.8796C5.00442 6.83008 4.96014 6.77969 4.91685 6.72845L4.88204 6.68713C4.84965 6.64817 4.81779 6.60877 4.78648 6.56894L4.75143 6.52528C4.71392 6.47682 4.6771 6.42782 4.64099 6.37831C3.64505 5.01969 3.28717 3.14589 4.08325 1.60709M6.18397 1.40712C5.53017 2.34796 5.56559 3.6077 6.07574 4.60265C6.16109 4.76991 6.25769 4.93119 6.36488 5.08537C6.46277 5.22594 6.57149 5.39295 6.70149 5.50573C6.74859 5.55763 6.79791 5.6083 6.84821 5.65799L6.88683 5.69623C6.93565 5.74358 6.98534 5.7902 7.03662 5.83545L7.04277 5.84074L7.04425 5.84222C7.10107 5.89203 7.15973 5.93987 7.21926 5.98709L7.25898 6.01809C7.31875 6.06384 7.37963 6.10885 7.44211 6.15177L7.4474 6.15583L7.53102 6.21081L7.57063 6.237C7.61527 6.26566 7.66041 6.29345 7.7064 6.32014L7.72559 6.33145C7.76519 6.35421 7.80528 6.37659 7.8455 6.39848L7.88817 6.42062L7.97205 6.46416L7.98472 6.46994C8.0424 6.49822 8.10045 6.52565 8.15985 6.55147L8.19847 6.56746C8.24594 6.58751 8.29378 6.60719 8.34199 6.62564L8.40348 6.64826C8.44727 6.6645 8.49105 6.67938 8.53532 6.69414L8.59485 6.7132C8.65769 6.73263 8.71993 6.75735 8.78535 6.7683C12.1613 7.32751 12.9407 4.72822 12.9407 4.72822C12.2382 5.74014 10.8776 6.22286 9.42574 5.84603C9.36157 5.82911 9.29781 5.8107 9.2345 5.79081L9.17706 5.77224C9.1322 5.75779 9.08763 5.74246 9.04338 5.72624L8.98299 5.70374C8.93467 5.68513 8.88666 5.66574 8.83898 5.64556L8.80023 5.62921C8.74088 5.60332 8.68216 5.57601 8.62412 5.5473L8.53582 5.50241L8.4849 5.47621C8.44727 5.4558 8.40988 5.43464 8.37311 5.413L8.34642 5.39787C8.30075 5.37127 8.25565 5.34372 8.21113 5.31523L8.1703 5.28805L8.08274 5.23C8.02082 5.18702 7.95996 5.14253 7.90023 5.09656L7.85915 5.06409C7.22368 4.56243 6.71994 3.87666 6.48048 3.09915C6.22947 2.29274 6.28358 1.38756 6.71846 0.652848M8.54443 0.589141C8.15899 1.15635 8.12111 1.86093 8.3886 2.48742C8.67061 3.1524 9.24852 3.67398 9.92309 3.92143L10.007 3.95033L10.0439 3.96214C10.0836 3.97468 10.1231 3.9892 10.1641 3.99682C12.0282 4.35705 12.5338 3.04036 12.6684 2.84642C12.2255 3.4841 11.4812 3.63721 10.5679 3.41547C10.4932 3.39641 10.4195 3.37363 10.347 3.34721C10.2577 3.31545 10.1701 3.27908 10.0846 3.23825C9.92232 3.16011 9.76821 3.0661 9.62448 2.95759C8.80724 2.3375 8.29968 1.15475 8.83295 0.191406" fill="#0868AC"/>
<path d="M8.12487 11.8334H7.60513C7.59043 11.834 7.5763 11.8393 7.56484 11.8485C7.55339 11.8577 7.54522 11.8704 7.54155 11.8847L7.35707 12.7382L7.17259 13.5917C7.16897 13.606 7.16083 13.6187 7.14939 13.6279C7.13795 13.6371 7.12383 13.6424 7.10913 13.643H6.74128C6.37737 13.643 6.41943 13.3912 6.49396 13.0464L6.49617 13.0359L6.50429 12.9924L6.50577 12.9843L6.52237 12.8957L6.5402 12.8009L6.55914 12.7044L6.64302 12.2946L6.72702 11.8848C6.72862 11.8785 6.72873 11.872 6.72735 11.8657C6.72596 11.8594 6.72311 11.8535 6.71904 11.8485C6.71496 11.8435 6.70976 11.8395 6.70386 11.8368C6.69797 11.8342 6.69153 11.833 6.68508 11.8333H6.15169C6.137 11.8338 6.12288 11.8391 6.11147 11.8484C6.10007 11.8577 6.09199 11.8704 6.08848 11.8847L5.97373 12.4288L5.85911 12.973L5.85886 12.9737L5.84829 13.0244C5.7162 13.6274 5.75113 14.2026 6.46912 14.2207L6.49002 14.221H7.61694C7.63163 14.2205 7.64576 14.2152 7.65719 14.2059C7.66863 14.1967 7.67677 14.184 7.6804 14.1697L7.92342 13.0273L8.16644 11.8848C8.17246 11.8565 8.15377 11.8335 8.12487 11.8334ZM2.55904 11.8274H1.98839C1.97365 11.8279 1.95947 11.8332 1.94794 11.8424C1.93642 11.8516 1.92813 11.8643 1.92431 11.8785L1.8702 12.1174L1.81609 12.3562C1.80981 12.3844 1.82814 12.4074 1.85704 12.4074H2.43212C2.44685 12.4068 2.461 12.4015 2.47248 12.3923C2.48396 12.3831 2.49215 12.3704 2.49583 12.3561L2.54809 12.1174L2.60036 11.8786C2.60639 11.8505 2.58794 11.8274 2.55904 11.8274ZM2.3935 12.5707H1.8183C1.80356 12.5713 1.7894 12.5766 1.77787 12.5858C1.76635 12.595 1.75806 12.6076 1.75422 12.6219L1.67342 12.9797L1.59274 13.3375L1.57024 13.4401L1.49263 13.8053L1.41515 14.1707C1.40913 14.1989 1.39671 14.2444 1.38748 14.2717C1.38748 14.2717 1.27999 14.5915 1.09933 14.5878L1.0767 14.5873L0.920383 14.5845C0.905698 14.5848 0.89139 14.5899 0.87979 14.5989C0.868189 14.6079 0.859786 14.6204 0.855815 14.6345L0.796167 14.8853L0.736642 15.1359C0.729878 15.164 0.74808 15.1871 0.776736 15.1876C0.879183 15.1888 1.10867 15.1914 1.24752 15.1914C1.69876 15.1914 1.93673 14.9414 2.08911 14.2219L2.26756 13.3962L2.43495 12.6217C2.44097 12.5938 2.42228 12.5707 2.3935 12.5707ZM12.9846 12.3771L12.9608 12.2786L12.9373 12.1777L12.9254 12.1268C12.8786 11.9452 12.7415 11.8405 12.4436 11.8405L11.98 11.84L11.553 11.8394H11.0725C11.0578 11.84 11.0437 11.8452 11.0322 11.8545C11.0208 11.8637 11.0127 11.8765 11.0091 11.8907L10.9878 11.9911L10.9628 12.1096L10.9557 12.1429L10.7394 13.1563L10.534 14.1183C10.5279 14.1466 10.5259 14.1813 10.5294 14.1953C10.5328 14.2095 10.5883 14.221 10.617 14.221H11.0504C11.0793 14.221 11.1159 14.2159 11.1316 14.2095C11.1474 14.2031 11.1706 14.1464 11.1764 14.1182L11.2534 13.7371L11.3305 13.3558L11.3306 13.3552L11.3409 13.3044L11.4344 12.8666L11.5169 12.4799C11.5206 12.4657 11.5287 12.453 11.5401 12.4438C11.5515 12.4346 11.5656 12.4292 11.5803 12.4286L12.9441 12.428C12.973 12.4283 12.9912 12.4053 12.9846 12.3771ZM14.7403 11.4867L14.6352 11.4871H14.1987C14.1828 11.488 14.1671 11.4923 14.153 11.4998C14.1388 11.5073 14.1265 11.5178 14.1167 11.5305L13.1514 12.9446C13.1352 12.9684 13.1166 12.965 13.1102 12.9369L13.0391 12.6254C13.0353 12.6111 13.027 12.5985 13.0154 12.5893C13.0039 12.5801 12.9897 12.5748 12.9749 12.5743H12.3545C12.3256 12.5743 12.3085 12.5969 12.3163 12.6246L12.5944 13.5987C12.6023 13.6265 12.6029 13.672 12.5958 13.7001L12.4746 14.1715C12.4674 14.1995 12.4851 14.2223 12.514 14.2223H13.1273C13.1421 14.2217 13.1564 14.2164 13.1681 14.2073C13.1799 14.1982 13.1885 14.1857 13.1927 14.1715L13.314 13.7001C13.3236 13.6668 13.3387 13.6355 13.3586 13.6072L14.9257 11.5274C14.9432 11.5043 14.9337 11.4855 14.9049 11.4857L14.7403 11.4867ZM9.81026 12.7066V12.7061C9.80813 12.7209 9.80079 12.7346 9.78955 12.7445C9.7783 12.7544 9.76389 12.76 9.74889 12.7603H8.96215C8.93485 12.7603 8.92108 12.7419 8.92513 12.719L8.92587 12.7172L8.92538 12.7174L8.92575 12.7148L8.92932 12.7014C9.00446 12.5017 9.15745 12.3706 9.44512 12.3706C9.76906 12.3705 9.83228 12.5286 9.81026 12.7066ZM9.57942 11.7985C8.56958 11.7985 8.33025 12.4114 8.19595 13.0302C8.06178 13.6608 8.07321 14.2503 9.11834 14.2503H9.24502L9.2765 14.2502H9.28388L9.40933 14.2498H9.41154C9.68752 14.2487 9.96436 14.2466 10.0764 14.2458C10.091 14.245 10.105 14.2396 10.1163 14.2303C10.1275 14.221 10.1355 14.2083 10.139 14.1941L10.1813 13.9874L10.1895 13.9471L10.24 13.7004C10.2416 13.6942 10.2417 13.6876 10.2403 13.6813C10.2389 13.675 10.2361 13.6691 10.232 13.6641C10.2279 13.6591 10.2227 13.6552 10.2168 13.6525C10.2109 13.6499 10.2045 13.6487 10.198 13.649H9.25855C8.8848 13.649 8.77386 13.5498 8.81482 13.2578H10.3166L10.3165 13.2579L10.3175 13.2578C10.3293 13.2573 10.3408 13.2534 10.3505 13.2465C10.3602 13.2396 10.3677 13.2301 10.3722 13.2191L10.3757 13.206L10.3756 13.2062C10.5986 12.3651 10.5346 11.7986 9.57942 11.7985ZM4.80635 12.7034L4.79209 12.7537L4.67869 13.1557L4.5653 13.5575C4.56067 13.5718 4.55178 13.5842 4.53984 13.5933C4.5279 13.6023 4.51348 13.6075 4.49852 13.6081H3.89835C3.44306 13.6081 3.33213 13.2519 3.44306 12.7268C3.55387 12.1896 3.77118 11.8557 4.21934 11.8218C4.83181 11.7756 4.9543 12.2063 4.80635 12.7034ZM5.21811 13.5772C5.21811 13.5772 5.5011 12.89 5.5653 12.4932C5.65298 11.962 5.38697 11.1914 4.35955 11.1914C3.33803 11.1914 2.8943 11.927 2.72507 12.7268C2.55584 13.5323 2.77759 14.2386 3.79332 14.2328L4.59469 14.2299L5.34355 14.2272C5.3584 14.2264 5.37266 14.2212 5.3844 14.2121C5.39615 14.2029 5.40481 14.1905 5.40923 14.1763L5.53972 13.6787C5.54697 13.6506 5.52938 13.6277 5.50048 13.6275L5.37541 13.6268L5.25033 13.626C5.22586 13.6259 5.21184 13.6099 5.21479 13.5889L5.21811 13.5772ZM10.2753 13.1171C10.2753 13.1216 10.2744 13.1261 10.2727 13.1303C10.2709 13.1345 10.2684 13.1383 10.2652 13.1415C10.262 13.1447 10.2582 13.1472 10.2541 13.149C10.2499 13.1507 10.2454 13.1516 10.2409 13.1516C10.2364 13.1516 10.2319 13.1507 10.2277 13.149C10.2235 13.1473 10.2197 13.1448 10.2165 13.1416C10.2133 13.1384 10.2108 13.1346 10.209 13.1304C10.2073 13.1262 10.2064 13.1218 10.2064 13.1172C10.2064 13.1081 10.21 13.0993 10.2164 13.0929C10.2229 13.0864 10.2316 13.0828 10.2408 13.0827C10.2499 13.0827 10.2587 13.0863 10.2651 13.0928C10.2716 13.0992 10.2753 13.108 10.2753 13.1171Z" fill="#131B28"/>
</svg>
