<svg width="15" height="15" viewBox="0 0 15 15" fill="none" xmlns="http://www.w3.org/2000/svg">
<g clip-path="url(#clip0_1502_3452)">
<path d="M12.5823 0.305664L14.8474 2.57073L13.1206 4.29821L10.8556 2.03315L12.5823 0.305664ZM4.28613 10.8669H6.55119L12.053 5.36506L9.78797 3.09999L4.28613 8.60183V10.8669Z" fill="#EAEAEA"/>
<path d="M12.5678 13.1801H4.36257C4.3429 13.1801 4.32246 13.1877 4.30279 13.1877C4.27781 13.1877 4.25284 13.1809 4.22711 13.1801H1.97259V2.58489H7.15442L8.66802 1.07129H1.97259C1.13784 1.07129 0.458984 1.74938 0.458984 2.58489V13.1801C0.458984 14.0156 1.13784 14.6937 1.97259 14.6937H12.5678C12.9693 14.6937 13.3543 14.5343 13.6381 14.2504C13.922 13.9666 14.0814 13.5816 14.0814 13.1801V6.62017L12.5678 8.13377V13.1801Z" fill="#EAEAEA"/>
</g>
<defs>
<clipPath id="clip0_1502_3452">
<rect width="15" height="15" fill="white"/>
</clipPath>
</defs>
</svg>
