<svg width="15" height="15" viewBox="0 0 15 15" fill="currentColor" xmlns="http://www.w3.org/2000/svg">
<path d="M13.5 1H1.5C0.675 1 0.00749999 1.675 0.00749999 2.5L0 11.5C0 12.325 0.675 13 1.5 13H13.5C14.325 13 15 12.325 15 11.5V2.5C15 1.675 14.325 1 13.5 1ZM13.2 4.1875L7.8975 7.5025C7.6575 7.6525 7.3425 7.6525 7.1025 7.5025L1.8 4.1875C1.7248 4.14528 1.65894 4.08825 1.60642 4.01984C1.55389 3.95143 1.5158 3.87308 1.49443 3.78953C1.47307 3.70597 1.46888 3.61895 1.48212 3.53373C1.49536 3.44851 1.52575 3.36686 1.57146 3.29373C1.61717 3.22059 1.67724 3.15749 1.74804 3.10825C1.81885 3.059 1.8989 3.02463 1.98337 3.00722C2.06784 2.98981 2.15496 2.98973 2.23947 3.00696C2.32397 3.0242 2.4041 3.0584 2.475 3.1075L7.5 6.25L12.525 3.1075C12.5959 3.0584 12.676 3.0242 12.7605 3.00696C12.845 2.98973 12.9322 2.98981 13.0166 3.00722C13.1011 3.02463 13.1812 3.059 13.252 3.10825C13.3228 3.15749 13.3828 3.22059 13.4285 3.29373C13.4742 3.36686 13.5046 3.44851 13.5179 3.53373C13.5311 3.61895 13.5269 3.70597 13.5056 3.78953C13.4842 3.87308 13.4461 3.95143 13.3936 4.01984C13.3411 4.08825 13.2752 4.14528 13.2 4.1875Z" fill="currentColor"/>
</svg>
