<svg width="15" height="15" viewBox="0 0 15 15" fill="none" xmlns="http://www.w3.org/2000/svg">
<g clip-path="url(#clip0_3363_2950)">
<path d="M7.75056 3.55698C7.75056 3.36004 7.75056 3.26077 7.79583 3.17977C7.83679 3.10999 7.89878 3.05496 7.97292 3.02254C8.05868 2.9876 8.14603 2.99872 8.32074 3.01936C9.10305 3.11367 9.84976 3.40052 10.494 3.85424C11.1382 4.30796 11.6599 4.91437 12.0123 5.61917C12.3646 6.32397 12.5367 7.10516 12.513 7.89278C12.4894 8.6804 12.2708 9.44986 11.8768 10.1323C11.4828 10.8147 10.9257 11.3887 10.2554 11.8029C9.58511 12.2172 8.82254 12.4588 8.03598 12.506C7.24942 12.5532 6.46343 12.4046 5.74839 12.0735C5.03336 11.7424 4.4116 11.2391 3.9388 10.6087C3.83318 10.4682 3.77997 10.3975 3.76806 10.3062C3.75893 10.2255 3.77561 10.1441 3.81571 10.0735C3.86336 9.9941 3.94833 9.94486 4.11906 9.84639L7.46468 7.9151C7.56871 7.85475 7.62112 7.82457 7.65845 7.78248C7.69206 7.74529 7.71749 7.70147 7.73309 7.65383C7.75056 7.60063 7.75056 7.54027 7.75056 7.41957V3.55698Z" fill="#EAEAEA"/>
<path d="M7.75 14.5C11.4779 14.5 14.5 11.4779 14.5 7.75C14.5 4.02208 11.4779 1 7.75 1C4.02208 1 1 4.02208 1 7.75C1 11.4779 4.02208 14.5 7.75 14.5Z" stroke="#EAEAEA"/>
</g>
<defs>
<clipPath id="clip0_3363_2950">
<rect width="15" height="15" fill="white"/>
</clipPath>
</defs>
</svg>
