<svg width="15" height="15" viewBox="0 0 15 15" fill="none" xmlns="http://www.w3.org/2000/svg">
<path d="M10.8333 1.25C10.8333 0.918479 10.965 0.600537 11.1995 0.366117C11.4339 0.131696 11.7518 0 12.0833 0H13.75C14.0815 0 14.3995 0.131696 14.6339 0.366117C14.8683 0.600537 15 0.918479 15 1.25V13.75C15 14.0815 14.8683 14.3995 14.6339 14.6339C14.3995 14.8683 14.0815 15 13.75 15H12.0833C11.7518 15 11.4339 14.8683 11.1995 14.6339C10.965 14.3995 10.8333 14.0815 10.8333 13.75V1.25ZM5.41667 6.25C5.41667 5.91848 5.54836 5.60054 5.78278 5.36612C6.0172 5.1317 6.33515 5 6.66667 5H8.33333C8.66485 5 8.9828 5.1317 9.21722 5.36612C9.45164 5.60054 9.58333 5.91848 9.58333 6.25V13.75C9.58333 14.0815 9.45164 14.3995 9.21722 14.6339C8.9828 14.8683 8.66485 15 8.33333 15H6.66667C6.33515 15 6.0172 14.8683 5.78278 14.6339C5.54836 14.3995 5.41667 14.0815 5.41667 13.75V6.25ZM1.25 10C0.918479 10 0.600537 10.1317 0.366117 10.3661C0.131696 10.6005 0 10.9185 0 11.25V13.75C0 14.0815 0.131696 14.3995 0.366117 14.6339C0.600537 14.8683 0.918479 15 1.25 15H2.91667C3.24819 15 3.56613 14.8683 3.80055 14.6339C4.03497 14.3995 4.16667 14.0815 4.16667 13.75V11.25C4.16667 10.9185 4.03497 10.6005 3.80055 10.3661C3.56613 10.1317 3.24819 10 2.91667 10H1.25Z" fill="#F4F4F4"/>
</svg>
