<svg width="12" height="16" viewBox="0 0 12 16" fill="none" xmlns="http://www.w3.org/2000/svg">
<path d="M3.59313 12.1061C3.59313 12.1061 3.01994 12.4394 4.00106 12.5522C5.18969 12.6878 5.79715 12.6684 7.10704 12.4205C7.10704 12.4205 7.45144 12.6364 7.93234 12.8235C4.996 14.0819 1.28674 12.7505 3.59313 12.1061ZM3.23431 10.4639C3.23431 10.4639 2.59142 10.9398 3.57328 11.0413C4.84299 11.1723 5.8457 11.183 7.58081 10.8489C7.58081 10.8489 7.82081 11.0922 8.19817 11.2253C4.64791 12.2634 0.693573 11.3071 3.23431 10.4639Z" fill="#5382A1"/>
<path d="M6.25933 7.67834C6.98287 8.51132 6.06924 9.26092 6.06924 9.26092C6.06924 9.26092 7.90637 8.31254 7.06266 7.12491C6.27466 6.01745 5.67034 5.4671 8.94178 3.56982C8.94178 3.56982 3.80672 4.85235 6.25933 7.67834Z" fill="#E76F00"/>
<path d="M10.1428 13.3206C10.1428 13.3206 10.567 13.6701 9.67563 13.9405C7.98073 14.4539 2.62122 14.609 1.13236 13.9609C0.597173 13.7281 1.60084 13.405 1.91653 13.3372C2.24577 13.2658 2.43395 13.2791 2.43395 13.2791C1.83875 12.8598 -1.4132 14.1024 0.782141 14.4582C6.76908 15.4292 11.6957 14.0211 10.1428 13.3206ZM3.86875 8.7621C3.86875 8.7621 1.14261 9.40964 2.90339 9.64473C3.64682 9.74427 5.12886 9.72177 6.50937 9.60607C7.63759 9.51096 8.77046 9.30858 8.77046 9.30858C8.77046 9.30858 8.37264 9.47895 8.08483 9.67547C5.31644 10.4036 -0.0316053 10.0649 1.50803 9.32009C2.8101 8.6907 3.86875 8.7621 3.86875 8.7621ZM8.75921 11.4957C11.5735 10.0333 10.2723 8.62799 9.36406 8.81734C9.14144 8.86364 9.0422 8.90377 9.0422 8.90377C9.0422 8.90377 9.12485 8.77435 9.28267 8.71832C11.0794 8.08664 12.4612 10.5813 8.70267 11.5694C8.70267 11.5694 8.74623 11.5305 8.75921 11.4957Z" fill="#5382A1"/>
<path d="M7.06257 0.505903C7.06257 0.505903 8.62114 2.06504 5.58434 4.46241C3.14919 6.38557 5.02905 7.48209 5.58334 8.73491C4.16188 7.45243 3.1187 6.32342 3.81857 5.27268C4.84573 3.73018 7.69139 2.98241 7.06257 0.505903Z" fill="#E76F00"/>
<path d="M4.1453 15.4586C6.84659 15.6315 10.9947 15.3627 11.0929 14.0845C11.0929 14.0845 10.9041 14.5691 8.86048 14.9539C6.55487 15.3877 3.71126 15.3371 2.02466 15.059C2.0247 15.059 2.36988 15.3448 4.1453 15.4586Z" fill="#5382A1"/>
</svg>
