<svg width="15" height="15" viewBox="0 0 15 15" fill="none" xmlns="http://www.w3.org/2000/svg">
<path d="M10 1.25L13.125 4.375V13.13C13.1248 13.2945 13.0594 13.4522 12.943 13.5684C12.8266 13.6847 12.6689 13.75 12.5044 13.75H2.49563C2.33149 13.7489 2.17439 13.6832 2.05826 13.5672C1.94214 13.4512 1.87631 13.2941 1.875 13.13V1.87C1.875 1.5275 2.15313 1.25 2.49563 1.25H10ZM11.0356 7.5L8.825 5.29L7.94187 6.175L9.2675 7.5L7.9425 8.82563L8.82563 9.71L11.0356 7.5ZM3.96437 7.5L6.17437 9.71L7.05813 8.82563L5.7325 7.5L7.0575 6.17437L6.175 5.29L3.96437 7.5Z" fill="#EAEAEA"/>
</svg>
