<svg width="18" height="18" viewBox="0 0 18 18" fill="none" xmlns="http://www.w3.org/2000/svg">
<path d="M17.8249 7.23731H17.0999V7.19996H8.99996V10.7999H14.0863C13.3442 12.8956 11.3503 14.3999 8.99996 14.3999C6.01782 14.3999 3.59998 11.9821 3.59998 8.99996C3.59998 6.01782 6.01782 3.59998 8.99996 3.59998C10.3765 3.59998 11.6288 4.11928 12.5824 4.96752L15.128 2.42189C13.5206 0.923845 11.3705 0 8.99996 0C4.02973 0 0 4.02973 0 8.99996C0 13.9702 4.02973 17.9999 8.99996 17.9999C13.9702 17.9999 17.9999 13.9702 17.9999 8.99996C17.9999 8.39651 17.9378 7.80746 17.8249 7.23731Z" fill="#FFC107"/>
<path d="M1.03772 4.81093L3.99465 6.97947C4.79475 4.99858 6.73244 3.59998 8.99998 3.59998C10.3765 3.59998 11.6289 4.11928 12.5824 4.96753L15.128 2.42189C13.5207 0.923845 11.3706 0 8.99998 0C5.5431 0 2.54521 1.95164 1.03772 4.81093Z" fill="#FF3D00"/>
<path d="M8.99994 17.9999C11.3246 17.9999 13.4369 17.1102 15.034 15.6635L12.2485 13.3064C11.3449 13.9909 10.2217 14.3999 8.99994 14.3999C6.65905 14.3999 4.67141 12.9073 3.92262 10.8242L0.987732 13.0855C2.47722 16.0001 5.50211 17.9999 8.99994 17.9999Z" fill="#4CAF50"/>
<path d="M17.8248 7.23755H17.0999V7.2002H8.99994V10.8002H14.0863C13.7299 11.8068 13.0823 12.6749 12.2471 13.3071L12.2485 13.3062L15.034 15.6633C14.8369 15.8424 17.9999 13.5002 17.9999 9.00019C17.9999 8.39674 17.9378 7.80769 17.8248 7.23755Z" fill="#1976D2"/>
</svg>
