<svg width="11" height="15" viewBox="0 0 11 15" fill="none" xmlns="http://www.w3.org/2000/svg">
<path d="M0.148424 0.975C0.599924 0 2.15017 0 5.24992 0C8.34967 0 9.89993 0 10.3514 0.975C10.3904 1.0575 10.4227 1.14525 10.4489 1.2345C10.7564 2.27475 9.65993 3.48075 7.46842 5.892L5.99992 7.5L7.46842 9.10725C9.65993 11.5192 10.7557 12.7253 10.4489 13.7648C10.4229 13.854 10.3903 13.9413 10.3514 14.0258C9.89993 15 8.34967 15 5.24992 15C2.15017 15 0.599924 15 0.148424 14.025C0.109626 13.941 0.0770384 13.8543 0.0509241 13.7655C-0.256576 12.7253 0.839924 11.5192 3.03142 9.108L4.49992 7.5L3.03142 5.89275C0.839924 3.48 -0.255076 2.27475 0.0509241 1.23525C0.0767993 1.14592 0.109392 1.05942 0.148424 0.975Z" fill="#EAEAEA"/>
</svg>
