<svg width="11" height="15" viewBox="0 0 11 15" fill="none" xmlns="http://www.w3.org/2000/svg">
<path d="M2.625 10.125V9.375H3.375V10.125H2.625Z" fill="#EAEAEA"/>
<path fill-rule="evenodd" clip-rule="evenodd" d="M3.75 0C3.45163 0 3.16548 0.118526 2.9545 0.329505C2.74353 0.540483 2.625 0.826631 2.625 1.125H1.125C0.826631 1.125 0.540483 1.24353 0.329505 1.4545C0.118526 1.66548 0 1.95163 0 2.25V13.875C0 14.1734 0.118526 14.4595 0.329505 14.6705C0.540483 14.8815 0.826631 15 1.125 15H9.375C9.67337 15 9.95952 14.8815 10.1705 14.6705C10.3815 14.4595 10.5 14.1734 10.5 13.875V2.25C10.5 1.95163 10.3815 1.66548 10.1705 1.4545C9.95952 1.24353 9.67337 1.125 9.375 1.125H7.875C7.875 0.826631 7.75647 0.540483 7.5455 0.329505C7.33452 0.118526 7.04837 0 6.75 0H3.75ZM3.375 1.125C3.375 1.02554 3.41451 0.930161 3.48483 0.859835C3.55516 0.789509 3.65054 0.75 3.75 0.75H6.75C6.84946 0.75 6.94484 0.789509 7.01517 0.859835C7.08549 0.930161 7.125 1.02554 7.125 1.125V1.875C7.125 1.97446 7.08549 2.06984 7.01517 2.14016C6.94484 2.21049 6.84946 2.25 6.75 2.25H3.75C3.65054 2.25 3.55516 2.21049 3.48483 2.14016C3.41451 2.06984 3.375 1.97446 3.375 1.875V1.125ZM2.25 6C2.15054 6 2.05516 6.03951 1.98484 6.10983C1.91451 6.18016 1.875 6.27554 1.875 6.375C1.875 6.47446 1.91451 6.56984 1.98484 6.64017C2.05516 6.71049 2.15054 6.75 2.25 6.75H4.875C4.97446 6.75 5.06984 6.71049 5.14017 6.64017C5.21049 6.56984 5.25 6.47446 5.25 6.375C5.25 6.27554 5.21049 6.18016 5.14017 6.10983C5.06984 6.03951 4.97446 6 4.875 6H2.25ZM1.875 4.5C1.875 4.40054 1.91451 4.30516 1.98484 4.23484C2.05516 4.16451 2.15054 4.125 2.25 4.125H8.0625C8.16196 4.125 8.25734 4.16451 8.32767 4.23484C8.39799 4.30516 8.4375 4.40054 8.4375 4.5C8.4375 4.59946 8.39799 4.69484 8.32767 4.76517C8.25734 4.83549 8.16196 4.875 8.0625 4.875H2.25C2.15054 4.875 2.05516 4.83549 1.98484 4.76517C1.91451 4.69484 1.875 4.59946 1.875 4.5ZM1.875 9C1.875 8.90054 1.91451 8.80516 1.98484 8.73483C2.05516 8.66451 2.15054 8.625 2.25 8.625H3.75C3.84946 8.625 3.94484 8.66451 4.01517 8.73483C4.08549 8.80516 4.125 8.90054 4.125 9V10.5C4.125 10.5995 4.08549 10.6948 4.01517 10.7652C3.94484 10.8355 3.84946 10.875 3.75 10.875H2.25C2.15054 10.875 2.05516 10.8355 1.98484 10.7652C1.91451 10.6948 1.875 10.5995 1.875 10.5V9ZM6.75 10.5C7.04837 10.5 7.33452 10.3815 7.5455 10.1705C7.75647 9.95952 7.875 9.67337 7.875 9.375C7.875 9.07663 7.75647 8.79048 7.5455 8.5795C7.33452 8.36853 7.04837 8.25 6.75 8.25C6.45163 8.25 6.16548 8.36853 5.9545 8.5795C5.74353 8.79048 5.625 9.07663 5.625 9.375C5.625 9.67337 5.74353 9.95952 5.9545 10.1705C6.16548 10.3815 6.45163 10.5 6.75 10.5ZM4.5 12.1875C4.5 11.394 5.99887 10.9943 6.75 10.9943C7.50113 10.9943 9 11.394 9 12.1875V13.125H4.5V12.1875Z" fill="#F4F4F4"/>
</svg>
