<svg width="15" height="15" viewBox="0 0 15 15" fill="none" xmlns="http://www.w3.org/2000/svg">
<path d="M7.5 0C6.51509 0 5.53982 0.19881 4.62987 0.585077C3.71993 0.971345 2.89314 1.53751 2.1967 2.25124C0.790176 3.69268 0 5.64769 0 7.6862C0 11.0835 2.1525 13.9658 5.13 14.9881C5.505 15.0496 5.625 14.8113 5.625 14.6038V13.3048C3.5475 13.766 3.105 12.2749 3.105 12.2749C2.76 11.3833 2.2725 11.145 2.2725 11.145C1.59 10.6684 2.325 10.6838 2.325 10.6838C3.075 10.7376 3.4725 11.4755 3.4725 11.4755C4.125 12.6438 5.2275 12.2979 5.655 12.1135C5.7225 11.6139 5.9175 11.2757 6.1275 11.0835C4.4625 10.8913 2.715 10.2303 2.715 7.30189C2.715 6.44872 3 5.76465 3.4875 5.21893C3.4125 5.02678 3.15 4.22741 3.5625 3.18977C3.5625 3.18977 4.1925 2.98225 5.625 3.97377C6.2175 3.80467 6.8625 3.72012 7.5 3.72012C8.1375 3.72012 8.7825 3.80467 9.375 3.97377C10.8075 2.98225 11.4375 3.18977 11.4375 3.18977C11.85 4.22741 11.5875 5.02678 11.5125 5.21893C12 5.76465 12.285 6.44872 12.285 7.30189C12.285 10.238 10.53 10.8837 8.8575 11.0758C9.1275 11.3141 9.375 11.7829 9.375 12.4978V14.6038C9.375 14.8113 9.495 15.0573 9.8775 14.9881C12.855 13.9581 15 11.0835 15 7.6862C15 6.67684 14.806 5.67735 14.4291 4.74482C14.0522 3.81229 13.4997 2.96497 12.8033 2.25124C12.1069 1.53751 11.2801 0.971345 10.3701 0.585077C9.46018 0.19881 8.48491 0 7.5 0Z" fill="#EAEAEA"/>
</svg>
