<svg width="17" height="13" viewBox="0 0 17 13" fill="none" xmlns="http://www.w3.org/2000/svg">
<path opacity="0.997" fill-rule="evenodd" clip-rule="evenodd" d="M12.0347 9.71915C9.53658 9.71915 7.04017 9.71915 4.54549 9.71915C3.88737 9.69269 3.26615 9.5383 2.68171 9.25605C2.26469 9.04789 1.89255 8.78127 1.5653 8.45614C1.56323 8.45013 1.55909 8.4461 1.55289 8.44411C1.00299 7.88334 0.615344 7.22777 0.389966 6.47743C0.120546 5.55212 0.083332 4.6179 0.278325 3.67475C0.465224 2.78701 0.868372 2.00916 1.48777 1.34119C2.25002 0.563193 3.18552 0.123145 4.2943 0.0210501C4.42163 0.0111482 4.54878 0.00413184 4.67574 0C7.09047 0 9.50526 0 11.92 0C13.0041 0.0151826 13.9582 0.361004 14.7823 1.03747C15.4547 1.62819 15.9229 2.3469 16.1872 3.19361C16.3234 3.63119 16.404 4.07825 16.429 4.5348C16.4354 4.69176 16.4385 4.84313 16.4383 4.98888C16.4233 5.7512 16.2549 6.47989 15.9329 7.17509C15.6074 7.86138 15.135 8.43377 14.5156 8.89218C13.7758 9.41164 12.9488 9.68733 12.0347 9.71915ZM13.9512 2.46587C14.0017 2.51956 14.0492 2.57569 14.0939 2.63427C14.3961 3.03007 14.5997 3.47113 14.7048 3.95743C14.8433 4.61539 14.8309 5.26895 14.6676 5.9181C14.5324 6.43906 14.2823 6.89813 13.9171 7.29538C13.4036 7.81441 12.774 8.09209 12.0285 8.12836C9.53826 8.13137 7.0491 8.13239 4.56099 8.13137C3.51448 8.05384 2.73818 7.5727 2.23204 6.68793C1.96543 6.18802 1.82174 5.65774 1.80098 5.09714C1.75884 4.49604 1.85498 3.90564 2.08939 3.32592C2.30277 2.82039 2.63459 2.40439 3.08485 2.07795C3.50965 1.79262 3.98102 1.63324 4.49897 1.59981C4.53662 1.59569 4.57483 1.59169 4.61371 1.58778C7.06777 1.58778 9.52176 1.58778 11.9758 1.58778C12.6472 1.61233 13.2354 1.83586 13.7404 2.25838C13.8156 2.32342 13.8859 2.39259 13.9512 2.46587Z" fill="#ED0003"/>
<path opacity="0.271" fill-rule="evenodd" clip-rule="evenodd" d="M1.55319 8.44434C1.54868 8.44899 1.54868 8.44899 1.55319 8.44434Z" fill="#ED0003"/>
<path opacity="0.271" fill-rule="evenodd" clip-rule="evenodd" d="M1.56564 8.45654C1.56113 8.4612 1.56113 8.4612 1.56564 8.45654Z" fill="#ED0003"/>
<path opacity="0.271" fill-rule="evenodd" clip-rule="evenodd" d="M2.6821 9.25635C2.67758 9.261 2.67758 9.261 2.6821 9.25635Z" fill="#ED0003"/>
<path opacity="0.271" fill-rule="evenodd" clip-rule="evenodd" d="M12.0348 9.71924C12.0424 9.72296 12.0424 9.72296 12.0348 9.71924Z" fill="#ED0003"/>
<path opacity="0.895" fill-rule="evenodd" clip-rule="evenodd" d="M16.761 10.1826C16.9253 10.1724 17.0048 10.2466 16.9998 10.4051C16.9667 10.5149 16.8912 10.564 16.7734 10.5524C16.674 10.5292 16.6202 10.468 16.6122 10.369C16.6204 10.2749 16.67 10.2128 16.761 10.1826ZM16.7983 10.2126C16.9165 10.2227 16.9692 10.2868 16.9564 10.4051C16.9107 10.5182 16.8311 10.5472 16.7176 10.4923C16.6503 10.4297 16.6389 10.3585 16.6835 10.2788C16.713 10.242 16.7512 10.2199 16.7983 10.2126ZM16.7734 10.2908C16.7963 10.2898 16.819 10.2908 16.8417 10.2938C16.8665 10.3119 16.8665 10.3299 16.8417 10.348C16.819 10.351 16.7963 10.352 16.7734 10.351C16.7734 10.3309 16.7734 10.3108 16.7734 10.2908Z" fill="#ED0003"/>
<path opacity="0.988" fill-rule="evenodd" clip-rule="evenodd" d="M0.300087 12.0164C0.266055 11.9823 0.235044 11.9462 0.207053 11.9081C0.0284521 11.6442 -0.0346065 11.3555 0.0178834 11.0421C0.071316 10.716 0.243944 10.4703 0.535773 10.3053C0.647284 10.2517 0.765127 10.2196 0.889303 10.2091C1.45164 10.205 2.01398 10.205 2.57632 10.2091C2.9621 10.2563 3.22985 10.4537 3.37952 10.8015C3.51404 11.1625 3.48719 11.5114 3.29889 11.848C3.13056 12.1086 2.88767 12.2539 2.57012 12.284C2.00985 12.288 1.44957 12.288 0.889303 12.284C0.658684 12.2624 0.462282 12.1732 0.300087 12.0164ZM0.90791 10.5489C1.45785 10.5479 2.00778 10.5489 2.55771 10.5519C2.7778 10.5778 2.93593 10.6871 3.03219 10.8797C3.11617 11.0747 3.13273 11.2751 3.08181 11.4811C3.00887 11.7444 2.83415 11.8977 2.55771 11.9412C2.00778 11.9452 1.45785 11.9452 0.90791 11.9412C0.66385 11.9096 0.497425 11.7822 0.408627 11.5593C0.319643 11.3116 0.336184 11.069 0.458245 10.8316C0.562244 10.6684 0.712135 10.5741 0.90791 10.5489Z" fill="#ED0003"/>
<path opacity="0.986" fill-rule="evenodd" clip-rule="evenodd" d="M5.50384 12.2092C5.13015 11.8569 4.75591 11.504 4.38123 11.1507C4.3687 11.1354 4.35425 11.1214 4.33781 11.1086C4.71615 11.1036 5.09449 11.1006 5.47283 11.0996C5.61294 11.08 5.69667 11.0028 5.72402 10.868C5.73543 10.7007 5.65791 10.5954 5.49144 10.5523C5.01591 10.5493 4.54044 10.5482 4.06491 10.5493C4.06491 11.1286 4.06491 11.708 4.06491 12.2874C3.93262 12.2874 3.80026 12.2874 3.66797 12.2874C3.66797 11.5938 3.66797 10.9001 3.66797 10.2064C4.28199 10.2054 4.89602 10.2064 5.51004 10.2094C5.8026 10.2546 5.98768 10.416 6.06515 10.6936C6.11259 10.983 6.01026 11.2065 5.75813 11.3642C5.67533 11.4097 5.58639 11.4358 5.49144 11.4424C5.39636 11.4444 5.30121 11.4464 5.20613 11.4484C5.50179 11.727 5.7974 12.0057 6.09306 12.2844C5.92355 12.2884 5.75398 12.2884 5.58447 12.2844C5.55842 12.2581 5.5315 12.233 5.50384 12.2092Z" fill="#ED0003"/>
<path opacity="0.989" fill-rule="evenodd" clip-rule="evenodd" d="M7.64352 10.2064C7.72663 10.1988 7.79584 10.2248 7.85129 10.2845C8.28365 10.9517 8.71676 11.6182 9.15067 12.2843C9.00653 12.2893 8.86282 12.2883 8.71961 12.2813C8.37228 11.744 8.02496 11.2067 7.67763 10.6695C7.52859 10.8932 7.38079 11.1177 7.23417 11.3431C7.50707 11.3481 7.77997 11.3511 8.05287 11.3521C7.98235 11.4638 7.91102 11.5751 7.83889 11.6859C7.56332 11.6909 7.28732 11.6939 7.01089 11.6949C6.88399 11.8899 6.75789 12.0854 6.63255 12.2813C6.48989 12.2893 6.34724 12.2893 6.20459 12.2813C6.6336 11.6177 7.06255 10.9541 7.49156 10.2906C7.53281 10.2453 7.58348 10.2172 7.64352 10.2064Z" fill="#ED0003"/>
<path opacity="0.987" fill-rule="evenodd" clip-rule="evenodd" d="M9.85776 10.2063C10.4491 10.2043 11.0403 10.2063 11.6316 10.2123C11.5621 10.3241 11.4918 10.4353 11.4207 10.5461C10.908 10.5481 10.3953 10.5501 9.88257 10.5521C9.61358 10.5924 9.4409 10.7398 9.36468 10.9942C9.29831 11.2285 9.32312 11.453 9.43911 11.6678C9.54151 11.827 9.68931 11.9182 9.88257 11.9414C10.4552 11.9434 11.0279 11.9455 11.6006 11.9475C11.5254 12.0582 11.451 12.1694 11.3773 12.2813C10.8708 12.2883 10.3643 12.2893 9.85776 12.2843C9.45883 12.2367 9.18692 12.0312 9.04216 11.6678C8.92159 11.3281 8.9464 10.9953 9.11659 10.6694C9.28417 10.3962 9.53121 10.2418 9.85776 10.2063Z" fill="#ED0003"/>
<path opacity="0.987" fill-rule="evenodd" clip-rule="evenodd" d="M11.9045 10.2061C12.0224 10.2061 12.1402 10.2061 12.2581 10.2061C12.2581 10.7854 12.2581 11.3648 12.2581 11.9442C12.7605 11.9432 13.2628 11.9442 13.7652 11.9472C13.6908 12.0595 13.6164 12.1717 13.5419 12.284C12.9961 12.287 12.4503 12.288 11.9045 12.287C11.9045 11.5934 11.9045 10.8997 11.9045 10.2061Z" fill="#ED0003"/>
<path opacity="0.987" fill-rule="evenodd" clip-rule="evenodd" d="M14.3483 12.2088C14.0784 12.0788 13.9016 11.8723 13.818 11.5894C13.7255 11.2615 13.7627 10.9488 13.9297 10.6511C14.0971 10.3889 14.3399 10.2416 14.6584 10.2091C15.2518 10.205 15.8451 10.205 16.4385 10.2091C16.3645 10.3203 16.2922 10.4326 16.2214 10.5459C15.7108 10.5479 15.2001 10.5499 14.6894 10.5519C14.4159 10.5919 14.2413 10.7412 14.1653 11C14.1582 11.0237 14.153 11.0478 14.1498 11.0721C14.8297 11.0667 15.5089 11.0647 16.1873 11.0661C16.1948 11.0695 16.202 11.0736 16.209 11.0781C16.1351 11.1874 16.0627 11.2977 15.9919 11.4089C15.3779 11.4149 14.7639 11.4169 14.1498 11.4149C14.1826 11.6141 14.286 11.7675 14.4599 11.875C14.5302 11.9104 14.6046 11.9325 14.6832 11.9412C15.2559 11.9432 15.8286 11.9452 16.4013 11.9472C16.3268 12.0595 16.2524 12.1717 16.178 12.284C15.6714 12.288 15.165 12.288 14.6584 12.284C14.5508 12.2746 14.4474 12.2495 14.3483 12.2088Z" fill="#ED0003"/>
<path opacity="0.891" fill-rule="evenodd" clip-rule="evenodd" d="M16.7361 10.2606C16.7775 10.2596 16.8188 10.2606 16.8601 10.2636C16.8944 10.2812 16.9058 10.3083 16.8942 10.3448C16.8838 10.364 16.8683 10.3781 16.8477 10.3869C16.8663 10.415 16.8849 10.4431 16.9035 10.4711C16.8891 10.4791 16.8746 10.4791 16.8601 10.4711C16.8434 10.4459 16.8279 10.4198 16.8136 10.393C16.801 10.3874 16.7875 10.3854 16.7733 10.3869C16.7733 10.417 16.7733 10.4471 16.7733 10.4772C16.7609 10.4772 16.7485 10.4772 16.7361 10.4772C16.7361 10.405 16.7361 10.3328 16.7361 10.2606ZM16.7733 10.2907C16.7733 10.3107 16.7733 10.3308 16.7733 10.3509C16.7961 10.3519 16.8189 10.3509 16.8415 10.3478C16.8663 10.3298 16.8663 10.3118 16.8415 10.2937C16.8189 10.2907 16.7961 10.2897 16.7733 10.2907Z" fill="#ED0003"/>
<path opacity="0.271" fill-rule="evenodd" clip-rule="evenodd" d="M4.38145 11.1509C4.37692 11.1555 4.37692 11.1555 4.38145 11.1509Z" fill="#ED0003"/>
<path opacity="0.271" fill-rule="evenodd" clip-rule="evenodd" d="M0.207245 11.9082C0.202728 11.9129 0.202728 11.9129 0.207245 11.9082Z" fill="#ED0003"/>
<path opacity="0.271" fill-rule="evenodd" clip-rule="evenodd" d="M0.300384 12.0166C0.295868 12.0213 0.295868 12.0213 0.300384 12.0166Z" fill="#ED0003"/>
<path opacity="0.271" fill-rule="evenodd" clip-rule="evenodd" d="M5.50401 12.209C5.49948 12.2136 5.49948 12.2136 5.50401 12.209Z" fill="#ED0003"/>
<path opacity="0.271" fill-rule="evenodd" clip-rule="evenodd" d="M14.3485 12.209C14.344 12.2136 14.344 12.2136 14.3485 12.209Z" fill="#ED0003"/>
</svg>
