<svg width="18" height="18" viewBox="0 0 18 18" fill="none" xmlns="http://www.w3.org/2000/svg">
<path d="M18 9C18 4.02931 13.9707 0 9 0C4.02931 0 0 4.02931 0 9C0 13.221 2.90582 16.7623 6.82585 17.7351V11.7502H4.96998V9H6.82585V7.81497C6.82585 4.75143 8.2121 3.33159 11.2194 3.33159C11.7898 3.33159 12.7736 3.44369 13.1761 3.55544V6.04857C12.9635 6.02629 12.5947 6.01497 12.1364 6.01497C10.6607 6.01497 10.0903 6.57407 10.0903 8.0275V9H13.03L12.525 11.7502H10.0903V17.9342C14.5468 17.396 18 13.6015 18 9Z" fill="#0866FF"/>
<path d="M12.525 11.7502L13.03 8.99995H10.0902V8.02746C10.0902 6.57402 10.6607 6.01492 12.1364 6.01492C12.5947 6.01492 12.9635 6.02624 13.1761 6.04852V3.55539C12.7736 3.44365 11.7898 3.33154 11.2194 3.33154C8.21209 3.33154 6.82585 4.75174 6.82585 7.81492V8.99995H4.96997V11.7502H6.82585V17.7351C7.52215 17.9077 8.25029 18 8.99999 18C9.36919 18 9.73272 17.9773 10.0902 17.9342V11.7502H12.525Z" fill="white"/>
</svg>
