<svg viewBox="0 0 20 20" fill="currentColor" xmlns="http://www.w3.org/2000/svg">
<path d="M18.4458 9.06164L14.6913 12.8148C12.6191 14.8883 9.25732 14.8883 7.18504 12.8148C6.85845 12.4895 6.60315 12.1227 6.37892 11.7443L8.12333 9.99988C8.20627 9.91627 8.30866 9.86833 8.40649 9.81198C8.52701 10.2241 8.7376 10.6142 9.06161 10.9382C10.0964 11.9737 11.7806 11.9724 12.8148 10.9382L16.5679 7.18503C17.6034 6.14954 17.6034 4.46606 16.5679 3.43123C15.5337 2.39641 13.8503 2.39641 12.8148 3.43123L11.4799 4.76739C10.3971 4.34555 9.23007 4.23217 8.09413 4.39867L10.9382 1.55467C13.0117 -0.518223 16.3722 -0.518223 18.4458 1.55467C20.5181 3.62764 20.5181 6.98875 18.4458 9.06164ZM8.52054 15.2331L7.18504 16.5692C6.1502 17.6034 4.46605 17.6034 3.43122 16.5692C2.39638 15.5337 2.39638 13.8503 3.43122 12.8148L7.18504 9.06168C8.22053 8.02619 9.90336 8.02619 10.9382 9.06168C11.2615 9.38503 11.4721 9.77511 11.594 10.1866C11.6925 10.1296 11.7936 10.0829 11.8765 9.99996L13.6209 8.25623C13.398 7.87652 13.1414 7.51104 12.8148 7.18511C10.7425 5.11222 7.38078 5.11222 5.30783 7.18511L1.55468 10.9382C-0.518226 13.0118 -0.518226 16.3722 1.55468 18.4458C3.62758 20.5181 6.98871 20.5181 9.06166 18.4458L11.9063 15.6011C10.7697 15.7683 9.60269 15.6543 8.52054 15.2331Z"/>
</svg>
