<svg width="15" height="16" viewBox="0 0 15 16" fill="none" xmlns="http://www.w3.org/2000/svg">
<path d="M11.4844 0.242188H3.51562C1.574 0.242188 0 1.81619 0 3.75781V11.7266C0 13.6682 1.574 15.2422 3.51562 15.2422H11.4844C13.426 15.2422 15 13.6682 15 11.7266V3.75781C15 1.81619 13.426 0.242188 11.4844 0.242188Z" fill="#092E20"/>
<path d="M6.60287 3.23047H8.27953V10.9912C7.41943 11.1545 6.78797 11.2198 6.10213 11.2198C4.05521 11.2198 2.98828 10.2945 2.98828 8.51978C2.98828 6.81043 4.12061 5.70002 5.87344 5.70002C6.14561 5.70002 6.35244 5.7217 6.60287 5.78703V3.23047ZM6.60287 7.13697C6.40693 7.07176 6.24363 7.04996 6.0368 7.04996C5.1876 7.04996 4.69758 7.57256 4.69758 8.48703C4.69758 9.37988 5.1658 9.86979 6.0259 9.86979C6.21088 9.86979 6.3634 9.85889 6.60287 9.82631V7.13697Z" fill="white"/>
<path d="M10.9468 5.81961V9.70625C10.9468 11.0455 10.8488 11.6878 10.5548 12.2431C10.2826 12.7766 9.92333 13.1141 9.18299 13.4843L7.6261 12.7439C8.36643 12.3955 8.72573 12.0908 8.9543 11.6224C9.19389 11.1434 9.27018 10.5881 9.27018 9.12928V5.81955L10.9468 5.81961ZM9.27018 3.23926H10.9468V4.95945H9.27018V3.23926Z" fill="white"/>
</svg>
