<svg width="15" height="15" viewBox="0 0 15 15" fill="none" xmlns="http://www.w3.org/2000/svg">
<path d="M14.205 10.5906C14.2105 10.8232 14.1508 11.0531 14.0319 11.2572C13.9087 11.4545 13.7311 11.617 13.5177 11.7275C11.6265 12.7524 9.73471 13.7759 7.84222 14.7979C7.33262 15.0745 6.8387 15.0647 6.33237 14.7838C5.57973 14.3687 1.81066 12.3395 0.687581 11.7281C0.225022 11.4767 0.000275417 11.0916 0.000275417 10.5912V4.40999C-0.00449825 4.18232 0.0528527 3.95729 0.166875 3.7563C0.290143 3.55296 0.471068 3.38569 0.689541 3.27308C1.81262 2.65986 5.58235 0.633168 6.33499 0.216179C6.84132 -0.0646754 7.33524 -0.0744858 7.84549 0.202076C9.73623 1.22738 11.6281 2.25125 13.521 3.27369C13.7395 3.38631 13.9204 3.55357 14.0437 3.75691C14.1577 3.9579 14.215 4.18293 14.2103 4.4106V10.5906H14.205Z" fill="#004482"/>
<path d="M14.2102 4.64064C14.2151 4.44113 14.1577 4.24392 14.0436 4.06784C14.0155 4.0259 13.9839 3.98567 13.9488 3.94747L7.10522 7.34884L13.5215 11.0527C13.7346 10.9558 13.9121 10.8135 14.0351 10.6406C14.1545 10.4619 14.2144 10.2604 14.2089 10.0565C14.2102 8.25104 14.2102 4.64064 14.2102 4.64064Z" fill="#00599C"/>
<path d="M14.2105 11.32L0.167719 3.94737C0.0527589 4.14484 -0.00486515 4.36581 0.00032162 4.58928V10.6654C0.00032162 11.1573 0.22859 11.5358 0.696375 11.7829C1.83441 12.3838 5.65145 14.3783 6.41433 14.7875C6.92579 15.0636 7.42665 15.0732 7.94274 14.8014C9.85755 13.7936 11.7735 12.7872 13.6905 11.7823C13.9063 11.6736 14.086 11.5139 14.2105 11.32Z" fill="#659AD2"/>
<path d="M7.40451 5.31739C7.02167 5.31685 6.64571 5.42093 6.3159 5.61877C5.98609 5.81662 5.71453 6.10096 5.52958 6.4421C5.51066 6.47627 5.4928 6.51116 5.47602 6.54678C5.24783 7.0264 5.20038 7.57453 5.34266 8.08737C5.48493 8.60021 5.80706 9.04214 6.24803 9.32949C6.689 9.61683 7.2182 9.72962 7.73541 9.64651C8.25261 9.5634 8.72192 9.29015 9.05444 8.87851C9.08283 8.84362 9.10801 8.80709 9.1364 8.76948C9.14926 8.75149 9.16211 8.73349 9.1739 8.71496L11.0526 9.81622C11.0069 9.8911 10.959 9.96379 10.909 10.0343C10.8828 10.0719 10.8554 10.1079 10.8297 10.1433C10.1767 11.0066 9.2296 11.5896 8.1751 11.7772C7.1206 11.9648 6.03529 11.7435 5.13325 11.1568C4.23121 10.5702 3.57791 9.66082 3.30222 8.60811C3.02653 7.5554 3.14845 6.43577 3.64395 5.47004C3.66216 5.43515 3.68091 5.40081 3.69752 5.36646C4.06142 4.71303 4.58514 4.16645 5.21784 3.77977C5.85053 3.39309 6.57071 3.17946 7.30847 3.1596C8.04622 3.13974 8.77649 3.31433 9.42839 3.66643C10.0803 4.01852 10.6317 4.53617 11.029 5.1691L9.19211 6.29926C8.99764 5.99746 8.7324 5.74968 8.42032 5.57827C8.10824 5.40685 7.75914 5.3172 7.40451 5.31739Z" fill="white"/>
</svg>
