<svg width="15" height="15" viewBox="0 0 15 15" fill="none" xmlns="http://www.w3.org/2000/svg">
<path d="M9.12882 3.17383C9.28464 3.30976 9.49586 3.38611 9.71608 3.38611C9.93631 3.38611 10.1475 3.30976 10.3033 3.17383L11.1011 2.47699V12.3391C11.1011 12.5316 11.1887 12.7163 11.3445 12.8524C11.5004 12.9885 11.7118 13.065 11.9322 13.065C12.1526 13.065 12.3639 12.9885 12.5198 12.8524C12.6756 12.7163 12.7632 12.5316 12.7632 12.3391V2.47699L13.561 3.17383C13.6371 3.24514 13.7288 3.30234 13.8307 3.34201C13.9327 3.38169 14.0427 3.40302 14.1543 3.40474C14.2659 3.40646 14.3767 3.38853 14.4802 3.35202C14.5837 3.31552 14.6777 3.26118 14.7566 3.19225C14.8355 3.12332 14.8977 3.04122 14.9395 2.95084C14.9813 2.86045 15.0018 2.76364 14.9999 2.66618C14.9979 2.56872 14.9735 2.4726 14.9281 2.38356C14.8826 2.29452 14.8172 2.21438 14.7355 2.14793L12.5194 0.212282C12.3636 0.0763511 12.1524 0 11.9322 0C11.7119 0 11.5007 0.0763511 11.3449 0.212282L9.12882 2.14793C8.9732 2.28403 8.88578 2.46852 8.88578 2.66088C8.88578 2.85323 8.9732 3.03772 9.12882 3.17383ZM3.89887 12.523L4.69666 11.8262C4.77274 11.7549 4.86449 11.6977 4.96642 11.658C5.06836 11.6183 5.17841 11.597 5.28999 11.5953C5.40157 11.5935 5.51241 11.6115 5.61589 11.648C5.71936 11.6845 5.81336 11.7388 5.89228 11.8077C5.97119 11.8767 6.0334 11.9588 6.0752 12.0492C6.11699 12.1395 6.13752 12.2364 6.13555 12.3338C6.13358 12.4313 6.10916 12.5274 6.06374 12.6164C6.01832 12.7055 5.95283 12.7856 5.87118 12.8521L3.6551 14.7877C3.49928 14.9236 3.28806 15 3.06784 15C2.84762 15 2.6364 14.9236 2.48058 14.7877L0.264498 12.8521C0.18285 12.7856 0.117362 12.7055 0.0719417 12.6164C0.026521 12.5274 0.00209808 12.4313 0.000129333 12.3338C-0.00183942 12.2364 0.0186864 12.1395 0.0604828 12.0492C0.102279 11.9588 0.16449 11.8767 0.243403 11.8077C0.322316 11.7388 0.416315 11.6845 0.519793 11.648C0.623271 11.6115 0.734107 11.5935 0.84569 11.5953C0.957273 11.597 1.06732 11.6183 1.16926 11.658C1.27119 11.6977 1.36294 11.7549 1.43902 11.8262L2.23681 12.523V2.66088C2.23681 2.46837 2.32436 2.28374 2.48021 2.14761C2.63606 2.01149 2.84744 1.93501 3.06784 1.93501C3.28824 1.93501 3.49962 2.01149 3.65547 2.14761C3.81132 2.28374 3.89887 2.46837 3.89887 2.66088V12.523Z" fill="#EAEAEA"/>
</svg>
