<svg width="15" height="15" viewBox="0 0 15 15" fill="none" xmlns="http://www.w3.org/2000/svg">
<g clip-path="url(#clip0_1934_2875)">
<path d="M7.5 4.375C5.75893 4.375 4.375 5.75893 4.375 7.5C4.375 9.24107 5.75893 10.625 7.5 10.625C9.24107 10.625 10.625 9.24107 10.625 7.5C10.625 5.75893 9.24107 4.375 7.5 4.375ZM7.5 9.73214C6.25 9.73214 5.26786 8.75 5.26786 7.5C5.26786 6.25 6.25 5.26786 7.5 5.26786C8.75 5.26786 9.73214 6.25 9.73214 7.5C9.73214 8.75 8.75 9.73214 7.5 9.73214Z" fill="#EAEAEA"/>
<path d="M14.4375 5.95312L13.125 5.53125L12.8437 4.82813L13.5 3.60937C13.6406 3.32812 13.5938 2.95313 13.3594 2.71875L12.2344 1.59375C12 1.35938 11.625 1.3125 11.3438 1.45312L10.125 2.10938L9.42188 1.82813L9 0.515625C8.90625 0.234375 8.625 0 8.29688 0H6.70312C6.375 0 6.09375 0.234375 6.04687 0.5625L5.625 1.875C5.34375 1.92188 5.10937 2.01562 4.875 2.15625L3.65625 1.5C3.375 1.35937 3 1.40625 2.76563 1.64062L1.64062 2.76563C1.40625 3 1.35937 3.375 1.5 3.65625L2.10938 4.82813C2.01562 5.0625 1.92188 5.34375 1.82813 5.57812L0.515625 6C0.234375 6.09375 0 6.375 0 6.70312V8.29688C0 8.625 0.234375 8.90625 0.5625 9L1.875 9.42188L2.15625 10.125L1.5 11.3438C1.35937 11.625 1.40625 12 1.64062 12.2344L2.76563 13.3594C3 13.5938 3.375 13.6406 3.65625 13.5L4.875 12.8437L5.57812 13.125L6 14.4844C6.09375 14.7656 6.375 15 6.70312 15H8.29688C8.625 15 8.90625 14.7656 9 14.4844L9.42188 13.125L10.125 12.8437L11.3438 13.5C11.625 13.6406 12 13.5938 12.2344 13.3594L13.3594 12.2344C13.5938 12 13.6406 11.625 13.5 11.3438L12.8437 10.125L13.125 9.42188L14.4844 9C14.7656 8.90625 15 8.625 15 8.29688V6.70312C15 6.375 14.7656 6.04687 14.4375 5.95312ZM14.0625 8.15625L12.375 8.67188L12.3281 8.90625L11.9062 9.89063L11.7656 10.125L12.6094 11.6719L11.6719 12.6094L10.125 11.7656L9.89063 11.9062C9.5625 12.0937 9.23437 12.2344 8.90625 12.3281L8.67188 12.375L8.15625 14.0625H6.84375L6.32812 12.375L6.09375 12.3281L5.10937 11.9062L4.875 11.7656L3.32813 12.6094L2.39062 11.6719L3.23437 10.125L3.09375 9.89063C2.90625 9.5625 2.76562 9.23437 2.67187 8.90625L2.625 8.67188L0.9375 8.15625V6.84375L2.53125 6.375L2.625 6.14063C2.71875 5.76563 2.85937 5.4375 3.04688 5.10937L3.1875 4.875L2.39062 3.32813L3.32813 2.39062L4.82813 3.23437L5.0625 3.09375C5.39063 2.90625 5.71875 2.76562 6.09375 2.67187L6.32812 2.57812L6.84375 0.9375H8.15625L8.67188 2.57812L8.90625 2.67187C9.23437 2.76562 9.5625 2.90625 9.89063 3.09375L10.125 3.23437L11.6719 2.39062L12.6094 3.32813L11.7656 4.875L11.9062 5.10937C12.0937 5.4375 12.2344 5.76563 12.3281 6.09375L12.375 6.32812L14.0625 6.84375V8.15625Z" fill="#EAEAEA"/>
</g>
<defs>
<clipPath id="clip0_1934_2875">
<rect width="15" height="15" fill="white"/>
</clipPath>
</defs>
</svg>
