<svg width="16" height="15" viewBox="0 0 16 15" fill="none" xmlns="http://www.w3.org/2000/svg">
<path d="M7.89245 1.18301C6.97952 1.18298 6.10161 1.53437 5.44082 2.16429C4.78003 2.79421 4.38707 3.65431 4.34345 4.5662C4.33634 4.71841 4.27083 4.86202 4.16054 4.96716C4.05025 5.07231 3.90367 5.13089 3.7513 5.13072H3.54996C3.23891 5.13072 2.9309 5.19199 2.64353 5.31102C2.35615 5.43006 2.09504 5.60453 1.87509 5.82448C1.65514 6.04442 1.48067 6.30554 1.36164 6.59291C1.2426 6.88029 1.18134 7.1883 1.18134 7.49935C1.18134 7.8104 1.2426 8.11841 1.36164 8.40578C1.48067 8.69316 1.65514 8.95427 1.87509 9.17422C2.09504 9.39417 2.35615 9.56864 2.64353 9.68767C2.9309 9.80671 3.23891 9.86798 3.54996 9.86798H6.37337C6.31306 10.2597 6.29796 10.6571 6.32836 11.0523H3.54996C2.63692 11.0515 1.75921 10.6993 1.09895 10.0686C0.438681 9.43801 0.0465401 8.57739 0.00388305 7.66534C-0.038774 6.75329 0.271327 5.85983 0.869849 5.17032C1.46837 4.48081 2.30937 4.04818 3.21835 3.9622C3.4021 2.85524 3.97275 1.84942 4.8287 1.12383C5.68465 0.398248 6.77034 0 7.89245 0C9.01455 0 10.1002 0.398248 10.9562 1.12383C11.8121 1.84942 12.3828 2.85524 12.5665 3.9622C13.0359 4.0062 13.4918 4.14316 13.9078 4.36512C14.3237 4.58708 14.6912 4.88959 14.9891 5.25503C15.2869 5.62047 15.509 6.04153 15.6425 6.49367C15.776 6.94581 15.8182 7.41999 15.7666 7.88859C15.3952 7.31006 14.9121 6.81157 14.3454 6.42241C14.1468 6.0335 13.8447 5.70703 13.4722 5.47908C13.0998 5.25113 12.6716 5.13057 12.2349 5.13072H12.0328C11.8806 5.13068 11.7342 5.07201 11.6241 4.96689C11.5139 4.86177 11.4485 4.71827 11.4414 4.5662C11.3978 3.65431 11.0049 2.79421 10.3441 2.16429C9.68328 1.53437 8.80538 1.18298 7.89245 1.18301ZM15.7879 10.6575C15.7879 11.8092 15.3304 12.9137 14.516 13.7281C13.7016 14.5425 12.5971 15 11.4454 15C10.2937 15 9.18916 14.5425 8.37479 13.7281C7.56041 12.9137 7.1029 11.8092 7.1029 10.6575C7.1029 9.50582 7.56041 8.40129 8.37479 7.58692C9.18916 6.77255 10.2937 6.31504 11.4454 6.31504C12.5971 6.31504 13.7016 6.77255 14.516 7.58692C15.3304 8.40129 15.7879 9.50582 15.7879 10.6575ZM14.0935 8.79894C14.0568 8.76217 14.0133 8.733 13.9653 8.7131C13.9174 8.6932 13.8659 8.68296 13.814 8.68296C13.7621 8.68296 13.7107 8.6932 13.6627 8.7131C13.6147 8.733 13.5712 8.76217 13.5345 8.79894L10.6558 11.6784L9.35626 10.378C9.28213 10.3039 9.18159 10.2622 9.07676 10.2622C8.97193 10.2622 8.87139 10.3039 8.79726 10.378C8.72313 10.4521 8.68149 10.5527 8.68149 10.6575C8.68149 10.7623 8.72313 10.8629 8.79726 10.937L10.3763 12.5161C10.413 12.5529 10.4566 12.582 10.5045 12.6019C10.5525 12.6218 10.6039 12.6321 10.6558 12.6321C10.7078 12.6321 10.7592 12.6218 10.8071 12.6019C10.8551 12.582 10.8987 12.5529 10.9353 12.5161L14.0935 9.35793C14.1303 9.32126 14.1594 9.2777 14.1793 9.22974C14.1992 9.18178 14.2095 9.13036 14.2095 9.07843C14.2095 9.02651 14.1992 8.97509 14.1793 8.92713C14.1594 8.87917 14.1303 8.83561 14.0935 8.79894Z" fill="#F4F4F4"/>
</svg>
