<svg width="14" height="15" viewBox="0 0 14 15" fill="none" xmlns="http://www.w3.org/2000/svg">
<path d="M13.4347 10.59C13.4346 10.8422 13.3803 11.0651 13.2704 11.2564C13.1626 11.4445 13.001 11.6021 12.7843 11.7267C10.9957 12.7512 9.20538 13.7726 7.41735 14.7981C6.9353 15.0745 6.46792 15.0645 5.98945 14.7841C5.27753 14.367 1.71318 12.3384 0.65105 11.7273C0.213635 11.4758 0.000788515 11.0908 0.00068338 10.5905C0 8.53017 0.00068338 6.46993 0 4.40958C0.000105135 4.1629 0.0520945 3.94436 0.157072 3.75596C0.264994 3.56217 0.428794 3.40019 0.650472 3.27272C1.71265 2.66161 5.27748 0.633218 5.98924 0.216042C6.46792 -0.0645299 6.9353 -0.0745565 7.41751 0.201994C9.2056 1.22757 10.996 2.24887 12.7849 3.27335C13.0066 3.40077 13.1704 3.56285 13.2783 3.75648C13.3831 3.94489 13.4352 4.16342 13.4353 4.41016C13.4353 4.41016 13.4353 8.52965 13.4347 10.59Z" fill="#5C8DBC"/>
<path d="M6.73826 7.52002L0.157104 3.75588C0.265026 3.56209 0.428827 3.40011 0.650504 3.27264C1.71269 2.66153 5.27751 0.633137 5.98927 0.21596C6.46796 -0.0646115 6.93533 -0.0746382 7.41754 0.201913C9.20563 1.22749 10.9961 2.24879 12.785 3.27327C13.0066 3.40068 13.1704 3.56277 13.2784 3.7564L6.73826 7.52002Z" fill="#1A4674"/>
<path d="M4.78894 6.40504C5.1719 5.74092 5.89181 5.29299 6.71765 5.29299C7.54858 5.29299 8.2726 5.74662 8.65361 6.41784L6.7382 7.52002L4.78894 6.40504Z" fill="#1A4674"/>
<path d="M13.4347 10.59C13.4346 10.8422 13.3803 11.0651 13.2705 11.2563L6.73828 7.52009L13.2784 3.75647C13.3832 3.94487 13.4353 4.16341 13.4354 4.41014C13.4354 4.41014 13.4354 8.52964 13.4347 10.59Z" fill="#1B598E"/>
<path d="M13.0751 7.25082H12.564V6.74305H12.0529V7.25082H11.5419V7.75844H12.0529V8.26611H12.564V7.75844H13.0751V7.25082ZM11.2103 7.25082H10.6992V6.74305H10.1882V7.25082H9.67712V7.75844H10.1882V8.26611H10.6992V7.75844H11.2103V7.25082Z" fill="white"/>
<path d="M8.65362 6.41798C8.27261 5.74675 7.5486 5.29313 6.71766 5.29313C5.89182 5.29313 5.17191 5.74106 4.78895 6.40518C4.59657 6.73842 4.49554 7.11596 4.49594 7.50011C4.49594 8.71895 5.49068 9.70703 6.71766 9.70703C7.53819 9.70703 8.25432 9.26469 8.63917 8.60735L10.5811 9.71815C9.80922 11.0417 8.36818 11.9321 6.71766 11.9321C4.2535 11.9321 2.25598 9.94781 2.25598 7.50011C2.25598 6.69708 2.47104 5.94404 2.84689 5.29449C3.6168 3.96395 5.06194 3.06803 6.71766 3.06803C8.37643 3.06803 9.82383 3.96755 10.5926 5.30201L8.65362 6.41798Z" fill="white"/>
</svg>
