<svg width="15" height="15" viewBox="0 0 15 15" fill="none" xmlns="http://www.w3.org/2000/svg">
<path d="M7.71073 6.92084C9.43766 6.92084 10.9018 6.65702 12.1032 6.1294C13.305 5.60228 13.906 4.96263 13.906 4.21042C13.906 3.45821 13.305 2.81804 12.1032 2.28989C10.9018 1.7633 9.4374 1.5 7.70996 1.5C5.98252 1.5 4.51579 1.7633 3.30979 2.28989C2.10326 2.81752 1.5 3.4577 1.5 4.21042C1.5 4.96314 2.10326 5.6028 3.30979 6.1294C4.51579 6.65651 5.98252 6.92006 7.70996 6.92006M7.69524 8.11187C8.32355 8.11187 8.96269 8.0618 9.61267 7.96164C10.2627 7.862 10.8734 7.71435 11.4449 7.51868C12.0169 7.32301 12.5203 7.08037 12.955 6.79074C13.3902 6.50163 13.707 6.1676 13.9052 5.78866V8.08167C13.707 8.46113 13.3902 8.79542 12.955 9.08453C12.5203 9.37416 12.0169 9.6168 11.4449 9.81247C10.8734 10.0081 10.2627 10.1558 9.61267 10.2554C8.96269 10.3551 8.32355 10.4049 7.69524 10.4049C7.06694 10.4049 6.4278 10.3551 5.77782 10.2554C5.12783 10.1558 4.51941 10.0081 3.95254 9.81247C3.38568 9.6168 2.8849 9.37416 2.4502 9.08453C2.0155 8.79542 1.69876 8.46113 1.5 8.08167V5.78866C1.69876 6.1676 2.0155 6.50189 2.4502 6.79151C2.8849 7.08062 3.38568 7.32327 3.95254 7.51945C4.51941 7.7146 5.12783 7.862 5.77782 7.96164C6.4278 8.0618 7.06694 8.11187 7.69524 8.11187ZM7.69524 11.5967C8.32355 11.5967 8.96269 11.5466 9.61267 11.4465C10.2627 11.3468 10.8734 11.1992 11.4449 11.0035C12.0169 10.8078 12.5203 10.5652 12.955 10.2756C13.3902 9.98645 13.707 9.65243 13.9052 9.27348V11.5518C13.707 11.9312 13.3902 12.2655 12.955 12.5546C12.5203 12.8438 12.0169 13.0864 11.4449 13.2826C10.8734 13.4777 10.2627 13.6254 9.61267 13.7255C8.96269 13.8252 8.32355 13.875 7.69524 13.875C7.06694 13.875 6.4278 13.8252 5.77782 13.7255C5.12783 13.6254 4.51941 13.4777 3.95254 13.2826C3.38568 13.0864 2.8849 12.8438 2.4502 12.5546C2.0155 12.2655 1.69876 11.9312 1.5 11.5518V9.27348C1.69876 9.65243 2.0155 9.98671 2.4502 10.2763C2.8849 10.5654 3.38568 10.8081 3.95254 11.0043C4.51941 11.1994 5.12783 11.3468 5.77782 11.4465C6.4278 11.5466 7.06694 11.5967 7.69524 11.5967Z" fill="#EAEAEA"/>
</svg>
