<svg width="13" height="14" viewBox="0 0 13 14" fill="none" xmlns="http://www.w3.org/2000/svg">
<path d="M11.3686 12.065C10.6123 12.6171 9.79807 12.9911 8.92601 13.1869C8.05325 13.3826 7.19329 13.4115 6.34613 13.2735C5.49886 13.1363 4.6914 12.8367 3.92373 12.3749C3.15607 11.9131 2.49902 11.3005 1.95258 10.5372C1.40642 9.77422 1.0363 8.95188 0.842192 8.07016C0.648089 7.18843 0.619206 6.31963 0.755543 5.46376C0.891587 4.60748 1.18827 3.79175 1.6456 3.01656C2.10333 2.24107 2.71017 1.57743 3.46611 1.02563C3.64669 0.893812 3.83439 0.772364 4.02921 0.661285C4.22442 0.549911 4.42341 0.457576 4.62616 0.38428C4.75995 0.328328 4.88797 0.325455 5.01022 0.375664C5.13276 0.426281 5.22842 0.499632 5.2972 0.595715C5.34081 0.656637 5.37019 0.722654 5.38534 0.793766C5.40038 0.865583 5.40202 0.946245 5.39027 1.03575C5.24652 2.09312 5.29275 3.13384 5.52894 4.1579C5.76543 5.18237 6.19114 6.12411 6.80607 6.98314C7.42774 7.85158 8.18285 8.56626 9.0714 9.1272C9.95967 9.68773 10.9249 10.0557 11.9672 10.2312C12.0495 10.2402 12.1206 10.2655 12.1806 10.307C12.2412 10.3487 12.2927 10.3991 12.3352 10.4584C12.404 10.5545 12.4448 10.6679 12.4576 10.7986C12.4701 10.9289 12.4294 11.0495 12.3355 11.1603C12.2023 11.3316 12.0531 11.4922 11.8879 11.6421C11.7231 11.7916 11.55 11.9326 11.3686 12.065Z" fill="#EAEAEA"/>
</svg>
