<svg width="14" height="16" viewBox="0 0 14 16" fill="none" xmlns="http://www.w3.org/2000/svg">
<path d="M6.89159 15.9766C6.68923 15.9766 6.49042 15.9234 6.31515 15.8223L4.48084 14.7364C4.20709 14.5831 4.34048 14.529 4.43102 14.4974C4.72217 14.4075 5.00094 14.2815 5.26085 14.1224C5.28261 14.1124 5.30657 14.108 5.33048 14.1098C5.35438 14.1116 5.37744 14.1194 5.39746 14.1326L6.80695 14.9699C6.83319 14.9838 6.86243 14.9911 6.89212 14.9911C6.92182 14.9911 6.95106 14.9838 6.9773 14.9699L12.4738 11.7974C12.4995 11.782 12.5208 11.7602 12.5356 11.734C12.5503 11.7079 12.558 11.6785 12.5579 11.6485V5.30231C12.5579 5.27185 12.5501 5.2419 12.5352 5.21534C12.5203 5.18879 12.4988 5.16653 12.4727 5.1507L6.97623 1.98083C6.95031 1.96624 6.92107 1.95857 6.89132 1.95857C6.86157 1.95857 6.83233 1.96624 6.80641 1.98083L1.31312 5.15177C1.28692 5.16727 1.26516 5.18927 1.24995 5.21564C1.23475 5.24201 1.22661 5.27187 1.22633 5.30231V11.6458C1.22641 11.6757 1.23443 11.7051 1.24959 11.7309C1.26475 11.7566 1.28649 11.778 1.31258 11.7926L2.8201 12.6626C3.63708 13.0708 4.13744 12.5897 4.13744 12.1065V5.84339C4.13744 5.80076 4.15438 5.75988 4.18452 5.72974C4.21466 5.6996 4.25554 5.68267 4.29816 5.68267H4.9946C5.03722 5.68267 5.0781 5.6996 5.10824 5.72974C5.13838 5.75988 5.15532 5.80076 5.15532 5.84339V12.107C5.15532 13.1972 4.56174 13.8214 3.52779 13.8214C3.08174 13.8291 2.64268 13.7098 2.26188 13.4774L0.817041 12.6487C0.641639 12.5465 0.496099 12.4001 0.39495 12.2242C0.293801 12.0482 0.240581 11.8488 0.240604 11.6458V5.30231C0.240083 5.09902 0.293077 4.89917 0.394262 4.72285C0.495447 4.54653 0.641257 4.39994 0.817041 4.29783L6.31408 1.12421C6.49115 1.02734 6.68975 0.976562 6.89159 0.976562C7.09343 0.976562 7.29203 1.02734 7.4691 1.12421L12.9656 4.29783C13.141 4.39977 13.2866 4.54593 13.3878 4.72172C13.489 4.89751 13.5424 5.09677 13.5426 5.29963V11.6458C13.5423 11.8488 13.4889 12.0481 13.3876 12.2241C13.2864 12.4 13.1409 12.5464 12.9656 12.6487L7.4691 15.8223C7.29351 15.9236 7.09431 15.9768 6.89159 15.9766Z" fill="#83CD29"/>
<path d="M5.849 9.52331C5.849 9.48069 5.86593 9.43981 5.89607 9.40967C5.92621 9.37953 5.96709 9.3626 6.00972 9.3626H6.72062C6.7586 9.36272 6.79532 9.37629 6.82425 9.40091C6.85318 9.42552 6.87245 9.45959 6.87866 9.49706C6.9858 10.2208 7.30723 10.5857 8.76065 10.5857C9.91834 10.5857 10.4117 10.3237 10.4117 9.70921C10.4117 9.3551 10.2719 9.09206 8.47243 8.91581C6.96812 8.76688 6.03811 8.43366 6.03811 7.2315C6.03811 6.12255 6.97294 5.46094 8.53993 5.46094C10.3008 5.46094 11.1725 6.0722 11.2828 7.38364C11.2845 7.40554 11.2817 7.42755 11.2745 7.44831C11.2674 7.46907 11.2561 7.48815 11.2413 7.50436C11.2264 7.52058 11.2085 7.53359 11.1884 7.54258C11.1684 7.55158 11.1467 7.55638 11.1248 7.55668H10.4091C10.3732 7.55618 10.3385 7.54367 10.3105 7.52114C10.2825 7.49861 10.2629 7.46737 10.2548 7.43239C10.0839 6.67113 9.66548 6.42792 8.54046 6.42792C7.27616 6.42792 7.12937 6.86828 7.12937 7.19828C7.12937 7.59793 7.30295 7.71472 9.00976 7.94026C10.6989 8.16365 11.5014 8.47973 11.5014 9.66689C11.5014 10.8648 10.5028 11.5505 8.76118 11.5505C6.35311 11.5537 5.849 10.4496 5.849 9.52331Z" fill="#83CD29"/>
</svg>
