<svg width="15" height="15" viewBox="0 0 15 15" fill="none" xmlns="http://www.w3.org/2000/svg">
<path d="M7.60417 3.75C5.82633 3.75 4.71525 4.58335 4.27075 6.2499C4.9375 5.41654 5.71529 5.10416 6.60412 5.31242C7.11132 5.43124 7.47379 5.77631 7.8751 6.15812C8.52868 6.78008 9.28513 7.49992 10.9376 7.49992C12.7152 7.49992 13.8265 6.66657 14.2708 4.99987C13.6042 5.83322 12.8265 6.14577 11.9375 5.93751C11.4304 5.81868 11.068 5.47361 10.6666 5.0918C10.0131 4.46984 9.25645 3.75 7.60417 3.75ZM4.27075 7.49992C2.49308 7.49992 1.38183 8.33327 0.9375 9.99997C1.60408 9.16662 2.38188 8.85408 3.27088 9.06249C3.7779 9.18148 4.14037 9.52639 4.54169 9.90804C5.19526 10.53 5.95188 11.25 7.60417 11.25C9.382 11.25 10.4931 10.4166 10.9376 8.74995C10.2708 9.5833 9.49304 9.89584 8.60421 9.68743C8.09702 9.56876 7.73455 9.22353 7.33323 8.84188C6.67965 8.21992 5.9232 7.49992 4.27075 7.49992Z" fill="#06B6D4"/>
</svg>
