<svg width="14" height="15" viewBox="0 0 14 15" fill="none" xmlns="http://www.w3.org/2000/svg">
<path d="M13.7379 6.04206C13.7379 5.14336 12.6012 4.29167 10.8586 3.76351C11.2607 2.00481 11.082 0.605594 10.2944 0.15762C10.1129 0.0525401 9.9007 0.00276391 9.6689 0.00276391V0.61942C9.79735 0.61942 9.9007 0.644308 9.98726 0.691314C10.3671 0.907002 10.5319 1.72828 10.4033 2.78461C10.3727 3.04455 10.3224 3.3183 10.261 3.59759C9.71355 3.46486 9.11593 3.36255 8.48758 3.29618C8.11058 2.78461 7.7196 2.32005 7.3258 1.91356C8.23623 1.07569 9.09082 0.61665 9.67171 0.61665V0C8.90367 0 7.89832 0.541992 6.8818 1.48217C5.86522 0.547519 4.85988 0.0110621 4.0919 0.0110621V0.627712C4.66997 0.627712 5.52732 1.08398 6.43774 1.91632C6.04675 2.32282 5.65577 2.78461 5.28433 3.29618C4.65318 3.36255 4.05555 3.46486 3.5082 3.60036C3.44394 3.32384 3.39648 3.0556 3.36295 2.79844C3.23174 1.74211 3.39367 0.920828 3.77073 0.702376C3.85447 0.6526 3.96338 0.630482 4.0919 0.630482V0.013826C3.85728 0.013826 3.64502 0.0636022 3.46074 0.168683C2.67596 0.61665 2.50005 2.0131 2.90496 3.76628C1.16791 4.29721 0.0368652 5.14615 0.0368652 6.04206C0.0368652 6.94081 1.17349 7.79251 2.91613 8.32063C2.51397 10.0794 2.6927 11.4785 3.48029 11.9265C3.66182 12.0316 3.87402 12.0814 4.10863 12.0814C4.87661 12.0814 5.88202 11.5394 6.89854 10.5992C7.91506 11.5339 8.92047 12.0704 9.68845 12.0704C9.923 12.0704 10.1353 12.0206 10.3196 11.9155C11.1043 11.4675 11.2803 10.071 10.8753 8.31791C12.6068 7.78973 13.7379 6.93803 13.7379 6.04206ZM10.1018 4.19765C9.99843 4.5544 9.86998 4.92212 9.72473 5.28991C9.61026 5.06873 9.49017 4.84749 9.35891 4.62625C9.23045 4.40505 9.09357 4.18936 8.95675 3.9792C9.35329 4.03727 9.7359 4.10917 10.1018 4.19765ZM8.82267 7.14264C8.60485 7.51599 8.38148 7.86992 8.14967 8.199C7.73352 8.23493 7.31188 8.25428 6.88736 8.25428C6.46565 8.25428 6.04394 8.23493 5.63067 8.20172C5.39886 7.87264 5.17261 7.52149 4.9548 7.15092C4.74254 6.7887 4.54989 6.42091 4.37391 6.0504C4.54708 5.67983 4.74254 5.30926 4.95205 4.94704C5.16987 4.57375 5.39324 4.21978 5.62505 3.89071C6.0412 3.85476 6.46284 3.83541 6.88736 3.83541C7.30907 3.83541 7.73078 3.85476 8.14405 3.88795C8.37586 4.21701 8.60211 4.56819 8.81992 4.93876C9.03218 5.30098 9.22483 5.66877 9.40081 6.03934C9.22483 6.40984 9.03218 6.78041 8.82267 7.14264ZM9.72473 6.78319C9.87133 7.14356 9.99996 7.51085 10.1102 7.88371C9.74427 7.9722 9.35891 8.04689 8.95956 8.10495C9.09638 7.89206 9.2332 7.6736 9.36172 7.44958C9.49017 7.2284 9.61026 7.00437 9.72473 6.78319ZM6.89292 9.73372C6.6332 9.4682 6.37348 9.17233 6.11657 8.84881C6.36792 8.85988 6.62483 8.86817 6.88455 8.86817C7.14708 8.86817 7.4068 8.86266 7.66096 8.84881C7.42124 9.15727 7.16485 9.45267 6.89292 9.73372ZM4.81516 8.10495C4.41862 8.04689 4.03601 7.97498 3.67019 7.8865C3.77348 7.52978 3.90199 7.16199 4.04718 6.7942C4.16171 7.01544 4.2818 7.23668 4.413 7.45786C4.54427 7.6791 4.67834 7.89478 4.81516 8.10495ZM6.87899 2.35047C7.13871 2.61593 7.39843 2.91181 7.65534 3.23535C7.40399 3.22428 7.14708 3.21599 6.88736 3.21599C6.62483 3.21599 6.36511 3.22152 6.11101 3.23535C6.35071 2.9269 6.60708 2.63151 6.87899 2.35047ZM4.81235 3.9792C4.67553 4.19213 4.53871 4.41058 4.41025 4.63453C4.2818 4.85578 4.16171 5.07702 4.04718 5.2982C3.90057 4.93783 3.77196 4.57054 3.66182 4.19765C4.02764 4.11193 4.413 4.03727 4.81235 3.9792ZM2.28498 7.44129C1.29638 7.02373 0.656845 6.47625 0.656845 6.04206C0.656845 5.60792 1.29638 5.05766 2.28498 4.64288C2.52515 4.54055 2.78768 4.44929 3.05858 4.36357C3.21776 4.90555 3.4272 5.46966 3.68692 6.04762C3.43001 6.6228 3.22331 7.18413 3.06694 7.72338C2.79049 7.63761 2.52796 7.54363 2.28498 7.44129ZM3.78746 11.3928C3.40766 11.1772 3.24286 10.3559 3.37138 9.29952C3.4021 9.03963 3.45231 8.76583 3.51376 8.48653C4.06117 8.61929 4.65879 8.72162 5.28714 8.78797C5.66414 9.29952 6.05512 9.76408 6.44892 10.1706C5.53849 11.0085 4.6839 11.4675 4.10301 11.4675C3.97737 11.4648 3.87127 11.4398 3.78746 11.3928ZM10.4118 9.28573C10.543 10.342 10.3811 11.1633 10.004 11.3818C9.92025 11.4315 9.81134 11.4537 9.68282 11.4537C9.10475 11.4537 8.24741 10.9974 7.33698 10.1651C7.72797 9.75858 8.11895 9.2968 8.49039 8.78519C9.12155 8.71884 9.71917 8.6165 10.2665 8.48103C10.3308 8.76033 10.381 9.02857 10.4118 9.28573ZM11.4869 7.44129C11.2468 7.54363 10.9842 7.63489 10.7133 7.7206C10.5542 7.17862 10.3447 6.61451 10.085 6.03655C10.342 5.46137 10.5486 4.90005 10.705 4.3608C10.9815 4.44653 11.244 4.54055 11.4897 4.64288C12.4784 5.06038 13.1179 5.60792 13.1179 6.04206C13.1151 6.47625 12.4755 7.02651 11.4869 7.44129Z" fill="#61DAFB"/>
<path d="M6.8846 7.30578C7.58951 7.30578 8.16091 6.74 8.16091 6.04202C8.16091 5.3441 7.58951 4.77832 6.8846 4.77832C6.17976 4.77832 5.60836 5.3441 5.60836 6.04202C5.60836 6.74 6.17976 7.30578 6.8846 7.30578ZM0.659053 14.2572H0.23775V14.9756H0V13.1996H0.593764C0.795788 13.1996 0.951007 13.2452 1.05941 13.3363C1.16864 13.4273 1.22325 13.5599 1.22325 13.7339C1.22325 13.8445 1.19287 13.9408 1.13209 14.023C1.07214 14.1051 0.988376 14.1665 0.880791 14.2072L1.30209 14.961V14.9756H1.04833L0.659053 14.2572ZM0.23775 14.0657H0.601157C0.718596 14.0657 0.811805 14.0356 0.880791 13.9754C0.950595 13.9153 0.985497 13.8347 0.985497 13.7339C0.985497 13.6241 0.952238 13.54 0.885718 13.4814C0.820017 13.4229 0.724754 13.3932 0.599921 13.3924H0.23775V14.0657ZM2.07327 15.0001C1.89257 15.0001 1.74557 14.9415 1.63224 14.8244C1.5189 14.7065 1.46223 14.5491 1.46223 14.3524V14.3109C1.46223 14.18 1.48728 14.0633 1.53738 13.9608C1.5883 13.8575 1.65893 13.777 1.74926 13.7193C1.84042 13.6607 1.93897 13.6314 2.04491 13.6314C2.21821 13.6314 2.35291 13.6879 2.44896 13.801C2.54506 13.914 2.59308 14.0758 2.59308 14.2864V14.3804H1.69013C1.69342 14.5105 1.73161 14.6158 1.8047 14.6963C1.87861 14.776 1.97223 14.8159 2.08557 14.8159C2.16607 14.8159 2.2342 14.7996 2.29003 14.7671C2.34592 14.7345 2.39475 14.6915 2.43665 14.6378L2.57585 14.7451C2.46413 14.915 2.29665 15.0001 2.07327 15.0001ZM2.04491 13.8169C1.95293 13.8169 1.87574 13.8502 1.81332 13.9169C1.7509 13.9828 1.71231 14.0755 1.69752 14.195H2.36521V14.1779C2.35866 14.0633 2.32743 13.9746 2.2716 13.912C2.21571 13.8486 2.14015 13.8169 2.04491 13.8169ZM3.68086 14.9756C3.66768 14.9496 3.657 14.9033 3.64882 14.8366C3.54285 14.9455 3.41639 15.0001 3.26939 15.0001C3.138 15.0001 3.03003 14.9635 2.94541 14.8902C2.86167 14.8162 2.81977 14.7227 2.81977 14.6097C2.81977 14.4723 2.87235 14.3658 2.97745 14.2901C3.08336 14.2137 3.23205 14.1754 3.42339 14.1754H3.64514V14.0718C3.64514 13.9929 3.62128 13.9303 3.5737 13.884C3.52605 13.8368 3.4558 13.8132 3.363 13.8132C3.28169 13.8132 3.21356 13.8335 3.15855 13.8742C3.10353 13.9148 3.07599 13.964 3.07599 14.0218H2.84687C2.84687 13.9559 2.87029 13.8925 2.91706 13.8315C2.96471 13.7697 3.02878 13.7209 3.10928 13.6851C3.19058 13.6494 3.27963 13.6314 3.37655 13.6314C3.53017 13.6314 3.65045 13.6696 3.7375 13.7461C3.82455 13.8218 3.8697 13.9263 3.87301 14.0596V14.667C3.87301 14.7882 3.88862 14.8846 3.91985 14.9561V14.9756H3.68086ZM3.30268 14.8037C3.37412 14.8037 3.44187 14.7854 3.50594 14.7488C3.56995 14.7122 3.61635 14.6646 3.64514 14.6061V14.3353H3.46648C3.18727 14.3353 3.04764 14.4162 3.04764 14.578C3.04764 14.6487 3.0715 14.7041 3.11908 14.7439C3.16673 14.7837 3.22793 14.8037 3.30268 14.8037ZM4.76488 14.8159C4.84619 14.8159 4.91726 14.7914 4.97802 14.7426C5.03878 14.6939 5.07244 14.6329 5.079 14.5597H5.29463C5.29051 14.6353 5.26422 14.7073 5.21576 14.7756C5.1673 14.8439 5.10241 14.8984 5.02111 14.939C4.94061 14.9797 4.85525 15.0001 4.76488 15.0001C4.58341 15.0001 4.43885 14.9403 4.33125 14.8207C4.22453 14.7004 4.17113 14.5361 4.17113 14.3279V14.2901C4.17113 14.1617 4.19493 14.0474 4.24257 13.9474C4.29022 13.8474 4.35835 13.7697 4.44709 13.7144C4.53658 13.6591 4.64211 13.6314 4.76364 13.6314C4.91314 13.6314 5.03716 13.6758 5.1357 13.7644C5.23505 13.853 5.28801 13.9681 5.29463 14.1096H5.079C5.07244 14.0242 5.03959 13.9543 4.98045 13.8998C4.92219 13.8445 4.84988 13.8169 4.76364 13.8169C4.64786 13.8169 4.55793 13.8583 4.49386 13.9413C4.43067 14.0234 4.399 14.1426 4.399 14.2987V14.3413C4.399 14.4934 4.43067 14.6105 4.49386 14.6926C4.55712 14.7748 4.64748 14.8159 4.76488 14.8159ZM5.86003 13.3363V13.6559H6.10888V13.8303H5.86003V14.6487C5.86003 14.7016 5.87114 14.7414 5.89331 14.7682C5.91548 14.7943 5.95326 14.8073 6.00665 14.8073C6.03288 14.8073 6.06904 14.8024 6.115 14.7927V14.9756C6.05505 14.9919 5.99679 15.0001 5.94009 15.0001C5.8383 15.0001 5.76149 14.9695 5.70972 14.9085C5.65801 14.8476 5.63216 14.761 5.63216 14.6487V13.8303H5.38942V13.6559H5.63216V13.3363H5.86003ZM8.41619 14.9756H8.17839L7.27546 13.6071V14.9756H7.03773V13.1996H7.27546L8.18089 14.5743V13.1996H8.41619V14.9756ZM9.62343 14.9756C9.61025 14.9496 9.59957 14.9033 9.59139 14.8366C9.48542 14.9455 9.35896 15.0001 9.21196 15.0001C9.08057 15.0001 8.97254 14.9635 8.88798 14.8902C8.80424 14.8162 8.76234 14.7227 8.76234 14.6097C8.76234 14.4723 8.81486 14.3658 8.92002 14.2901C9.02593 14.2137 9.17462 14.1754 9.36596 14.1754H9.58771V14.0718C9.58771 13.9929 9.56385 13.9303 9.51621 13.884C9.46862 13.8368 9.39837 13.8132 9.30557 13.8132C9.22426 13.8132 9.15613 13.8335 9.10112 13.8742C9.0461 13.9148 9.01856 13.964 9.01856 14.0218H8.78944C8.78944 13.9559 8.81286 13.8925 8.85963 13.8315C8.90728 13.7697 8.97135 13.7209 9.05185 13.6851C9.13315 13.6494 9.2222 13.6314 9.31912 13.6314C9.47268 13.6314 9.59302 13.6696 9.68007 13.7461C9.76712 13.8218 9.81227 13.9263 9.81558 14.0596V14.667C9.81558 14.7882 9.83119 14.8846 9.86241 14.9561V14.9756H9.62343ZM9.24525 14.8037C9.31669 14.8037 9.38444 14.7854 9.44851 14.7488C9.51252 14.7122 9.55892 14.6646 9.58771 14.6061V14.3353H9.40905C9.12984 14.3353 8.99021 14.4162 8.99021 14.578C8.99021 14.6487 9.01407 14.7041 9.06165 14.7439C9.1093 14.7837 9.1705 14.8037 9.24525 14.8037ZM10.482 13.3363V13.6559H10.7309V13.8303H10.482V14.6487C10.482 14.7016 10.4931 14.7414 10.5153 14.7682C10.5375 14.7943 10.5753 14.8073 10.6286 14.8073C10.6549 14.8073 10.691 14.8024 10.7371 14.7927V14.9756C10.677 14.9919 10.6188 15.0001 10.5621 15.0001C10.4603 15.0001 10.3835 14.9695 10.3317 14.9085C10.28 14.8476 10.2541 14.761 10.2541 14.6487V13.8303H10.0115V13.6559H10.2541V13.3363H10.482ZM11.2458 14.9756H11.0179V13.6559H11.2458V14.9756ZM10.9994 13.3058C10.9994 13.2692 11.0105 13.2383 11.0327 13.2131C11.0557 13.1878 11.0893 13.1753 11.1337 13.1753C11.1781 13.1753 11.2117 13.1878 11.2347 13.2131C11.2577 13.2383 11.2692 13.2692 11.2692 13.3058C11.2692 13.3424 11.2577 13.3728 11.2347 13.3973C11.2117 13.4216 11.1781 13.4339 11.1337 13.4339C11.0893 13.4339 11.0557 13.4216 11.0327 13.3973C11.0105 13.3728 10.9994 13.3424 10.9994 13.3058ZM12.0515 14.6695L12.3815 13.6559H12.6144L12.1364 14.9756H11.9627L11.4799 13.6559H11.7127L12.0515 14.6695ZM13.3695 15.0001C13.1889 15.0001 13.0419 14.9415 12.9285 14.8244C12.8152 14.7065 12.7585 14.5491 12.7585 14.3524V14.3109C12.7585 14.18 12.7836 14.0633 12.8337 13.9608C12.8846 13.8575 12.9552 13.777 13.0456 13.7193C13.1367 13.6607 13.2353 13.6314 13.3412 13.6314C13.5145 13.6314 13.6492 13.6879 13.7453 13.801C13.8413 13.914 13.8894 14.0758 13.8894 14.2864V14.3804H12.9864C12.9897 14.5105 13.0279 14.6158 13.101 14.6963C13.1749 14.776 13.2686 14.8159 13.3818 14.8159C13.4623 14.8159 13.5305 14.7996 13.5864 14.7671C13.6422 14.7345 13.6911 14.6915 13.733 14.6378L13.8722 14.7451C13.7605 14.915 13.5929 15.0001 13.3695 15.0001ZM13.3412 13.8169C13.2493 13.8169 13.172 13.8502 13.1096 13.9169C13.0472 13.9828 13.0086 14.0755 12.9938 14.195H13.6615V14.1779C13.6549 14.0633 13.6237 13.9746 13.5679 13.912C13.512 13.8486 13.4365 13.8169 13.3412 13.8169Z" fill="#61DAFB"/>
</svg>
