<svg width="15" height="15" viewBox="0 0 15 15" fill="none" xmlns="http://www.w3.org/2000/svg">
<g clip-path="url(#clip0_3363_2949)">
<path fill-rule="evenodd" clip-rule="evenodd" d="M14.0625 14.125C14.3111 14.125 14.5496 14.0262 14.7254 13.8504C14.9012 13.6746 15 13.4361 15 13.1875L15 1.93734C15 1.68869 14.9012 1.45023 14.7254 1.27442C14.5496 1.0986 14.3111 0.999825 14.0625 0.999825C13.8138 0.999825 13.5754 1.0986 13.3996 1.27442C13.2237 1.45023 13.125 1.68869 13.125 1.93734L13.125 13.1875C13.125 13.4361 13.2237 13.6746 13.3996 13.8504C13.5754 14.0262 13.8138 14.125 14.0625 14.125ZM4.41267 5.4127C4.58345 5.23588 4.67794 4.99906 4.67581 4.75325C4.67367 4.50744 4.57507 4.2723 4.40125 4.09847C4.22743 3.92465 3.99229 3.82605 3.74648 3.82392C3.50066 3.82178 3.26385 3.91628 3.08703 4.08705L0.27449 6.89959C0.0987337 7.0754 2.67391e-09 7.31382 2.67391e-09 7.56241C2.67391e-09 7.81101 0.0987337 8.04942 0.27449 8.22523L3.08703 11.0378C3.17351 11.1273 3.27696 11.1987 3.39134 11.2479C3.50572 11.297 3.62874 11.3229 3.75322 11.3239C3.87771 11.325 4.00116 11.3013 4.11637 11.2542C4.23159 11.207 4.33627 11.1374 4.42429 11.0494C4.51232 10.9614 4.58193 10.8567 4.62907 10.7415C4.67621 10.6263 4.69993 10.5028 4.69885 10.3783C4.69777 10.2538 4.6719 10.1308 4.62277 10.0164C4.57364 9.90206 4.50221 9.79861 4.41267 9.71213L3.20047 8.49992L10.3124 8.49992C10.5611 8.49992 10.7995 8.40115 10.9754 8.22533C11.1512 8.04952 11.2499 7.81106 11.2499 7.56241C11.2499 7.31377 11.1512 7.07531 10.9754 6.89949C10.7995 6.72367 10.5611 6.6249 10.3124 6.6249L3.20047 6.6249L4.41267 5.4127Z" fill="#EAEAEA"/>
</g>
<defs>
<clipPath id="clip0_3363_2949">
<rect width="15" height="15" fill="white"/>
</clipPath>
</defs>
</svg>
