<svg width="15" height="15" viewBox="0 0 15 15" fill="none" xmlns="http://www.w3.org/2000/svg">
<path d="M7.0088 0.00403655C6.97654 0.00696867 6.8739 0.0172311 6.78152 0.0245614C4.65103 0.216615 2.65543 1.36601 1.3915 3.13261C0.687683 4.11487 0.237537 5.22908 0.0674487 6.40925C0.00733138 6.82122 0 6.9429 0 7.50147C0 8.06004 0.00733138 8.18172 0.0674487 8.59368C0.475073 11.41 2.47947 13.7762 5.19795 14.6529C5.68475 14.8098 6.19795 14.9168 6.78152 14.9813C7.0088 15.0062 7.9912 15.0062 8.21848 14.9813C9.22581 14.8699 10.0792 14.6207 10.9208 14.1911C11.0499 14.1251 11.0748 14.1075 11.0572 14.0929C11.0455 14.0841 10.4956 13.3467 9.83578 12.4553L8.63636 10.8353L7.13343 8.61128C6.30645 7.38858 5.6261 6.38873 5.62023 6.38873C5.61437 6.38726 5.6085 7.37539 5.60557 8.58196C5.60117 10.6945 5.59971 10.7796 5.57331 10.8294C5.53519 10.9013 5.50586 10.9306 5.44428 10.9628C5.39736 10.9863 5.35631 10.9907 5.1349 10.9907H4.88123L4.81378 10.9482C4.76979 10.9203 4.73754 10.8837 4.71554 10.8412L4.68475 10.7752L4.68768 7.83573L4.69208 4.89481L4.73754 4.83764C4.761 4.80685 4.81085 4.76727 4.84604 4.74821C4.90616 4.71889 4.92962 4.71595 5.18328 4.71595C5.4824 4.71595 5.53226 4.72768 5.60997 4.81271C5.63196 4.83617 6.44575 6.0618 7.41935 7.53812C8.39296 9.01444 9.72434 11.0303 10.3783 12.0199L11.566 13.8187L11.6261 13.7791C12.1584 13.4331 12.7214 12.9406 13.1672 12.4274C14.1158 11.3381 14.7273 10.0099 14.9326 8.59368C14.9927 8.18172 15 8.06004 15 7.50147C15 6.9429 14.9927 6.82122 14.9326 6.40925C14.5249 3.59295 12.5205 1.22673 9.80205 0.350027C9.32258 0.194624 8.81232 0.087602 8.24047 0.0230953C8.09971 0.00843473 7.1305 -0.00769193 7.0088 0.00403655ZM10.0792 4.54003C10.1496 4.57521 10.2067 4.64265 10.2273 4.71302C10.239 4.75114 10.2419 5.56627 10.239 7.40324L10.2346 10.0392L9.76979 9.32671L9.30352 8.61421V6.69807C9.30352 5.45925 9.30938 4.76287 9.31818 4.72915C9.34164 4.64705 9.39296 4.58254 9.46334 4.54442C9.52346 4.51364 9.54545 4.51071 9.77566 4.51071C9.99267 4.51071 10.0308 4.51364 10.0792 4.54003Z" fill="black"/>
</svg>
