<svg width="15" height="15" viewBox="0 0 15 15" fill="none" xmlns="http://www.w3.org/2000/svg">
<path d="M10.9817 0.275957C10.8066 0.0999666 10.5688 0.000705936 10.3205 3.75085e-06C10.0722 -0.000698435 9.83384 0.0972156 9.65776 0.272213C9.56488 0.366885 9.49308 0.480139 9.4471 0.604531C8.66811 2.22961 7.81048 3.14606 6.72813 3.68713C5.51377 4.28624 4.11965 4.70281 1.87257 4.70281C1.68773 4.70369 1.50723 4.75891 1.35356 4.86162C1.1999 4.96432 1.07985 5.10996 1.00838 5.28039C0.937621 5.45151 0.919157 5.63975 0.955318 5.82135C0.991478 6.00295 1.08064 6.16977 1.21155 6.30075L4.24792 9.33655L0 15L5.66451 10.7529L8.69994 13.7877C8.7869 13.8754 8.89074 13.9445 9.00517 13.9909C9.1194 14.0386 9.24112 14.0639 9.36283 14.0639C9.48455 14.0639 9.60627 14.0386 9.72049 13.9909C9.89171 13.9207 10.0382 13.8011 10.1412 13.6474C10.2442 13.4937 10.2992 13.3128 10.2991 13.1278C10.2991 10.8811 10.7148 9.48726 11.3131 8.29185C11.8533 7.20971 12.77 6.35223 14.3963 5.57339C14.5206 5.52784 14.6337 5.456 14.7277 5.36277C14.9028 5.18673 15.0007 4.94839 15 4.70016C14.9993 4.45194 14.9 4.21416 14.724 4.03911L10.9817 0.275957Z" fill="#EAEAEA"/>
</svg>
