<svg width="17" height="15" viewBox="0 0 17 15" fill="none" xmlns="http://www.w3.org/2000/svg">
<path d="M16.2608 1.26157C16.2272 1.31014 16.1852 1.3524 16.1369 1.38638L5.15205 9.0758L7.01427 13.9373C7.04721 14.0237 7.10341 14.0993 7.17665 14.1558C7.24989 14.2123 7.33733 14.2474 7.42929 14.2573C7.52126 14.2672 7.61417 14.2515 7.69775 14.2119C7.78132 14.1722 7.85232 14.1103 7.90288 14.0328L16.2608 1.26157ZM4.57762 8.25549L0.646283 4.841C0.576327 4.7805 0.524467 4.70182 0.496438 4.61368C0.468408 4.52554 0.4653 4.43137 0.487458 4.34157C0.509615 4.25178 0.556176 4.16986 0.62199 4.10488C0.687805 4.03989 0.77031 3.99438 0.860384 3.97336L15.7237 0.489592C15.6657 0.504519 15.6109 0.529693 15.5619 0.563924L4.57762 8.25549Z" fill="#EAEAEA"/>
</svg>
