<svg width="16" height="16" viewBox="0 0 16 16" fill="none" xmlns="http://www.w3.org/2000/svg">
<path d="M8.00069 3.65183C8.00069 3.44759 8.00069 3.34465 8.04763 3.26065C8.09012 3.18829 8.1544 3.13121 8.23128 3.09759C8.32022 3.06136 8.41081 3.07289 8.59199 3.0943C9.40327 3.1921 10.1776 3.48958 10.8457 3.9601C11.5138 4.43062 12.0548 5.05949 12.4202 5.79039C12.7856 6.5213 12.9641 7.33142 12.9396 8.14821C12.915 8.965 12.6883 9.76296 12.2797 10.4706C11.8712 11.1783 11.2934 11.7736 10.5983 12.2032C9.90319 12.6328 9.11237 12.8833 8.29668 12.9323C7.48099 12.9812 6.66589 12.8271 5.92437 12.4838C5.18285 12.1404 4.53806 11.6185 4.04775 10.9648C3.93822 10.819 3.88305 10.7457 3.87069 10.651C3.86122 10.5674 3.87852 10.4829 3.9201 10.4097C3.96952 10.3274 4.05763 10.2763 4.23469 10.1742L7.70422 8.17136C7.8121 8.10877 7.86646 8.07748 7.90516 8.03383C7.94002 7.99526 7.96639 7.94981 7.98257 7.90042C8.00069 7.84524 8.00069 7.78265 8.00069 7.65747V3.65183Z" fill="#F4F4F4"/>
<path d="M8 15C11.866 15 15 11.866 15 8C15 4.13401 11.866 1 8 1C4.13401 1 1 4.13401 1 8C1 11.866 4.13401 15 8 15Z" stroke="#F4F4F4"/>
</svg>
