<svg width="15" height="15" viewBox="0 0 15 15" fill="none" xmlns="http://www.w3.org/2000/svg">
<path d="M0 0H14.9999V15H0V0Z" fill="#F0DB4F"/>
<path d="M13.7723 11.4224C13.6624 10.7381 13.2162 10.1633 11.8944 9.62731C11.4353 9.4163 10.9234 9.2652 10.7708 8.91724C10.7167 8.71474 10.7095 8.60067 10.7438 8.47809C10.8421 8.08028 11.317 7.95626 11.6934 8.07033C11.9358 8.15157 12.1652 8.33837 12.3036 8.63637C12.9509 8.21723 12.9496 8.21999 13.4015 7.93194C13.2361 7.6754 13.1478 7.55701 13.0394 7.44725C12.6501 7.01242 12.1197 6.78847 11.2713 6.8056L10.8294 6.86276C10.406 6.96976 10.0024 7.19203 9.76576 7.49003C9.05569 8.29572 9.2582 9.70579 10.1222 10.2861C10.9735 10.925 12.2239 11.0703 12.3836 11.6678C12.5391 12.3992 11.8461 12.6359 11.1574 12.5518C10.6498 12.4463 10.3675 12.1883 10.0623 11.7192C9.5006 12.0442 9.5006 12.0442 8.92305 12.3764C9.06001 12.6758 9.20392 12.8114 9.4335 13.0708C10.52 14.1729 13.2391 14.1187 13.7267 12.4506C13.7465 12.3933 13.8778 12.0113 13.7723 11.4224ZM8.15439 6.89391H6.75138L6.74563 10.5212C6.74563 11.2926 6.78553 11.9998 6.66008 12.2166C6.45482 12.6429 5.92293 12.59 5.68053 12.5074C5.43382 12.3861 5.30836 12.2137 5.16302 11.97C5.12312 11.9 5.09316 11.8458 5.08309 11.8416L3.94238 12.5402C4.13206 12.9295 4.41149 13.2674 4.7694 13.4869C5.30405 13.8078 6.02262 13.9062 6.77415 13.7336C7.26327 13.5912 7.68528 13.296 7.90624 12.8468C8.22568 12.2579 8.15714 11.5451 8.15427 10.7566C8.16146 9.47034 8.15439 8.18428 8.15439 6.89391Z" fill="#323330"/>
</svg>
