<svg width="15" height="15" viewBox="0 0 15 15" fill="none" xmlns="http://www.w3.org/2000/svg">
<path d="M3.13679 9.50364C3.13574 9.91925 2.97023 10.3175 2.67642 10.6115C2.38262 10.9055 1.9844 11.0712 1.56879 11.0724C1.15305 11.0714 0.75463 10.9058 0.460652 10.6118C0.166673 10.3178 0.00105226 9.91939 0 9.50364C0 8.64032 0.705479 7.93485 1.56879 7.93485H3.13679V9.50364ZM3.92757 9.50364C3.92757 8.64032 4.63304 7.93485 5.49636 7.93485C6.35967 7.93485 7.06436 8.64032 7.06436 9.50364V13.4312C7.06331 13.8468 6.89779 14.2451 6.60399 14.5391C6.31018 14.833 5.91197 14.9987 5.49636 15C5.08061 14.9989 4.6822 14.8333 4.38822 14.5393C4.09424 14.2454 3.92862 13.847 3.92757 13.4312V9.50364ZM5.49636 3.13679C5.08075 3.13574 4.68245 2.97023 4.3885 2.67642C4.09454 2.38262 3.92883 1.9844 3.92757 1.56879C3.92757 0.705479 4.63304 0 5.49636 0C6.35967 0 7.06436 0.705479 7.06436 1.56879V3.13679H5.49636ZM5.49636 3.92757C6.35967 3.92757 7.06436 4.63304 7.06436 5.49636C7.06309 5.91183 6.89749 6.30992 6.60371 6.60371C6.30992 6.89749 5.91183 7.06309 5.49636 7.06436H1.56879C1.15319 7.06331 0.754887 6.89779 0.460932 6.60399C0.166976 6.31018 0.00126256 5.91197 0 5.49636C0 4.63304 0.705479 3.92757 1.56879 3.92757H5.49636ZM11.8624 5.49636C11.8624 4.63304 12.5679 3.92757 13.4312 3.92757C14.2945 3.92757 15 4.63304 15 5.49636C14.9987 5.91197 14.833 6.31018 14.5391 6.60399C14.2451 6.89779 13.8468 7.06331 13.4312 7.06436H11.8624V5.49636ZM11.0724 5.49636C11.0712 5.91197 10.9055 6.31018 10.6115 6.60399C10.3175 6.89779 9.91925 7.06331 9.50364 7.06436C9.08803 7.06331 8.68973 6.89779 8.39578 6.60399C8.10182 6.31018 7.93611 5.91197 7.93485 5.49636V1.56879C7.93485 0.705479 8.64032 0 9.50364 0C10.367 0 11.0724 0.705479 11.0724 1.56879V5.49636ZM9.50364 11.8624C10.367 11.8624 11.0724 12.5679 11.0724 13.4312C11.0714 13.847 10.9058 14.2454 10.6118 14.5393C10.3178 14.8333 9.91939 14.9989 9.50364 15C9.08789 14.9989 8.68947 14.8333 8.3955 14.5393C8.10152 14.2454 7.9359 13.847 7.93485 13.4312V11.8624H9.50364ZM9.50364 11.0724C9.08789 11.0714 8.68947 10.9058 8.3955 10.6118C8.10152 10.3178 7.9359 9.91939 7.93485 9.50364C7.93485 8.64032 8.64032 7.93485 9.50364 7.93485H13.4312C14.2945 7.93485 15 8.64032 15 9.50364C14.9989 9.91939 14.8333 10.3178 14.5393 10.6118C14.2454 10.9058 13.847 11.0714 13.4312 11.0724H9.50364Z" fill="#EAEAEA"/>
</svg>
