<svg width="164" height="242" viewBox="0 0 164 242" fill="none" xmlns="http://www.w3.org/2000/svg">
<path d="M75.7679 208.193C85.3747 199.175 90.7707 186.952 90.7707 174.207C90.7707 161.463 85.3747 149.24 75.7679 140.222L39.7931 173.947C35.0208 178.408 31.2344 183.707 28.6509 189.542C26.0674 195.378 24.7375 201.633 24.7375 207.951C24.7375 214.269 26.0674 220.524 28.6509 226.359C31.2344 232.194 35.0208 237.494 39.7931 241.955L75.7679 208.193Z" fill="url(#paint0_linear_3387_2945)"/>
<path d="M15.0159 0C10.2555 4.45941 6.47914 9.7545 3.90265 15.5827C1.32615 21.4109 0 27.6579 0 33.9667C0 40.2756 1.32615 46.5226 3.90265 52.3508C6.47914 58.179 10.2555 63.4741 15.0159 67.9335L91.0154 139.18C95.7758 143.639 99.5522 148.934 102.129 154.763C104.705 160.591 106.031 166.838 106.031 173.147C106.031 179.455 104.705 185.702 102.129 191.531C99.5522 197.359 95.7758 202.654 91.0154 207.113L163.481 139.18L15.0159 0Z" fill="url(#paint1_linear_3387_2945)"/>
<defs>
<linearGradient id="paint0_linear_3387_2945" x1="-2.83448" y1="210.792" x2="105.373" y2="69.0104" gradientUnits="userSpaceOnUse">
<stop stop-color="#02FFE2"/>
<stop offset="1" stop-color="#0088D8"/>
</linearGradient>
<linearGradient id="paint1_linear_3387_2945" x1="78.19" y1="198.328" x2="83.3202" y2="14.0881" gradientUnits="userSpaceOnUse">
<stop stop-color="#02FFE2"/>
<stop offset="1" stop-color="#C108FE"/>
</linearGradient>
</defs>
</svg>
