<svg viewBox="0 0 22 20" fill="currentColor" xmlns="http://www.w3.org/2000/svg">
<path d="M9.779 0.357947C10.1136 0.141996 10.5029 0.0188868 10.9048 0.00200488C11.3066 -0.0148771 11.7055 0.075114 12.0582 0.262194L12.2199 0.357947L21.0199 6.03182C21.2956 6.20951 21.5262 6.44513 21.6946 6.7211C21.863 6.99706 21.9647 7.30625 21.9923 7.62557L22 7.80218V17.8722C22.0002 18.409 21.7906 18.926 21.4132 19.3197C21.0358 19.7133 20.5185 19.9544 19.965 19.9947L19.8 20H2.2C1.64497 20.0002 1.11038 19.7974 0.703397 19.4324C0.296418 19.0674 0.0471276 18.5671 0.00550013 18.0318L0 17.8722V7.80218C5.71046e-06 7.48184 0.074794 7.16563 0.218786 6.87714C0.362779 6.58866 0.572259 6.33534 0.8316 6.13608L0.9801 6.03182L9.779 0.357947ZM11 2.12831L3.0833 7.23298L11 12.3377L18.9167 7.23298L11 2.12831Z"/>
</svg>
