<svg width="15" height="15" viewBox="0 0 15 15" fill="none" xmlns="http://www.w3.org/2000/svg">
<path d="M3.33401 0H11.6426C12.0469 0 12.4395 0.0644531 12.8203 0.199219C13.3711 0.398438 13.8692 0.75 14.2442 1.20703C14.625 1.66406 14.877 2.22656 14.9649 2.8125C15 3.0293 15.0059 3.24609 15.0059 3.46289V11.5664C15.0059 11.8242 14.9942 12.0879 14.9414 12.3398C14.8242 12.9199 14.5489 13.4648 14.1504 13.9043C13.7578 14.3438 13.2422 14.6719 12.6856 14.8477C12.3457 14.9531 11.9942 15 11.6367 15C11.4785 15 3.31057 15 3.18753 14.9941C2.58987 14.9648 1.99807 14.7715 1.50003 14.4375C1.0137 14.1094 0.61526 13.6523 0.357447 13.125C0.134791 12.6738 0.0234626 12.1699 0.0234626 11.666V3.33398C0.0117439 2.83594 0.117213 2.34375 0.33401 1.89844C0.585963 1.37109 0.978541 0.908203 1.46487 0.580078C1.96292 0.240234 2.54885 0.0410156 3.14651 0.0117188C3.2051 0 3.26956 0 3.33401 0Z" fill="url(#paint0_linear_3355_2782)"/>
<path d="M12.6562 12.2695C12.6035 12.1875 12.5449 12.1055 12.4805 12.0293C12.334 11.8535 12.1641 11.7012 11.9766 11.5723C11.7422 11.4141 11.4668 11.3145 11.1855 11.3027C10.9863 11.291 10.7871 11.3262 10.5996 11.3965C10.4121 11.4609 10.2305 11.5547 10.0547 11.6484C9.84961 11.7539 9.64453 11.8594 9.42773 11.9473C9.16992 12.0527 8.90039 12.1348 8.625 12.1934C8.2793 12.2578 7.92773 12.2812 7.58203 12.2754C6.95508 12.2637 6.32812 12.1699 5.73047 11.9941C5.20312 11.8359 4.69922 11.6191 4.22461 11.3438C3.80859 11.1035 3.42188 10.8281 3.05859 10.5176C2.75977 10.2598 2.48438 9.98438 2.22656 9.69141C2.05078 9.48633 1.88086 9.26953 1.72266 9.04688C1.6582 8.95898 1.59961 8.86523 1.54688 8.77148L0 7.10156V3.32227C0 1.48828 1.48242 0 3.31641 0H6.27539L8.4668 2.22656C13.4121 5.58984 11.8125 9.29883 11.8125 9.29883C11.8125 9.29883 13.2188 10.8809 12.6562 12.2695Z" fill="url(#paint1_linear_3355_2782)"/>
<path d="M8.47852 2.22656C13.4238 5.58984 11.8242 9.29883 11.8242 9.29883C11.8242 9.29883 13.2305 10.8867 12.6621 12.2754C12.6621 12.2754 12.082 11.3027 11.1094 11.3027C10.1719 11.3027 9.62109 12.2754 7.73438 12.2754C3.5332 12.2754 1.54688 8.76563 1.54688 8.76563C5.33203 11.2559 7.91602 9.49219 7.91602 9.49219C6.21094 8.50195 2.58398 3.76758 2.58398 3.76758C5.74219 6.45703 7.10742 7.16602 7.10742 7.16602C6.29297 6.49219 4.00781 3.19922 4.00781 3.19922C5.83594 5.05078 9.46875 7.63477 9.46875 7.63477C10.5 4.77539 8.47852 2.22656 8.47852 2.22656Z" fill="white"/>
<defs>
<linearGradient id="paint0_linear_3355_2782" x1="8.92333" y1="-0.535254" x2="6.08932" y2="15.5371" gradientUnits="userSpaceOnUse">
<stop stop-color="#FAAE42"/>
<stop offset="1" stop-color="#EF3E31"/>
</linearGradient>
<linearGradient id="paint1_linear_3355_2782" x1="7.65305" y1="0.242344" x2="5.57889" y2="12.0054" gradientUnits="userSpaceOnUse">
<stop stop-color="#E39F3A"/>
<stop offset="1" stop-color="#D33929"/>
</linearGradient>
</defs>
</svg>
