<svg width="20" height="10" viewBox="0 0 20 10" fill="none" xmlns="http://www.w3.org/2000/svg">
<path d="M0 8.98104H0.620827V6.10729L1.58193 8.61343C1.69529 8.91555 1.85061 9.02409 2.155 9.02409C2.45938 9.02409 2.60863 8.91673 2.72218 8.61343L3.68337 6.10729V8.98212H4.30429V6.11204C4.30429 5.83205 4.20859 5.69663 4.01168 5.62672C3.5401 5.45408 3.22366 5.60341 3.08048 5.97674L2.13733 8.45008L1.2238 5.97566C1.08652 5.60233 0.764186 5.453 0.292608 5.62564C0.0955118 5.69566 0 5.83108 0 6.11096V8.98104ZM4.82031 6.64117H5.44095V8.22511C5.43515 8.31121 5.46451 8.5132 5.80459 8.51935C5.97814 8.52258 7.14378 8.51935 7.15464 8.51935V6.63329H7.77666C7.77942 6.63329 7.77602 9.20493 7.77611 9.21594C7.77952 9.85016 7.10495 9.98794 6.79413 9.99863H4.83383V9.50877L6.79762 9.50866C7.19715 9.45903 7.15004 9.22629 7.15004 9.14785V8.95687H5.83054C5.21662 8.9504 4.82574 8.63609 4.82086 8.27464C4.8204 8.24227 4.83411 6.65671 4.82049 6.64106L4.82031 6.64117Z" fill="#00618A"/>
<path d="M8.88892 9.56728H10.7912C11.0138 9.56728 11.2302 9.52303 11.4021 9.44637C11.6885 9.32155 11.8284 9.15229 11.8284 8.93068V8.47145C11.8284 8.29008 11.6694 8.12092 11.3577 8.00811C11.1923 7.94757 10.9887 7.91543 10.7915 7.91543H9.9898C9.72267 7.91543 9.59538 7.83886 9.56361 7.6697C9.55723 7.64958 9.55723 7.63244 9.55723 7.61325V7.32727C9.55723 7.31116 9.55723 7.29495 9.56361 7.27483C9.59538 7.14591 9.6654 7.10958 9.90076 7.08853C9.91988 7.08853 9.94528 7.08443 9.9645 7.08443H11.854V6.66553H9.99627C9.72905 6.66553 9.5891 6.68164 9.46182 6.71788C9.067 6.83478 8.89519 7.02109 8.89519 7.34339V7.71003C8.89519 7.99209 9.23254 8.23382 9.79857 8.29018C9.86232 8.29418 9.92586 8.29819 9.98941 8.29819H10.6766C10.7021 8.29819 10.7275 8.29819 10.7466 8.30229C10.9564 8.3184 11.0457 8.35464 11.1092 8.42711C11.1484 8.46437 11.1602 8.49977 11.1602 8.53889V8.90553C11.1602 8.94987 11.1284 9.00632 11.0648 9.05457C11.0075 9.10301 10.9121 9.13515 10.7848 9.14325C10.7593 9.14325 10.7403 9.14726 10.7149 9.14726H8.88892V9.56625V9.56728ZM15.9559 8.83809C15.9559 9.26919 16.2931 9.51092 16.9738 9.55927C17.0373 9.56394 17.101 9.56661 17.1647 9.56728H18.8889V9.14828H17.1519C16.7639 9.14828 16.6175 9.0556 16.6175 8.83399V6.66637H15.9558V8.8379L15.9559 8.83809ZM12.2505 8.85989V7.36621C12.2505 6.98671 12.531 6.75654 13.0856 6.68388C13.1448 6.67585 13.2045 6.67181 13.2642 6.67177H14.5201C14.582 6.6718 14.6438 6.67585 14.7051 6.68388C15.2598 6.75654 15.5402 6.98662 15.5402 7.36621V8.85989C15.5402 9.16775 15.4211 9.33254 15.1465 9.43994L15.7982 9.99885H15.03L14.5027 9.54669L13.9719 9.57864H13.2642C13.1431 9.57864 13.0156 9.56243 12.8753 9.5261C12.4536 9.41712 12.2505 9.20716 12.2505 8.85989ZM12.9647 8.82263C12.9647 8.84284 12.9711 8.86296 12.9775 8.88727C13.0167 9.06091 13.1878 9.15779 13.4482 9.15779H14.0493L13.4972 8.6843H14.2655L14.746 9.09724C14.8347 9.05234 14.8931 8.98359 14.9127 8.89538C14.9191 8.87526 14.9191 8.85504 14.9191 8.83483V7.40263C14.9191 7.38652 14.9191 7.36537 14.9127 7.34609C14.8735 7.18466 14.7023 7.09179 14.4473 7.09179H13.4494C13.1552 7.09179 12.9649 7.21288 12.9649 7.40263V8.82375L12.9647 8.82263Z" fill="#E48E00"/>
<path d="M19.3543 5.45765C18.9469 5.44706 18.6356 5.48346 18.3696 5.59142C18.294 5.62215 18.1734 5.62291 18.1611 5.71414C18.2026 5.75602 18.2092 5.81861 18.2421 5.87013C18.3057 5.96912 18.413 6.10176 18.5086 6.17116C18.6131 6.24708 18.7208 6.32838 18.8331 6.39428C19.0325 6.51132 19.2551 6.57816 19.4471 6.6953C19.5602 6.76432 19.6726 6.8513 19.783 6.92939C19.8375 6.96796 19.8744 7.0279 19.9451 7.05201V7.04085C19.9078 6.99519 19.8983 6.93241 19.8641 6.88486L19.7135 6.73993C19.5661 6.55084 19.3793 6.38662 19.1805 6.24925C19.0221 6.13977 18.6674 5.99191 18.6012 5.81435L18.5897 5.8032C18.702 5.79091 18.8336 5.75186 18.9374 5.7252C19.1116 5.68029 19.2673 5.69183 19.4473 5.6472L19.6906 5.58027V5.53564C19.5996 5.44583 19.5348 5.32699 19.4357 5.24578C19.1763 5.03306 18.8931 4.82081 18.6016 4.64354C18.4399 4.54522 18.2401 4.48149 18.0687 4.3982C18.011 4.37022 17.9098 4.35566 17.8717 4.30895C17.7818 4.19853 17.7327 4.05842 17.6633 3.93078C17.5179 3.66134 17.3751 3.36693 17.2462 3.0834C17.1583 2.89006 17.1008 2.69937 16.9914 2.52588C16.4653 1.69353 15.899 1.19113 15.0219 0.697429C14.8353 0.592486 14.6106 0.550888 14.3731 0.496715L13.9908 0.474403C13.9129 0.443204 13.832 0.351497 13.7589 0.307062C13.4683 0.130268 12.723 -0.253859 12.5078 0.250337C12.3719 0.569229 12.7108 0.880368 12.8322 1.04204C12.9172 1.15549 13.0263 1.28246 13.087 1.41C13.127 1.49376 13.1339 1.57781 13.1681 1.66649C13.2523 1.88394 13.3256 2.12247 13.4345 2.32432C13.4896 2.42642 13.5503 2.53401 13.6199 2.62534C13.6626 2.6814 13.7358 2.70608 13.7473 2.79268C13.6758 2.88911 13.6717 3.03849 13.6314 3.16064C13.4504 3.71012 13.5186 4.393 13.782 4.79972C13.8628 4.92452 14.0531 5.19227 14.3149 5.08959C14.5438 4.99978 14.4918 4.72182 14.5583 4.47639C14.573 4.42061 14.564 4.37996 14.593 4.34261V4.35377L14.8016 4.7551C14.9558 4.99429 15.2299 5.24436 15.4619 5.41312C15.5823 5.50057 15.678 5.65184 15.8327 5.70298V5.69183H15.8211C15.7909 5.64645 15.7438 5.62782 15.7052 5.59161C15.6145 5.50605 15.5136 5.39969 15.4386 5.30175C15.2274 5.02587 15.041 4.72409 14.871 4.40974C14.7899 4.2597 14.7193 4.09415 14.651 3.94147C14.6247 3.88257 14.625 3.7936 14.57 3.76307C14.495 3.875 14.3846 3.96539 14.3266 4.09756C14.2339 4.30877 14.2219 4.5663 14.1876 4.83348C14.1673 4.84047 14.1763 4.83565 14.1644 4.84463C14.0031 4.80719 13.9464 4.64732 13.8864 4.51014C13.7348 4.16317 13.7067 3.6048 13.8401 3.20564C13.8744 3.1024 14.0306 2.77699 13.9675 2.68159C13.9373 2.58639 13.8378 2.53033 13.7821 2.45847C13.7133 2.36866 13.6444 2.2501 13.5967 2.14629C13.4726 1.8759 13.4146 1.57242 13.2839 1.29891C13.2215 1.16825 13.116 1.03608 13.0291 0.920738C12.933 0.79216 12.8255 0.697239 12.7511 0.542568C12.7246 0.48726 12.6886 0.398863 12.7279 0.341854C12.7317 0.325474 12.7402 0.310469 12.7526 0.298609C12.7649 0.286749 12.7805 0.278529 12.7975 0.274918C12.8647 0.225094 13.0519 0.291463 13.1219 0.319542C13.3075 0.393852 13.4627 0.46457 13.6201 0.56488C13.6958 0.612151 13.7721 0.706316 13.8633 0.73222H13.9675C14.1305 0.768335 14.3133 0.743565 14.4655 0.788C14.7349 0.866754 14.9762 0.989376 15.1954 1.12249C15.8632 1.52827 16.4091 2.10592 16.7826 2.7959C16.8427 2.90679 16.8687 3.01278 16.9216 3.13039C17.0284 3.36674 17.1629 3.61189 17.2692 3.8439C17.3753 4.07553 17.4784 4.30905 17.6283 4.50173C17.7071 4.60289 18.0114 4.65734 18.1497 4.7135C18.2466 4.75293 18.4054 4.79405 18.4972 4.84728C18.6726 4.9491 18.8425 5.0704 19.0071 5.18196C19.0893 5.23774 19.342 5.35998 19.3546 5.46067L19.3543 5.45765Z" fill="#00618A"/>
<path fill-rule="evenodd" clip-rule="evenodd" d="M14.1758 1.21015C14.0909 1.20864 14.0308 1.21904 13.9673 1.23246V1.24362H13.9789C14.0193 1.32379 14.0909 1.37532 14.141 1.44433L14.2569 1.67842L14.2685 1.66726C14.3402 1.61857 14.3731 1.54077 14.3726 1.42193C14.3438 1.39281 14.3396 1.35631 14.3146 1.32152C14.2815 1.2752 14.2164 1.24891 14.1756 1.20996L14.1758 1.21015Z" fill="#00618A"/>
<path fill-rule="evenodd" clip-rule="evenodd" d="M18.8888 8.33241C18.8888 8.66427 19.151 8.88796 19.4443 8.88796C19.7377 8.88796 19.9999 8.66427 19.9999 8.33241C19.9999 8.00055 19.7377 7.77686 19.4443 7.77686C19.151 7.77686 18.8888 8.00055 18.8888 8.33241ZM19.8754 8.33241C19.8754 8.58426 19.6829 8.77243 19.4441 8.77243C19.2028 8.77243 19.0128 8.58426 19.0128 8.33241C19.0128 8.08055 19.2025 7.89239 19.4441 7.89239C19.6827 7.89239 19.8754 8.08055 19.8754 8.33241ZM19.5939 8.64952H19.7182L19.5361 8.37107C19.6339 8.36068 19.7078 8.31319 19.7078 8.19765C19.7078 8.06871 19.6263 8.01552 19.4694 8.01552H19.2219V8.64963H19.3286V8.37554H19.4278L19.5937 8.64963L19.5939 8.64952ZM19.3286 8.28637V8.10424H19.4515C19.5152 8.10424 19.5923 8.11609 19.5923 8.19028C19.5923 8.27911 19.5227 8.2866 19.4426 8.2866H19.3286V8.28637Z" fill="#E48E00"/>
</svg>
