<svg width="11" height="15" viewBox="0 0 11 15" fill="none" xmlns="http://www.w3.org/2000/svg">
<path d="M4.70281 12.9069C5.2991 12.3479 5.63402 11.5901 5.63402 10.8C5.63402 10.0099 5.2991 9.25211 4.70281 8.69308L2.46991 10.7838C2.1737 11.0604 1.93868 11.389 1.77832 11.7507C1.61797 12.1124 1.53542 12.5003 1.53542 12.8919C1.53542 13.2836 1.61797 13.6714 1.77832 14.0332C1.93868 14.3949 2.1737 14.7235 2.46991 15L4.70281 12.9069Z" fill="url(#paint0_linear_383_2268)"/>
<path d="M0.932015 0C0.636544 0.276461 0.402152 0.604731 0.242232 0.966049C0.0823126 1.32737 0 1.71465 0 2.10577C0 2.49689 0.0823126 2.88417 0.242232 3.24549C0.402152 3.60681 0.636544 3.93508 0.932015 4.21154L5.64921 8.62846C5.94468 8.90492 6.17908 9.23319 6.33899 9.59451C6.49891 9.95583 6.58123 10.3431 6.58123 10.7342C6.58123 11.1253 6.49891 11.5126 6.33899 11.874C6.17908 12.2353 5.94468 12.5635 5.64921 12.84L10.1471 8.62846L0.932015 0Z" fill="url(#paint1_linear_383_2268)"/>
<defs>
<linearGradient id="paint0_linear_383_2268" x1="-0.175932" y1="13.0681" x2="6.5303" y2="4.27062" gradientUnits="userSpaceOnUse">
<stop stop-color="#02FFE2"/>
<stop offset="1" stop-color="#0088D8"/>
</linearGradient>
<linearGradient id="paint1_linear_383_2268" x1="4.85315" y1="12.2954" x2="5.17082" y2="0.873374" gradientUnits="userSpaceOnUse">
<stop stop-color="#02FFE2"/>
<stop offset="1" stop-color="#C108FE"/>
</linearGradient>
</defs>
</svg>
