<svg width="14" height="15" viewBox="0 0 14 15" fill="none" xmlns="http://www.w3.org/2000/svg">
<path d="M13.125 12.1429V12.8571H0V12.1429L1.45833 10.7143V6.42857C1.45833 4.21429 2.93854 2.26429 5.10417 1.63571V1.42857C5.10417 1.04969 5.25781 0.686328 5.5313 0.418419C5.80479 0.15051 6.17573 0 6.5625 0C6.94927 0 7.32021 0.15051 7.5937 0.418419C7.86719 0.686328 8.02083 1.04969 8.02083 1.42857V1.63571C10.1865 2.26429 11.6667 4.21429 11.6667 6.42857V10.7143L13.125 12.1429ZM8.02083 13.5714C8.02083 13.9503 7.86719 14.3137 7.5937 14.5816C7.32021 14.8495 6.94927 15 6.5625 15C6.17573 15 5.80479 14.8495 5.5313 14.5816C5.25781 14.3137 5.10417 13.9503 5.10417 13.5714" fill="#EAEAEA"/>
</svg>
