<svg width="15" height="15" viewBox="0 0 15 15" fill="none" xmlns="http://www.w3.org/2000/svg">
<path d="M4.83333 6.49333V4C4.83333 3.55797 5.00893 3.13405 5.32149 2.82149C5.63405 2.50893 6.05797 2.33333 6.5 2.33333C6.94203 2.33333 7.36595 2.50893 7.67851 2.82149C7.99107 3.13405 8.16667 3.55797 8.16667 4V6.49333C8.97333 5.95333 9.5 5.04 9.5 4C9.5 2.34 8.16 1 6.5 1C4.84 1 3.5 2.34 3.5 4C3.5 5.04 4.02667 5.95333 4.83333 6.49333ZM11.3933 9.58L8.36667 8.07333C8.25333 8.02667 8.13333 8 8.00667 8H7.5V4C7.5 3.44667 7.05333 3 6.5 3C5.94667 3 5.5 3.44667 5.5 4V11.16C3.1 10.6533 3.14 10.66 3.05333 10.66C2.84667 10.66 2.66 10.7467 2.52667 10.88L2 11.4133L5.29333 14.7067C5.47333 14.8867 5.72667 15 6 15H10.5267C11.0267 15 11.4133 14.6333 11.4867 14.1467L11.9867 10.6333C11.9933 10.5867 12 10.54 12 10.5C12 10.0867 11.7467 9.72667 11.3933 9.58Z" fill="#EAEAEA"/>
</svg>
