<svg width="15" height="15" viewBox="0 0 15 15" fill="none" xmlns="http://www.w3.org/2000/svg">
<g clip-path="url(#clip0_3363_3330)">
<path d="M7.4375 0.876953C7.15638 0.876953 6.87801 0.932324 6.61828 1.03991C6.35856 1.14749 6.12257 1.30517 5.92379 1.50395C5.725 1.70274 5.56732 1.93873 5.45974 2.19845C5.35216 2.45817 5.29679 2.73654 5.29679 3.01767C5.29679 3.29879 5.35216 3.57716 5.45974 3.83688C5.56732 4.09661 5.725 4.3326 5.92379 4.53138C6.12257 4.73016 6.35856 4.88785 6.61828 4.99543C6.87801 5.10301 7.15638 5.15838 7.4375 5.15838C8.00525 5.15838 8.54975 4.93284 8.95121 4.53138C9.35267 4.12992 9.57821 3.58542 9.57821 3.01767C9.57821 2.44991 9.35267 1.90542 8.95121 1.50395C8.54975 1.10249 8.00525 0.876953 7.4375 0.876953ZM12.2589 1.94624C11.8327 1.94624 11.4239 2.11556 11.1225 2.41696C10.8211 2.71836 10.6518 3.12714 10.6518 3.55338C10.6518 3.97962 10.8211 4.38841 11.1225 4.6898C11.4239 4.9912 11.8327 5.16052 12.2589 5.16052C12.6852 5.16052 13.094 4.9912 13.3953 4.6898C13.6967 4.38841 13.8661 3.97962 13.8661 3.55338C13.8661 3.12714 13.6967 2.71836 13.3953 2.41696C13.094 2.11556 12.6852 1.94624 12.2589 1.94624ZM2.61607 1.94624C2.18983 1.94624 1.78105 2.11556 1.47965 2.41696C1.17825 2.71836 1.00893 3.12714 1.00893 3.55338C1.00893 3.97962 1.17825 4.38841 1.47965 4.6898C1.78105 4.9912 2.18983 5.16052 2.61607 5.16052C3.04231 5.16052 3.4511 4.9912 3.75249 4.6898C4.05389 4.38841 4.22321 3.97962 4.22321 3.55338C4.22321 3.12714 4.05389 2.71836 3.75249 2.41696C3.4511 2.11556 3.04231 1.94624 2.61607 1.94624ZM4.22321 7.29588C4.22519 7.01302 4.33895 6.74242 4.53967 6.54311C4.74039 6.3438 5.01178 6.23195 5.29464 6.23195H9.58036C9.86452 6.23195 10.137 6.34484 10.338 6.54577C10.5389 6.7467 10.6518 7.01922 10.6518 7.30338V10.5177C10.6517 10.8549 10.5989 11.19 10.4954 11.5109C10.2581 12.2381 9.7694 12.8569 9.11698 13.2561C8.46456 13.6554 7.69116 13.809 6.93567 13.6894C6.18018 13.5698 5.49209 13.1847 4.99494 12.6034C4.4978 12.0221 4.22418 11.2826 4.22321 10.5177V7.30338V7.29588ZM3.15179 7.30338C3.15179 6.91231 3.25571 6.54695 3.43893 6.23195H1.00893C0.724768 6.23195 0.452246 6.34484 0.251314 6.54577C0.0503824 6.7467 -0.0624999 7.01922 -0.0624999 7.30338V9.98195C-0.0626458 10.4205 0.044885 10.8524 0.250649 11.2396C0.456414 11.6269 0.754118 11.9577 1.11762 12.2031C1.48112 12.4484 1.89929 12.6007 2.33542 12.6467C2.77155 12.6926 3.21228 12.6308 3.61893 12.4666C3.31055 11.8629 3.15041 11.1945 3.15179 10.5166V7.30338ZM11.7232 7.30338V10.5177C11.7232 11.2195 11.555 11.8816 11.2561 12.4666C11.6627 12.6308 12.1035 12.6926 12.5396 12.6467C12.9757 12.6007 13.3939 12.4484 13.7574 12.2031C14.1209 11.9577 14.4186 11.6269 14.6244 11.2396C14.8301 10.8524 14.9376 10.4205 14.9375 9.98195V7.30338C14.9375 7.01922 14.8246 6.7467 14.6237 6.54577C14.4228 6.34484 14.1502 6.23195 13.8661 6.23195H11.4361C11.6182 6.54695 11.7232 6.91231 11.7232 7.30338Z" fill="#EAEAEA"/>
</g>
<defs>
<clipPath id="clip0_3363_3330">
<rect width="15" height="15" fill="white"/>
</clipPath>
</defs>
</svg>
