<svg width="15" height="15" viewBox="0 0 15 15" fill="none" xmlns="http://www.w3.org/2000/svg">
<g clip-path="url(#clip0_1241_3537)">
<path d="M1.20426 14.9594C0.91393 14.9012 0.647312 14.7584 0.437994 14.549C0.228676 14.3396 0.0860236 14.0729 0.028009 13.7825C-0.019791 13.5408 -0.00731167 13.291 0.064344 13.0553C0.136 12.8195 0.264625 12.6051 0.438852 12.4308C0.613078 12.2566 0.827541 12.128 1.06329 12.0563C1.29903 11.9847 1.5488 11.9722 1.79051 12.02C2.08075 12.0781 2.34731 12.2208 2.55662 12.4301C2.76593 12.6394 2.90863 12.906 2.96676 13.1963C3.01456 13.438 3.00208 13.6877 2.93042 13.9235C2.85877 14.1592 2.73014 14.3737 2.55592 14.5479C2.38169 14.7221 2.16723 14.8508 1.93148 14.9224C1.69574 14.9941 1.44597 15.0072 1.20426 14.9594ZM13.2093 2.98C12.919 2.92188 12.6525 2.77918 12.4431 2.56987C12.2338 2.36056 12.0911 2.094 12.033 1.80375C11.9852 1.56204 11.9977 1.31227 12.0693 1.07653C12.141 0.840786 12.2696 0.626323 12.4439 0.452096C12.6181 0.27787 12.8325 0.149244 13.0683 0.0775886C13.304 0.00593296 13.5538 -0.00654635 13.7955 0.0412536C14.0858 0.099379 14.3523 0.242081 14.5616 0.45139C14.7709 0.660699 14.9136 0.927258 14.9718 1.2175C15.0196 1.45922 15.0071 1.70898 14.9354 1.94473C14.8638 2.18047 14.7351 2.39493 14.5609 2.56916C14.3867 2.74339 14.1722 2.87201 13.9365 2.94367C13.7007 3.01532 13.451 3.0278 13.2093 2.98ZM7.51301 3.75625C8.22988 3.75625 8.89988 3.95875 9.46926 4.30813L11.0849 2.6925C9.93135 1.83493 8.50787 1.4208 7.07432 1.52571C5.64077 1.63063 4.29275 2.2476 3.27637 3.26398C2.25998 4.28037 1.64301 5.62838 1.53809 7.06194C1.43318 8.49549 1.84731 9.91897 2.70488 11.0725L4.32113 9.45625C3.9734 8.88885 3.78318 8.23902 3.77009 7.57366C3.757 6.90831 3.92149 6.25149 4.24664 5.67085C4.57179 5.09021 5.04583 4.60673 5.61996 4.2702C6.19408 3.93368 6.84753 3.75627 7.51301 3.75625ZM10.7049 5.54375C11.1442 6.26075 11.3294 7.10477 11.2305 7.93983C11.1317 8.77489 10.7546 9.55236 10.16 10.147C9.56536 10.7416 8.7879 11.1187 7.95284 11.2175C7.11778 11.3164 6.27375 11.1312 5.55676 10.6919L3.94051 12.3075C5.09405 13.1651 6.51752 13.5792 7.95108 13.4743C9.38463 13.3694 10.7326 12.7524 11.749 11.736C12.7654 10.7196 13.3824 9.37162 13.4873 7.93807C13.5922 6.50452 13.1781 5.08104 12.3205 3.9275L10.7049 5.54375Z" fill="#EAEAEA"/>
</g>
<defs>
<clipPath id="clip0_1241_3537">
<rect width="15" height="15" fill="white"/>
</clipPath>
</defs>
</svg>
