<svg width="15" height="15" viewBox="0 0 15 15" fill="none" xmlns="http://www.w3.org/2000/svg">
<path fill-rule="evenodd" clip-rule="evenodd" d="M3.75 4.28571C4.31832 4.28571 4.86337 4.05995 5.26523 3.65809C5.66709 3.25622 5.89286 2.71118 5.89286 2.14286C5.89286 1.57454 5.66709 1.02949 5.26523 0.627628C4.86337 0.225765 4.31832 0 3.75 0C3.18168 0 2.63663 0.225765 2.23477 0.627628C1.83291 1.02949 1.60714 1.57454 1.60714 2.14286C1.60714 2.71118 1.83291 3.25622 2.23477 3.65809C2.63663 4.05995 3.18168 4.28571 3.75 4.28571ZM5.94107 10.7143V10.6821C5.94107 9.62143 6.52714 8.69786 7.39286 8.21571C7.17521 7.32485 6.63866 6.54462 5.88467 6.02258C5.13069 5.50054 4.21155 5.27289 3.30108 5.38268C2.39061 5.49246 1.55192 5.93207 0.943641 6.61837C0.33536 7.30467 -0.00035048 8.19008 2.74578e-07 9.10714V10.1786C2.74578e-07 10.3207 0.0564414 10.4569 0.156907 10.5574C0.257373 10.6578 0.393634 10.7143 0.535715 10.7143H1.60714L2.08393 14.5307C2.10012 14.6603 2.16305 14.7794 2.26091 14.8658C2.35876 14.9523 2.48481 15 2.61536 15H4.88571C5.01626 15 5.14231 14.9523 5.24016 14.8658C5.33802 14.7794 5.40096 14.6603 5.41714 14.5307L5.89286 10.7143H5.94107ZM10.6361 8.23607C10.565 8.23607 10.4969 8.26429 10.4467 8.31452C10.3964 8.36476 10.3682 8.43289 10.3682 8.50393V9.20143H11.8821V8.505C11.8821 8.43396 11.8539 8.36583 11.8037 8.3156C11.7535 8.26536 11.6853 8.23714 11.6143 8.23714L10.6361 8.23607ZM8.76107 8.50393V9.20143C7.94357 9.20143 7.28036 9.86571 7.28036 10.6832V13.5193C7.28036 14.3368 7.94357 15 8.76107 15H13.4882C14.3057 15 14.9689 14.3368 14.9689 13.5193V10.6821C14.9689 9.86464 14.3068 9.20143 13.4893 9.20143V8.505C13.4893 8.00772 13.2917 7.53081 12.9401 7.17917C12.5885 6.82754 12.1116 6.63 11.6143 6.63H10.6361C10.1388 6.63 9.66188 6.82754 9.31025 7.17917C8.95861 7.53081 8.76107 8.00772 8.76107 8.505V8.50393Z" fill="#EAEAEA"/>
</svg>
