<svg width="13" height="15" viewBox="0 0 13 15" fill="currentColor" xmlns="http://www.w3.org/2000/svg">
<path d="M6.07143 0C4.46177 0.00184311 2.91858 0.623288 1.78038 1.72801C0.642181 2.83274 0.00190542 4.33054 6.45938e-06 5.89286C-0.00192143 7.16958 0.427755 8.41167 1.22312 9.42857C1.22312 9.42857 1.38871 9.64018 1.41575 9.67071L6.07143 15L10.7293 9.66804C10.7536 9.63964 10.9197 9.42857 10.9197 9.42857L10.9203 9.42696C11.7153 8.41051 12.1447 7.169 12.1429 5.89286C12.141 4.33054 11.5007 2.83274 10.3625 1.72801C9.22427 0.623288 7.68109 0.00184311 6.07143 0ZM6.07143 8.03571C5.63477 8.03571 5.20792 7.91004 4.84485 7.67458C4.48178 7.43912 4.1988 7.10445 4.0317 6.71289C3.86459 6.32134 3.82087 5.89048 3.90606 5.47481C3.99125 5.05913 4.20152 4.67731 4.51029 4.37763C4.81905 4.07794 5.21244 3.87386 5.64071 3.79117C6.06898 3.70849 6.51289 3.75093 6.91631 3.91312C7.31973 4.0753 7.66454 4.34996 7.90714 4.70235C8.14973 5.05474 8.27922 5.46904 8.27922 5.89286C8.27849 6.46096 8.04565 7.00559 7.63176 7.4073C7.21788 7.80901 6.65675 8.03501 6.07143 8.03571Z" fill="currentColor"/>
</svg>
