<svg width="15" height="15" viewBox="0 0 15 15" fill="none" xmlns="http://www.w3.org/2000/svg">
<path d="M8.25 6.9525V0L12.75 8.25L9.75 12.75H5.25L2.25 8.25L6.75 0V6.9525C6.46404 7.1176 6.24054 7.37245 6.11418 7.67751C5.98782 7.98258 5.96565 8.32082 6.05111 8.63977C6.13657 8.95872 6.32489 9.24055 6.58686 9.44157C6.84882 9.64258 7.1698 9.75154 7.5 9.75154C7.8302 9.75154 8.15118 9.64258 8.41314 9.44157C8.67511 9.24055 8.86343 8.95872 8.94889 8.63977C9.03435 8.32082 9.01218 7.98258 8.88582 7.67751C8.75946 7.37245 8.53596 7.1176 8.25 6.9525ZM4.5 13.5H10.5V15H4.5V13.5Z" fill="#EAEAEA"/>
</svg>
