<svg width="15" height="15" viewBox="0 0 15 15" fill="none" xmlns="http://www.w3.org/2000/svg">
<path d="M7.5 0C3.36462 0 0 3.36462 0 7.5C0 11.6354 3.36462 15 7.5 15C11.6354 15 15 11.6354 15 7.5C15 3.36462 11.6354 0 7.5 0ZM7.5 1.15385C11.0112 1.15385 13.8462 3.98885 13.8462 7.5C13.8462 11.0112 11.0112 13.8462 7.5 13.8462C3.98885 13.8462 1.15385 11.0112 1.15385 7.5C1.15385 3.98885 3.98885 1.15385 7.5 1.15385ZM7.44577 4.03846C5.52808 4.03846 3.98423 5.58231 3.98423 7.5C3.98423 9.41769 5.52808 10.9615 7.44577 10.9615C8.82981 10.9615 10.0131 10.1319 10.5646 8.96019L9.51923 8.47385C9.14712 9.26423 8.37 9.80769 7.44577 9.80769C6.13212 9.80769 5.13808 8.81365 5.13808 7.5C5.13808 6.18635 6.13212 5.19231 7.44577 5.19231C8.37 5.19231 9.14769 5.73519 9.51923 6.52673L10.5652 6.03981C10.0125 4.86808 8.82981 4.03846 7.44519 4.03846H7.44577Z" fill="#EAEAEA"/>
</svg>
